  0
SECTION
  2
HEADER
  9
$ANGBASE
  50
0.0
  9
$ANGDIR
  70
1
  9
$MEASUREMENT
  70
1
  0
ENDSEC
  0
SECTION
  2
TABLES
  0
TABLE
  2
LTYPE
  70
4
  0
LTYPE
  5
40F
  2
CONTINUOUS
  70
0
  3
Solid line
  72
65
  73
0
  40
0.0
  0
LTYPE
  5
410
  2
DASHDOT
 70
0
  3
Dash Dot ____ _ ____ _
 72
65
 73
4
 40
2.0
 49
1.25
 49
-0.25
 49
0.25
 49
-0.25
  0
LTYPE
  5
411
  2
DASHED
 70
0
  3
Dashed __ __ __ __ __
 72
65
 73
2
 40
0.75
 49
0.5
 49
-0.25
  0
LTYPE
  5
43B
  2
DOTTED
 70
0
  3
Dotted .  .  .  .
 72
65
 73
2
 40
0.2
 49
0.0
 49
-0.2
  0
ENDTAB
  0
TABLE
  2
STYLE
  70
4
  0
STYLE
  2
KICAD
  70
0
  40
0
  41
1
  42
1
  50
0
  71
0
  3
isocp.shx
  0
STYLE
  2
KICADB
  70
0
  40
0
  41
1
  42
1
  50
0
  71
0
  3
isocp.shx
  0
STYLE
  2
KICADI
  70
0
  40
0
  41
1
  42
1
  50
15
  71
0
  3
isocp.shx
  0
STYLE
  2
KICADBI
  70
0
  40
0
  41
1
  42
1
  50
15
  71
0
  3
isocp.shx
  0
ENDTAB
  0
TABLE
  2
LAYER
  70
1
  0
LAYER
  2
BLACK
  70
0
  62
7
  6
CONTINUOUS
  0
ENDTAB
  0
ENDSEC
  0
SECTION
  2
ENTITIES
0
LINE
8
BLACK
6
CONTINUOUS
10
279.075
20
-83.1273
11
241.178
21
-83.1273
0
LINE
8
BLACK
6
CONTINUOUS
10
241.178
20
-83.1273
11
230.214
21
-83.1281
0
LINE
8
BLACK
6
CONTINUOUS
10
230.214
20
-83.1281
11
230.063
21
-83.1563
0
LINE
8
BLACK
6
CONTINUOUS
10
230.063
20
-83.1563
11
229.921
21
-83.2484
0
LINE
8
BLACK
6
CONTINUOUS
10
229.921
20
-83.2484
11
219.389
21
-97.6907
0
LINE
8
BLACK
6
CONTINUOUS
10
219.389
20
-97.6907
11
219.374
21
-97.7014
0
LINE
8
BLACK
6
CONTINUOUS
10
219.374
20
-97.7014
11
219.363
21
-97.7156
0
LINE
8
BLACK
6
CONTINUOUS
10
219.363
20
-97.7156
11
219.189
21
-97.8285
0
LINE
8
BLACK
6
CONTINUOUS
10
219.189
20
-97.8285
11
219.17
21
-97.8336
0
LINE
8
BLACK
6
CONTINUOUS
10
219.17
20
-97.8336
11
219.153
21
-97.8429
0
LINE
8
BLACK
6
CONTINUOUS
10
219.153
20
-97.8429
11
218.973
21
-97.8764
0
LINE
8
BLACK
6
CONTINUOUS
10
218.973
20
-97.8764
11
218.97
21
-97.876
0
LINE
8
BLACK
6
CONTINUOUS
10
218.97
20
-97.876
11
218.967
21
-97.8773
0
LINE
8
BLACK
6
CONTINUOUS
10
218.967
20
-97.8773
11
182.297
21
-102.648
0
LINE
8
BLACK
6
CONTINUOUS
10
182.297
20
-102.648
11
182.296
21
-102.647
0
LINE
8
BLACK
6
CONTINUOUS
10
182.296
20
-102.647
11
182.294
21
-102.648
0
LINE
8
BLACK
6
CONTINUOUS
10
182.294
20
-102.648
11
182.255
21
-102.652
0
LINE
8
BLACK
6
CONTINUOUS
10
182.255
20
-102.652
11
182.053
21
-102.681
0
LINE
8
BLACK
6
CONTINUOUS
10
182.053
20
-102.681
11
181.854
21
-102.721
0
LINE
8
BLACK
6
CONTINUOUS
10
181.854
20
-102.721
11
181.668
21
-102.771
0
LINE
8
BLACK
6
CONTINUOUS
10
181.668
20
-102.771
11
167.385
21
-111.026
0
LINE
8
BLACK
6
CONTINUOUS
10
167.385
20
-111.026
11
167.385
21
-111.026
0
LINE
8
BLACK
6
CONTINUOUS
10
167.385
20
-111.026
11
167.385
21
-111.026
0
LINE
8
BLACK
6
CONTINUOUS
10
167.385
20
-111.026
11
167.201
21
-111.131
0
LINE
8
BLACK
6
CONTINUOUS
10
167.201
20
-111.131
11
167.193
21
-111.132
0
LINE
8
BLACK
6
CONTINUOUS
10
167.193
20
-111.132
11
167.187
21
-111.137
0
LINE
8
BLACK
6
CONTINUOUS
10
167.187
20
-111.137
11
166.994
21
-111.211
0
LINE
8
BLACK
6
CONTINUOUS
10
166.994
20
-111.211
11
166.987
21
-111.212
0
LINE
8
BLACK
6
CONTINUOUS
10
166.987
20
-111.212
11
166.98
21
-111.216
0
LINE
8
BLACK
6
CONTINUOUS
10
166.98
20
-111.216
11
166.782
21
-111.259
0
LINE
8
BLACK
6
CONTINUOUS
10
166.782
20
-111.259
11
166.775
21
-111.259
0
LINE
8
BLACK
6
CONTINUOUS
10
166.775
20
-111.259
11
166.768
21
-111.261
0
LINE
8
BLACK
6
CONTINUOUS
10
166.768
20
-111.261
11
166.567
21
-111.276
0
LINE
8
BLACK
6
CONTINUOUS
10
166.567
20
-111.276
11
166.559
21
-111.274
0
LINE
8
BLACK
6
CONTINUOUS
10
166.559
20
-111.274
11
166.55
21
-111.276
0
LINE
8
BLACK
6
CONTINUOUS
10
166.55
20
-111.276
11
166.286
21
-111.25
0
LINE
8
BLACK
6
CONTINUOUS
10
166.286
20
-111.25
11
166.277
21
-111.246
0
LINE
8
BLACK
6
CONTINUOUS
10
166.277
20
-111.246
11
166.267
21
-111.246
0
LINE
8
BLACK
6
CONTINUOUS
10
166.267
20
-111.246
11
166.012
21
-111.171
0
LINE
8
BLACK
6
CONTINUOUS
10
166.012
20
-111.171
11
166.005
21
-111.166
0
LINE
8
BLACK
6
CONTINUOUS
10
166.005
20
-111.166
11
165.996
21
-111.165
0
LINE
8
BLACK
6
CONTINUOUS
10
165.996
20
-111.165
11
165.816
21
-111.076
0
LINE
8
BLACK
6
CONTINUOUS
10
165.816
20
-111.076
11
165.81
21
-111.071
0
LINE
8
BLACK
6
CONTINUOUS
10
165.81
20
-111.071
11
165.803
21
-111.069
0
LINE
8
BLACK
6
CONTINUOUS
10
165.803
20
-111.069
11
165.636
21
-110.954
0
LINE
8
BLACK
6
CONTINUOUS
10
165.636
20
-110.954
11
165.631
21
-110.948
0
LINE
8
BLACK
6
CONTINUOUS
10
165.631
20
-110.948
11
165.624
21
-110.944
0
LINE
8
BLACK
6
CONTINUOUS
10
165.624
20
-110.944
11
165.473
21
-110.804
0
LINE
8
BLACK
6
CONTINUOUS
10
165.473
20
-110.804
11
165.47
21
-110.797
0
LINE
8
BLACK
6
CONTINUOUS
10
165.47
20
-110.797
11
165.463
21
-110.792
0
LINE
8
BLACK
6
CONTINUOUS
10
165.463
20
-110.792
11
165.332
21
-110.626
0
LINE
8
BLACK
6
CONTINUOUS
10
165.332
20
-110.626
11
165.331
21
-110.622
0
LINE
8
BLACK
6
CONTINUOUS
10
165.331
20
-110.622
11
165.327
21
-110.62
0
LINE
8
BLACK
6
CONTINUOUS
10
165.327
20
-110.62
11
165.324
21
-110.615
0
LINE
8
BLACK
6
CONTINUOUS
10
165.324
20
-110.615
11
165.323
21
-110.612
0
LINE
8
BLACK
6
CONTINUOUS
10
165.323
20
-110.612
11
165.321
21
-110.61
0
LINE
8
BLACK
6
CONTINUOUS
10
165.321
20
-110.61
11
152.095
21
-87.6772
0
LINE
8
BLACK
6
CONTINUOUS
10
152.095
20
-87.6772
11
152.093
21
-87.6716
0
LINE
8
BLACK
6
CONTINUOUS
10
152.093
20
-87.6716
11
152.092
21
-87.6705
0
LINE
8
BLACK
6
CONTINUOUS
10
152.092
20
-87.6705
11
152.003
21
-87.4916
0
LINE
8
BLACK
6
CONTINUOUS
10
152.003
20
-87.4916
11
152.002
21
-87.4852
0
LINE
8
BLACK
6
CONTINUOUS
10
152.002
20
-87.4852
11
151.998
21
-87.48
0
LINE
8
BLACK
6
CONTINUOUS
10
151.998
20
-87.48
11
151.922
21
-87.2654
0
LINE
8
BLACK
6
CONTINUOUS
10
151.922
20
-87.2654
11
151.922
21
-87.2585
0
LINE
8
BLACK
6
CONTINUOUS
10
151.922
20
-87.2585
11
151.919
21
-87.2525
0
LINE
8
BLACK
6
CONTINUOUS
10
151.919
20
-87.2525
11
151.873
21
-87.0299
0
LINE
8
BLACK
6
CONTINUOUS
10
151.873
20
-87.0299
11
151.873
21
-87.023
0
LINE
8
BLACK
6
CONTINUOUS
10
151.873
20
-87.023
11
151.871
21
-87.0166
0
LINE
8
BLACK
6
CONTINUOUS
10
151.871
20
-87.0166
11
151.855
21
-86.7889
0
LINE
8
BLACK
6
CONTINUOUS
10
151.855
20
-86.7889
11
151.856
21
-86.7851
0
LINE
8
BLACK
6
CONTINUOUS
10
151.856
20
-86.7851
11
151.855
21
-86.7814
0
LINE
8
BLACK
6
CONTINUOUS
10
151.855
20
-86.7814
11
151.855
21
-86.7527
0
LINE
8
BLACK
6
CONTINUOUS
10
151.855
20
-86.7527
11
151.855
21
-86.7511
0
LINE
8
BLACK
6
CONTINUOUS
10
151.855
20
-86.7511
11
151.855
21
-86.7509
0
LINE
8
BLACK
6
CONTINUOUS
10
151.855
20
-86.7509
11
151.855
21
-27.2769
0
LINE
8
BLACK
6
CONTINUOUS
10
151.855
20
-27.2769
11
151.858
21
-27.2676
0
LINE
8
BLACK
6
CONTINUOUS
10
151.858
20
-27.2676
11
151.857
21
-27.256
0
LINE
8
BLACK
6
CONTINUOUS
10
151.857
20
-27.256
11
151.907
21
-27.0393
0
LINE
8
BLACK
6
CONTINUOUS
10
151.907
20
-27.0393
11
151.918
21
-27.0204
0
LINE
8
BLACK
6
CONTINUOUS
10
151.918
20
-27.0204
11
151.925
21
-26.9997
0
LINE
8
BLACK
6
CONTINUOUS
10
151.925
20
-26.9997
11
152.058
21
-26.8307
0
LINE
8
BLACK
6
CONTINUOUS
10
152.058
20
-26.8307
11
152.076
21
-26.8187
0
LINE
8
BLACK
6
CONTINUOUS
10
152.076
20
-26.8187
11
152.091
21
-26.8034
0
LINE
8
BLACK
6
CONTINUOUS
10
152.091
20
-26.8034
11
152.284
21
-26.705
0
LINE
8
BLACK
6
CONTINUOUS
10
152.284
20
-26.705
11
152.301
21
-26.7022
0
LINE
8
BLACK
6
CONTINUOUS
10
152.301
20
-26.7022
11
152.317
21
-26.6948
0
LINE
8
BLACK
6
CONTINUOUS
10
152.317
20
-26.6948
11
152.442
21
-26.6791
0
LINE
8
BLACK
6
CONTINUOUS
10
152.442
20
-26.6791
11
152.446
21
-26.6798
0
LINE
8
BLACK
6
CONTINUOUS
10
152.446
20
-26.6798
11
152.456
21
-26.6765
0
LINE
8
BLACK
6
CONTINUOUS
10
152.456
20
-26.6765
11
172.199
21
-26.6783
0
LINE
8
BLACK
6
CONTINUOUS
10
172.199
20
-26.6783
11
172.3
21
-26.6655
0
LINE
8
BLACK
6
CONTINUOUS
10
172.3
20
-26.6655
11
172.458
21
-26.585
0
LINE
8
BLACK
6
CONTINUOUS
10
172.458
20
-26.585
11
172.563
21
-26.4509
0
LINE
8
BLACK
6
CONTINUOUS
10
172.563
20
-26.4509
11
172.605
21
-26.2669
0
LINE
8
BLACK
6
CONTINUOUS
10
172.605
20
-26.2669
11
172.607
21
-25.0263
0
LINE
8
BLACK
6
CONTINUOUS
10
172.607
20
-25.0263
11
172.609
21
-25.0214
0
LINE
8
BLACK
6
CONTINUOUS
10
172.609
20
-25.0214
11
172.607
21
-25.0061
0
LINE
8
BLACK
6
CONTINUOUS
10
172.607
20
-25.0061
11
172.656
21
-24.7893
0
LINE
8
BLACK
6
CONTINUOUS
10
172.656
20
-24.7893
11
172.668
21
-24.7704
0
LINE
8
BLACK
6
CONTINUOUS
10
172.668
20
-24.7704
11
172.675
21
-24.7498
0
LINE
8
BLACK
6
CONTINUOUS
10
172.675
20
-24.7498
11
172.808
21
-24.5807
0
LINE
8
BLACK
6
CONTINUOUS
10
172.808
20
-24.5807
11
172.826
21
-24.5686
0
LINE
8
BLACK
6
CONTINUOUS
10
172.826
20
-24.5686
11
172.841
21
-24.5533
0
LINE
8
BLACK
6
CONTINUOUS
10
172.841
20
-24.5533
11
173.034
21
-24.4548
0
LINE
8
BLACK
6
CONTINUOUS
10
173.034
20
-24.4548
11
173.051
21
-24.4521
0
LINE
8
BLACK
6
CONTINUOUS
10
173.051
20
-24.4521
11
173.067
21
-24.4447
0
LINE
8
BLACK
6
CONTINUOUS
10
173.067
20
-24.4447
11
173.192
21
-24.4289
0
LINE
8
BLACK
6
CONTINUOUS
10
173.192
20
-24.4289
11
173.195
21
-24.4294
0
LINE
8
BLACK
6
CONTINUOUS
10
173.195
20
-24.4294
11
173.205
21
-24.4261
0
LINE
8
BLACK
6
CONTINUOUS
10
173.205
20
-24.4261
11
191.206
21
-24.4261
0
LINE
8
BLACK
6
CONTINUOUS
10
191.206
20
-24.4261
11
191.208
21
-24.4269
0
LINE
8
BLACK
6
CONTINUOUS
10
191.208
20
-24.4269
11
191.3
21
-24.4154
0
LINE
8
BLACK
6
CONTINUOUS
10
191.3
20
-24.4154
11
191.458
21
-24.3349
0
LINE
8
BLACK
6
CONTINUOUS
10
191.458
20
-24.3349
11
191.563
21
-24.2009
0
LINE
8
BLACK
6
CONTINUOUS
10
191.563
20
-24.2009
11
191.606
21
-24.0103
0
LINE
8
BLACK
6
CONTINUOUS
10
191.606
20
-24.0103
11
191.606
21
-22.5271
0
LINE
8
BLACK
6
CONTINUOUS
10
191.606
20
-22.5271
11
191.608
21
-22.5202
0
LINE
8
BLACK
6
CONTINUOUS
10
191.608
20
-22.5202
11
191.607
21
-22.5059
0
LINE
8
BLACK
6
CONTINUOUS
10
191.607
20
-22.5059
11
191.656
21
-22.2892
0
LINE
8
BLACK
6
CONTINUOUS
10
191.656
20
-22.2892
11
191.668
21
-22.2704
0
LINE
8
BLACK
6
CONTINUOUS
10
191.668
20
-22.2704
11
191.675
21
-22.2497
0
LINE
8
BLACK
6
CONTINUOUS
10
191.675
20
-22.2497
11
191.808
21
-22.0807
0
LINE
8
BLACK
6
CONTINUOUS
10
191.808
20
-22.0807
11
191.826
21
-22.0686
0
LINE
8
BLACK
6
CONTINUOUS
10
191.826
20
-22.0686
11
191.841
21
-22.0533
0
LINE
8
BLACK
6
CONTINUOUS
10
191.841
20
-22.0533
11
192.034
21
-21.9549
0
LINE
8
BLACK
6
CONTINUOUS
10
192.034
20
-21.9549
11
192.051
21
-21.9522
0
LINE
8
BLACK
6
CONTINUOUS
10
192.051
20
-21.9522
11
192.067
21
-21.9448
0
LINE
8
BLACK
6
CONTINUOUS
10
192.067
20
-21.9448
11
192.192
21
-21.929
0
LINE
8
BLACK
6
CONTINUOUS
10
192.192
20
-21.929
11
192.197
21
-21.9299
0
LINE
8
BLACK
6
CONTINUOUS
10
192.197
20
-21.9299
11
192.207
21
-21.9267
0
LINE
8
BLACK
6
CONTINUOUS
10
192.207
20
-21.9267
11
203.168
21
-21.9283
0
LINE
8
BLACK
6
CONTINUOUS
10
203.168
20
-21.9283
11
210.198
21
-21.9283
0
LINE
8
BLACK
6
CONTINUOUS
10
210.198
20
-21.9283
11
210.3
21
-21.9155
0
LINE
8
BLACK
6
CONTINUOUS
10
210.3
20
-21.9155
11
210.458
21
-21.8349
0
LINE
8
BLACK
6
CONTINUOUS
10
210.458
20
-21.8349
11
210.563
21
-21.7009
0
LINE
8
BLACK
6
CONTINUOUS
10
210.563
20
-21.7009
11
210.605
21
-21.5135
0
LINE
8
BLACK
6
CONTINUOUS
10
210.605
20
-21.5135
11
210.605
21
-20.2767
0
LINE
8
BLACK
6
CONTINUOUS
10
210.605
20
-20.2767
11
210.608
21
-20.268
0
LINE
8
BLACK
6
CONTINUOUS
10
210.608
20
-20.268
11
210.607
21
-20.256
0
LINE
8
BLACK
6
CONTINUOUS
10
210.607
20
-20.256
11
210.656
21
-20.0393
0
LINE
8
BLACK
6
CONTINUOUS
10
210.656
20
-20.0393
11
210.668
21
-20.0204
0
LINE
8
BLACK
6
CONTINUOUS
10
210.668
20
-20.0204
11
210.675
21
-19.9997
0
LINE
8
BLACK
6
CONTINUOUS
10
210.675
20
-19.9997
11
210.808
21
-19.8306
0
LINE
8
BLACK
6
CONTINUOUS
10
210.808
20
-19.8306
11
210.826
21
-19.8185
0
LINE
8
BLACK
6
CONTINUOUS
10
210.826
20
-19.8185
11
210.841
21
-19.8032
0
LINE
8
BLACK
6
CONTINUOUS
10
210.841
20
-19.8032
11
211.034
21
-19.7048
0
LINE
8
BLACK
6
CONTINUOUS
10
211.034
20
-19.7048
11
211.051
21
-19.702
0
LINE
8
BLACK
6
CONTINUOUS
10
211.051
20
-19.702
11
211.067
21
-19.6946
0
LINE
8
BLACK
6
CONTINUOUS
10
211.067
20
-19.6946
11
211.192
21
-19.6789
0
LINE
8
BLACK
6
CONTINUOUS
10
211.192
20
-19.6789
11
211.196
21
-19.6796
0
LINE
8
BLACK
6
CONTINUOUS
10
211.196
20
-19.6796
11
211.206
21
-19.6763
0
LINE
8
BLACK
6
CONTINUOUS
10
211.206
20
-19.6763
11
228.206
21
-19.6763
0
LINE
8
BLACK
6
CONTINUOUS
10
228.206
20
-19.6763
11
228.221
21
-19.6811
0
LINE
8
BLACK
6
CONTINUOUS
10
228.221
20
-19.6811
11
228.227
21
-19.6806
0
LINE
8
BLACK
6
CONTINUOUS
10
228.227
20
-19.6806
11
228.444
21
-19.7299
0
LINE
8
BLACK
6
CONTINUOUS
10
228.444
20
-19.7299
11
228.463
21
-19.7412
0
LINE
8
BLACK
6
CONTINUOUS
10
228.463
20
-19.7412
11
228.483
21
-19.7488
0
LINE
8
BLACK
6
CONTINUOUS
10
228.483
20
-19.7488
11
228.652
21
-19.8815
0
LINE
8
BLACK
6
CONTINUOUS
10
228.652
20
-19.8815
11
228.664
21
-19.8994
0
LINE
8
BLACK
6
CONTINUOUS
10
228.664
20
-19.8994
11
228.68
21
-19.9147
0
LINE
8
BLACK
6
CONTINUOUS
10
228.68
20
-19.9147
11
228.778
21
-20.1078
0
LINE
8
BLACK
6
CONTINUOUS
10
228.778
20
-20.1078
11
228.781
21
-20.125
0
LINE
8
BLACK
6
CONTINUOUS
10
228.781
20
-20.125
11
228.788
21
-20.1408
0
LINE
8
BLACK
6
CONTINUOUS
10
228.788
20
-20.1408
11
228.804
21
-20.2657
0
LINE
8
BLACK
6
CONTINUOUS
10
228.804
20
-20.2657
11
228.803
21
-20.2677
0
LINE
8
BLACK
6
CONTINUOUS
10
228.803
20
-20.2677
11
228.806
21
-20.2767
0
LINE
8
BLACK
6
CONTINUOUS
10
228.806
20
-20.2767
11
228.806
21
-21.5264
0
LINE
8
BLACK
6
CONTINUOUS
10
228.806
20
-21.5264
11
228.805
21
-21.5291
0
LINE
8
BLACK
6
CONTINUOUS
10
228.805
20
-21.5291
11
228.817
21
-21.6235
0
LINE
8
BLACK
6
CONTINUOUS
10
228.817
20
-21.6235
11
228.898
21
-21.7813
0
LINE
8
BLACK
6
CONTINUOUS
10
228.898
20
-21.7813
11
229.032
21
-21.8865
0
LINE
8
BLACK
6
CONTINUOUS
10
229.032
20
-21.8865
11
229.209
21
-21.9267
0
LINE
8
BLACK
6
CONTINUOUS
10
229.209
20
-21.9267
11
241.078
21
-21.9283
0
LINE
8
BLACK
6
CONTINUOUS
10
241.078
20
-21.9283
11
247.205
21
-21.9283
0
LINE
8
BLACK
6
CONTINUOUS
10
247.205
20
-21.9283
11
247.215
21
-21.9318
0
LINE
8
BLACK
6
CONTINUOUS
10
247.215
20
-21.9318
11
247.227
21
-21.9307
0
LINE
8
BLACK
6
CONTINUOUS
10
247.227
20
-21.9307
11
247.444
21
-21.9801
0
LINE
8
BLACK
6
CONTINUOUS
10
247.444
20
-21.9801
11
247.462
21
-21.9913
0
LINE
8
BLACK
6
CONTINUOUS
10
247.462
20
-21.9913
11
247.483
21
-21.9989
0
LINE
8
BLACK
6
CONTINUOUS
10
247.483
20
-21.9989
11
247.652
21
-22.1315
0
LINE
8
BLACK
6
CONTINUOUS
10
247.652
20
-22.1315
11
247.664
21
-22.1495
0
LINE
8
BLACK
6
CONTINUOUS
10
247.664
20
-22.1495
11
247.679
21
-22.1648
0
LINE
8
BLACK
6
CONTINUOUS
10
247.679
20
-22.1648
11
247.778
21
-22.3578
0
LINE
8
BLACK
6
CONTINUOUS
10
247.778
20
-22.3578
11
247.781
21
-22.375
0
LINE
8
BLACK
6
CONTINUOUS
10
247.781
20
-22.375
11
247.788
21
-22.3907
0
LINE
8
BLACK
6
CONTINUOUS
10
247.788
20
-22.3907
11
247.804
21
-22.5156
0
LINE
8
BLACK
6
CONTINUOUS
10
247.804
20
-22.5156
11
247.803
21
-22.5194
0
LINE
8
BLACK
6
CONTINUOUS
10
247.803
20
-22.5194
11
247.806
21
-22.5271
0
LINE
8
BLACK
6
CONTINUOUS
10
247.806
20
-22.5271
11
247.806
21
-26.2761
0
LINE
8
BLACK
6
CONTINUOUS
10
247.806
20
-26.2761
11
247.805
21
-26.2773
0
LINE
8
BLACK
6
CONTINUOUS
10
247.805
20
-26.2773
11
247.817
21
-26.3735
0
LINE
8
BLACK
6
CONTINUOUS
10
247.817
20
-26.3735
11
247.898
21
-26.5314
0
LINE
8
BLACK
6
CONTINUOUS
10
247.898
20
-26.5314
11
248.032
21
-26.6365
0
LINE
8
BLACK
6
CONTINUOUS
10
248.032
20
-26.6365
11
248.208
21
-26.6765
0
LINE
8
BLACK
6
CONTINUOUS
10
248.208
20
-26.6765
11
285.205
21
-26.6783
0
LINE
8
BLACK
6
CONTINUOUS
10
285.205
20
-26.6783
11
285.215
21
-26.6818
0
LINE
8
BLACK
6
CONTINUOUS
10
285.215
20
-26.6818
11
285.227
21
-26.6808
0
LINE
8
BLACK
6
CONTINUOUS
10
285.227
20
-26.6808
11
285.443
21
-26.73
0
LINE
8
BLACK
6
CONTINUOUS
10
285.443
20
-26.73
11
285.462
21
-26.7413
0
LINE
8
BLACK
6
CONTINUOUS
10
285.462
20
-26.7413
11
285.483
21
-26.7489
0
LINE
8
BLACK
6
CONTINUOUS
10
285.483
20
-26.7489
11
285.652
21
-26.8815
0
LINE
8
BLACK
6
CONTINUOUS
10
285.652
20
-26.8815
11
285.664
21
-26.8994
0
LINE
8
BLACK
6
CONTINUOUS
10
285.664
20
-26.8994
11
285.679
21
-26.9147
0
LINE
8
BLACK
6
CONTINUOUS
10
285.679
20
-26.9147
11
285.778
21
-27.1078
0
LINE
8
BLACK
6
CONTINUOUS
10
285.778
20
-27.1078
11
285.781
21
-27.125
0
LINE
8
BLACK
6
CONTINUOUS
10
285.781
20
-27.125
11
285.788
21
-27.1407
0
LINE
8
BLACK
6
CONTINUOUS
10
285.788
20
-27.1407
11
285.804
21
-27.2656
0
LINE
8
BLACK
6
CONTINUOUS
10
285.804
20
-27.2656
11
285.803
21
-27.272
0
LINE
8
BLACK
6
CONTINUOUS
10
285.803
20
-27.272
11
285.805
21
-27.2782
0
LINE
8
BLACK
6
CONTINUOUS
10
285.805
20
-27.2782
11
285.805
21
-27.2782
0
LINE
8
BLACK
6
CONTINUOUS
10
285.805
20
-27.2782
11
285.806
21
-82.5269
0
LINE
8
BLACK
6
CONTINUOUS
10
285.806
20
-82.5269
11
285.801
21
-82.5423
0
LINE
8
BLACK
6
CONTINUOUS
10
285.801
20
-82.5423
11
285.802
21
-82.5504
0
LINE
8
BLACK
6
CONTINUOUS
10
285.802
20
-82.5504
11
285.753
21
-82.7672
0
LINE
8
BLACK
6
CONTINUOUS
10
285.753
20
-82.7672
11
285.741
21
-82.7861
0
LINE
8
BLACK
6
CONTINUOUS
10
285.741
20
-82.7861
11
285.734
21
-82.8067
0
LINE
8
BLACK
6
CONTINUOUS
10
285.734
20
-82.8067
11
285.601
21
-82.9757
0
LINE
8
BLACK
6
CONTINUOUS
10
285.601
20
-82.9757
11
285.583
21
-82.9878
0
LINE
8
BLACK
6
CONTINUOUS
10
285.583
20
-82.9878
11
285.568
21
-83.0031
0
LINE
8
BLACK
6
CONTINUOUS
10
285.568
20
-83.0031
11
285.375
21
-83.1015
0
LINE
8
BLACK
6
CONTINUOUS
10
285.375
20
-83.1015
11
285.358
21
-83.1042
0
LINE
8
BLACK
6
CONTINUOUS
10
285.358
20
-83.1042
11
285.342
21
-83.1116
0
LINE
8
BLACK
6
CONTINUOUS
10
285.342
20
-83.1116
11
285.217
21
-83.1273
0
LINE
8
BLACK
6
CONTINUOUS
10
285.217
20
-83.1273
11
285.211
21
-83.1261
0
LINE
8
BLACK
6
CONTINUOUS
10
285.211
20
-83.1261
11
285.205
21
-83.1281
0
LINE
8
BLACK
6
CONTINUOUS
10
285.205
20
-83.1281
11
279.077
21
-83.1281
0
LINE
8
BLACK
6
CONTINUOUS
10
279.077
20
-83.1281
11
279.075
21
-83.1273
0
LINE
8
BLACK
6
CONTINUOUS
10
203.167
20
-22.1282
11
203.167
21
-22.1283
0
LINE
8
BLACK
6
CONTINUOUS
10
203.167
20
-22.1283
11
192.219
21
-22.1267
0
LINE
8
BLACK
6
CONTINUOUS
10
192.219
20
-22.1267
11
192.217
21
-22.1275
0
LINE
8
BLACK
6
CONTINUOUS
10
192.217
20
-22.1275
11
192.109
21
-22.141
0
LINE
8
BLACK
6
CONTINUOUS
10
192.109
20
-22.141
11
191.952
21
-22.2215
0
LINE
8
BLACK
6
CONTINUOUS
10
191.952
20
-22.2215
11
191.847
21
-22.3555
0
LINE
8
BLACK
6
CONTINUOUS
10
191.847
20
-22.3555
11
191.806
21
-22.5327
0
LINE
8
BLACK
6
CONTINUOUS
10
191.806
20
-22.5327
11
191.806
21
-24.0257
0
LINE
8
BLACK
6
CONTINUOUS
10
191.806
20
-24.0257
11
191.801
21
-24.0408
0
LINE
8
BLACK
6
CONTINUOUS
10
191.801
20
-24.0408
11
191.802
21
-24.0505
0
LINE
8
BLACK
6
CONTINUOUS
10
191.802
20
-24.0505
11
191.753
21
-24.2672
0
LINE
8
BLACK
6
CONTINUOUS
10
191.753
20
-24.2672
11
191.742
21
-24.2861
0
LINE
8
BLACK
6
CONTINUOUS
10
191.742
20
-24.2861
11
191.734
21
-24.3068
0
LINE
8
BLACK
6
CONTINUOUS
10
191.734
20
-24.3068
11
191.601
21
-24.4758
0
LINE
8
BLACK
6
CONTINUOUS
10
191.601
20
-24.4758
11
191.583
21
-24.4878
0
LINE
8
BLACK
6
CONTINUOUS
10
191.583
20
-24.4878
11
191.568
21
-24.5031
0
LINE
8
BLACK
6
CONTINUOUS
10
191.568
20
-24.5031
11
191.375
21
-24.6015
0
LINE
8
BLACK
6
CONTINUOUS
10
191.375
20
-24.6015
11
191.358
21
-24.6042
0
LINE
8
BLACK
6
CONTINUOUS
10
191.358
20
-24.6042
11
191.342
21
-24.6116
0
LINE
8
BLACK
6
CONTINUOUS
10
191.342
20
-24.6116
11
191.217
21
-24.6273
0
LINE
8
BLACK
6
CONTINUOUS
10
191.217
20
-24.6273
11
191.208
21
-24.6255
0
LINE
8
BLACK
6
CONTINUOUS
10
191.208
20
-24.6255
11
191.206
21
-24.6261
0
LINE
8
BLACK
6
CONTINUOUS
10
191.206
20
-24.6261
11
173.22
21
-24.6261
0
LINE
8
BLACK
6
CONTINUOUS
10
173.22
20
-24.6261
11
173.217
21
-24.6273
0
LINE
8
BLACK
6
CONTINUOUS
10
173.217
20
-24.6273
11
173.109
21
-24.6409
0
LINE
8
BLACK
6
CONTINUOUS
10
173.109
20
-24.6409
11
172.952
21
-24.7214
0
LINE
8
BLACK
6
CONTINUOUS
10
172.952
20
-24.7214
11
172.847
21
-24.8555
0
LINE
8
BLACK
6
CONTINUOUS
10
172.847
20
-24.8555
11
172.807
21
-25.0294
0
LINE
8
BLACK
6
CONTINUOUS
10
172.807
20
-25.0294
11
172.805
21
-26.2784
0
LINE
8
BLACK
6
CONTINUOUS
10
172.805
20
-26.2784
11
172.801
21
-26.2891
0
LINE
8
BLACK
6
CONTINUOUS
10
172.801
20
-26.2891
11
172.802
21
-26.3003
0
LINE
8
BLACK
6
CONTINUOUS
10
172.802
20
-26.3003
11
172.753
21
-26.5171
0
LINE
8
BLACK
6
CONTINUOUS
10
172.753
20
-26.5171
11
172.742
21
-26.536
0
LINE
8
BLACK
6
CONTINUOUS
10
172.742
20
-26.536
11
172.734
21
-26.5567
0
LINE
8
BLACK
6
CONTINUOUS
10
172.734
20
-26.5567
11
172.602
21
-26.7258
0
LINE
8
BLACK
6
CONTINUOUS
10
172.602
20
-26.7258
11
172.584
21
-26.7378
0
LINE
8
BLACK
6
CONTINUOUS
10
172.584
20
-26.7378
11
172.568
21
-26.7531
0
LINE
8
BLACK
6
CONTINUOUS
10
172.568
20
-26.7531
11
172.375
21
-26.8516
0
LINE
8
BLACK
6
CONTINUOUS
10
172.375
20
-26.8516
11
172.358
21
-26.8543
0
LINE
8
BLACK
6
CONTINUOUS
10
172.358
20
-26.8543
11
172.342
21
-26.8617
0
LINE
8
BLACK
6
CONTINUOUS
10
172.342
20
-26.8617
11
172.217
21
-26.8775
0
LINE
8
BLACK
6
CONTINUOUS
10
172.217
20
-26.8775
11
172.211
21
-26.8763
0
LINE
8
BLACK
6
CONTINUOUS
10
172.211
20
-26.8763
11
172.205
21
-26.8783
0
LINE
8
BLACK
6
CONTINUOUS
10
172.205
20
-26.8783
11
172.205
21
-26.8783
0
LINE
8
BLACK
6
CONTINUOUS
10
172.205
20
-26.8783
11
172.205
21
-26.8783
0
LINE
8
BLACK
6
CONTINUOUS
10
172.205
20
-26.8783
11
172.205
21
-26.8783
0
LINE
8
BLACK
6
CONTINUOUS
10
172.205
20
-26.8783
11
152.469
21
-26.8765
0
LINE
8
BLACK
6
CONTINUOUS
10
152.469
20
-26.8765
11
152.467
21
-26.8775
0
LINE
8
BLACK
6
CONTINUOUS
10
152.467
20
-26.8775
11
152.36
21
-26.8911
0
LINE
8
BLACK
6
CONTINUOUS
10
152.36
20
-26.8911
11
152.202
21
-26.9716
0
LINE
8
BLACK
6
CONTINUOUS
10
152.202
20
-26.9716
11
152.097
21
-27.1056
0
LINE
8
BLACK
6
CONTINUOUS
10
152.097
20
-27.1056
11
152.055
21
-27.2871
0
LINE
8
BLACK
6
CONTINUOUS
10
152.055
20
-27.2871
11
152.055
21
-86.7509
0
LINE
8
BLACK
6
CONTINUOUS
10
152.055
20
-86.7509
11
152.055
21
-86.7531
0
LINE
8
BLACK
6
CONTINUOUS
10
152.055
20
-86.7531
11
152.055
21
-86.7537
0
LINE
8
BLACK
6
CONTINUOUS
10
152.055
20
-86.7537
11
152.055
21
-86.7786
0
LINE
8
BLACK
6
CONTINUOUS
10
152.055
20
-86.7786
11
152.07
21
-86.9959
0
LINE
8
BLACK
6
CONTINUOUS
10
152.07
20
-86.9959
11
152.113
21
-87.2054
0
LINE
8
BLACK
6
CONTINUOUS
10
152.113
20
-87.2054
11
152.185
21
-87.4077
0
LINE
8
BLACK
6
CONTINUOUS
10
152.185
20
-87.4077
11
152.271
21
-87.581
0
LINE
8
BLACK
6
CONTINUOUS
10
152.271
20
-87.581
11
152.272
21
-87.5838
0
LINE
8
BLACK
6
CONTINUOUS
10
152.272
20
-87.5838
11
165.492
21
-110.506
0
LINE
8
BLACK
6
CONTINUOUS
10
165.492
20
-110.506
11
165.615
21
-110.662
0
LINE
8
BLACK
6
CONTINUOUS
10
165.615
20
-110.662
11
165.755
21
-110.793
0
LINE
8
BLACK
6
CONTINUOUS
10
165.755
20
-110.793
11
165.91
21
-110.9
0
LINE
8
BLACK
6
CONTINUOUS
10
165.91
20
-110.9
11
166.077
21
-110.981
0
LINE
8
BLACK
6
CONTINUOUS
10
166.077
20
-110.981
11
166.314
21
-111.052
0
LINE
8
BLACK
6
CONTINUOUS
10
166.314
20
-111.052
11
166.561
21
-111.076
0
LINE
8
BLACK
6
CONTINUOUS
10
166.561
20
-111.076
11
166.746
21
-111.062
0
LINE
8
BLACK
6
CONTINUOUS
10
166.746
20
-111.062
11
166.93
21
-111.022
0
LINE
8
BLACK
6
CONTINUOUS
10
166.93
20
-111.022
11
167.108
21
-110.953
0
LINE
8
BLACK
6
CONTINUOUS
10
167.108
20
-110.953
11
167.286
21
-110.852
0
LINE
8
BLACK
6
CONTINUOUS
10
167.286
20
-110.852
11
181.579
21
-102.591
0
LINE
8
BLACK
6
CONTINUOUS
10
181.579
20
-102.591
11
181.592
21
-102.589
0
LINE
8
BLACK
6
CONTINUOUS
10
181.592
20
-102.589
11
181.604
21
-102.581
0
LINE
8
BLACK
6
CONTINUOUS
10
181.604
20
-102.581
11
181.805
21
-102.527
0
LINE
8
BLACK
6
CONTINUOUS
10
181.805
20
-102.527
11
181.808
21
-102.527
0
LINE
8
BLACK
6
CONTINUOUS
10
181.808
20
-102.527
11
181.811
21
-102.526
0
LINE
8
BLACK
6
CONTINUOUS
10
181.811
20
-102.526
11
182.016
21
-102.484
0
LINE
8
BLACK
6
CONTINUOUS
10
182.016
20
-102.484
11
182.019
21
-102.484
0
LINE
8
BLACK
6
CONTINUOUS
10
182.019
20
-102.484
11
182.022
21
-102.483
0
LINE
8
BLACK
6
CONTINUOUS
10
182.022
20
-102.483
11
182.228
21
-102.454
0
LINE
8
BLACK
6
CONTINUOUS
10
182.228
20
-102.454
11
182.23
21
-102.454
0
LINE
8
BLACK
6
CONTINUOUS
10
182.23
20
-102.454
11
182.232
21
-102.453
0
LINE
8
BLACK
6
CONTINUOUS
10
182.232
20
-102.453
11
182.272
21
-102.449
0
LINE
8
BLACK
6
CONTINUOUS
10
182.272
20
-102.449
11
218.939
21
-97.6793
0
LINE
8
BLACK
6
CONTINUOUS
10
218.939
20
-97.6793
11
219.097
21
-97.6499
0
LINE
8
BLACK
6
CONTINUOUS
10
219.097
20
-97.6499
11
219.238
21
-97.558
0
LINE
8
BLACK
6
CONTINUOUS
10
219.238
20
-97.558
11
229.77
21
-83.1157
0
LINE
8
BLACK
6
CONTINUOUS
10
229.77
20
-83.1157
11
229.785
21
-83.105
0
LINE
8
BLACK
6
CONTINUOUS
10
229.785
20
-83.105
11
229.797
21
-83.0908
0
LINE
8
BLACK
6
CONTINUOUS
10
229.797
20
-83.0908
11
229.97
21
-82.9778
0
LINE
8
BLACK
6
CONTINUOUS
10
229.97
20
-82.9778
11
229.989
21
-82.9727
0
LINE
8
BLACK
6
CONTINUOUS
10
229.989
20
-82.9727
11
230.006
21
-82.9633
0
LINE
8
BLACK
6
CONTINUOUS
10
230.006
20
-82.9633
11
230.186
21
-82.9298
0
LINE
8
BLACK
6
CONTINUOUS
10
230.186
20
-82.9298
11
230.196
21
-82.931
0
LINE
8
BLACK
6
CONTINUOUS
10
230.196
20
-82.931
11
230.205
21
-82.9281
0
LINE
8
BLACK
6
CONTINUOUS
10
230.205
20
-82.9281
11
241.177
21
-82.9273
0
LINE
8
BLACK
6
CONTINUOUS
10
241.177
20
-82.9273
11
241.177
21
-82.9273
0
LINE
8
BLACK
6
CONTINUOUS
10
241.177
20
-82.9273
11
241.177
21
-82.9273
0
LINE
8
BLACK
6
CONTINUOUS
10
241.177
20
-82.9273
11
279.121
21
-82.9273
0
LINE
8
BLACK
6
CONTINUOUS
10
279.121
20
-82.9273
11
279.123
21
-82.9281
0
LINE
8
BLACK
6
CONTINUOUS
10
279.123
20
-82.9281
11
285.198
21
-82.9281
0
LINE
8
BLACK
6
CONTINUOUS
10
285.198
20
-82.9281
11
285.3
21
-82.9153
0
LINE
8
BLACK
6
CONTINUOUS
10
285.3
20
-82.9153
11
285.458
21
-82.8349
0
LINE
8
BLACK
6
CONTINUOUS
10
285.458
20
-82.8349
11
285.563
21
-82.7009
0
LINE
8
BLACK
6
CONTINUOUS
10
285.563
20
-82.7009
11
285.606
21
-82.5092
0
LINE
8
BLACK
6
CONTINUOUS
10
285.606
20
-82.5092
11
285.605
21
-27.2845
0
LINE
8
BLACK
6
CONTINUOUS
10
285.605
20
-27.2845
11
285.592
21
-27.1831
0
LINE
8
BLACK
6
CONTINUOUS
10
285.592
20
-27.1831
11
285.511
21
-27.0252
0
LINE
8
BLACK
6
CONTINUOUS
10
285.511
20
-27.0252
11
285.377
21
-26.9201
0
LINE
8
BLACK
6
CONTINUOUS
10
285.377
20
-26.9201
11
285.193
21
-26.8783
0
LINE
8
BLACK
6
CONTINUOUS
10
285.193
20
-26.8783
11
248.206
21
-26.8765
0
LINE
8
BLACK
6
CONTINUOUS
10
248.206
20
-26.8765
11
248.199
21
-26.8743
0
LINE
8
BLACK
6
CONTINUOUS
10
248.199
20
-26.8743
11
248.182
21
-26.8758
0
LINE
8
BLACK
6
CONTINUOUS
10
248.182
20
-26.8758
11
247.966
21
-26.8266
0
LINE
8
BLACK
6
CONTINUOUS
10
247.966
20
-26.8266
11
247.947
21
-26.8153
0
LINE
8
BLACK
6
CONTINUOUS
10
247.947
20
-26.8153
11
247.926
21
-26.8077
0
LINE
8
BLACK
6
CONTINUOUS
10
247.926
20
-26.8077
11
247.757
21
-26.6751
0
LINE
8
BLACK
6
CONTINUOUS
10
247.757
20
-26.6751
11
247.745
21
-26.6572
0
LINE
8
BLACK
6
CONTINUOUS
10
247.745
20
-26.6572
11
247.73
21
-26.6419
0
LINE
8
BLACK
6
CONTINUOUS
10
247.73
20
-26.6419
11
247.631
21
-26.4488
0
LINE
8
BLACK
6
CONTINUOUS
10
247.631
20
-26.4488
11
247.628
21
-26.4316
0
LINE
8
BLACK
6
CONTINUOUS
10
247.628
20
-26.4316
11
247.621
21
-26.4159
0
LINE
8
BLACK
6
CONTINUOUS
10
247.621
20
-26.4159
11
247.605
21
-26.2909
0
LINE
8
BLACK
6
CONTINUOUS
10
247.605
20
-26.2909
11
247.606
21
-26.2846
0
LINE
8
BLACK
6
CONTINUOUS
10
247.606
20
-26.2846
11
247.604
21
-26.2784
0
LINE
8
BLACK
6
CONTINUOUS
10
247.604
20
-26.2784
11
247.604
21
-26.2782
0
LINE
8
BLACK
6
CONTINUOUS
10
247.604
20
-26.2782
11
247.606
21
-26.2751
0
LINE
8
BLACK
6
CONTINUOUS
10
247.606
20
-26.2751
11
247.606
21
-22.5411
0
LINE
8
BLACK
6
CONTINUOUS
10
247.606
20
-22.5411
11
247.605
21
-22.5406
0
LINE
8
BLACK
6
CONTINUOUS
10
247.605
20
-22.5406
11
247.592
21
-22.4331
0
LINE
8
BLACK
6
CONTINUOUS
10
247.592
20
-22.4331
11
247.511
21
-22.2753
0
LINE
8
BLACK
6
CONTINUOUS
10
247.511
20
-22.2753
11
247.377
21
-22.1701
0
LINE
8
BLACK
6
CONTINUOUS
10
247.377
20
-22.1701
11
247.193
21
-22.1283
0
LINE
8
BLACK
6
CONTINUOUS
10
247.193
20
-22.1283
11
241.077
21
-22.1283
0
LINE
8
BLACK
6
CONTINUOUS
10
241.077
20
-22.1283
11
241.077
21
-22.1282
0
LINE
8
BLACK
6
CONTINUOUS
10
241.077
20
-22.1282
11
241.077
21
-22.1283
0
LINE
8
BLACK
6
CONTINUOUS
10
241.077
20
-22.1283
11
229.207
21
-22.1267
0
LINE
8
BLACK
6
CONTINUOUS
10
229.207
20
-22.1267
11
229.199
21
-22.1243
0
LINE
8
BLACK
6
CONTINUOUS
10
229.199
20
-22.1243
11
229.183
21
-22.1258
0
LINE
8
BLACK
6
CONTINUOUS
10
229.183
20
-22.1258
11
228.966
21
-22.0765
0
LINE
8
BLACK
6
CONTINUOUS
10
228.966
20
-22.0765
11
228.947
21
-22.0653
0
LINE
8
BLACK
6
CONTINUOUS
10
228.947
20
-22.0653
11
228.926
21
-22.0577
0
LINE
8
BLACK
6
CONTINUOUS
10
228.926
20
-22.0577
11
228.757
21
-21.9251
0
LINE
8
BLACK
6
CONTINUOUS
10
228.757
20
-21.9251
11
228.745
21
-21.9071
0
LINE
8
BLACK
6
CONTINUOUS
10
228.745
20
-21.9071
11
228.73
21
-21.8918
0
LINE
8
BLACK
6
CONTINUOUS
10
228.73
20
-21.8918
11
228.631
21
-21.6988
0
LINE
8
BLACK
6
CONTINUOUS
10
228.631
20
-21.6988
11
228.629
21
-21.6816
0
LINE
8
BLACK
6
CONTINUOUS
10
228.629
20
-21.6816
11
228.621
21
-21.6659
0
LINE
8
BLACK
6
CONTINUOUS
10
228.621
20
-21.6659
11
228.605
21
-21.5409
0
LINE
8
BLACK
6
CONTINUOUS
10
228.605
20
-21.5409
11
228.607
21
-21.5345
0
LINE
8
BLACK
6
CONTINUOUS
10
228.607
20
-21.5345
11
228.605
21
-21.5284
0
LINE
8
BLACK
6
CONTINUOUS
10
228.605
20
-21.5284
11
228.605
21
-21.5281
0
LINE
8
BLACK
6
CONTINUOUS
10
228.605
20
-21.5281
11
228.606
21
-21.5227
0
LINE
8
BLACK
6
CONTINUOUS
10
228.606
20
-21.5227
11
228.606
21
-20.2928
0
LINE
8
BLACK
6
CONTINUOUS
10
228.606
20
-20.2928
11
228.605
21
-20.2907
0
LINE
8
BLACK
6
CONTINUOUS
10
228.605
20
-20.2907
11
228.592
21
-20.183
0
LINE
8
BLACK
6
CONTINUOUS
10
228.592
20
-20.183
11
228.511
21
-20.0252
0
LINE
8
BLACK
6
CONTINUOUS
10
228.511
20
-20.0252
11
228.377
21
-19.9199
0
LINE
8
BLACK
6
CONTINUOUS
10
228.377
20
-19.9199
11
228.186
21
-19.8763
0
LINE
8
BLACK
6
CONTINUOUS
10
228.186
20
-19.8763
11
211.219
21
-19.8763
0
LINE
8
BLACK
6
CONTINUOUS
10
211.219
20
-19.8763
11
211.217
21
-19.8773
0
LINE
8
BLACK
6
CONTINUOUS
10
211.217
20
-19.8773
11
211.109
21
-19.8909
0
LINE
8
BLACK
6
CONTINUOUS
10
211.109
20
-19.8909
11
210.952
21
-19.9714
0
LINE
8
BLACK
6
CONTINUOUS
10
210.952
20
-19.9714
11
210.846
21
-20.1055
0
LINE
8
BLACK
6
CONTINUOUS
10
210.846
20
-20.1055
11
210.805
21
-20.286
0
LINE
8
BLACK
6
CONTINUOUS
10
210.805
20
-20.286
11
210.805
21
-21.5264
0
LINE
8
BLACK
6
CONTINUOUS
10
210.805
20
-21.5264
11
210.801
21
-21.5394
0
LINE
8
BLACK
6
CONTINUOUS
10
210.801
20
-21.5394
11
210.802
21
-21.5503
0
LINE
8
BLACK
6
CONTINUOUS
10
210.802
20
-21.5503
11
210.753
21
-21.7671
0
LINE
8
BLACK
6
CONTINUOUS
10
210.753
20
-21.7671
11
210.742
21
-21.786
0
LINE
8
BLACK
6
CONTINUOUS
10
210.742
20
-21.786
11
210.734
21
-21.8066
0
LINE
8
BLACK
6
CONTINUOUS
10
210.734
20
-21.8066
11
210.601
21
-21.9757
0
LINE
8
BLACK
6
CONTINUOUS
10
210.601
20
-21.9757
11
210.583
21
-21.9878
0
LINE
8
BLACK
6
CONTINUOUS
10
210.583
20
-21.9878
11
210.568
21
-22.0031
0
LINE
8
BLACK
6
CONTINUOUS
10
210.568
20
-22.0031
11
210.375
21
-22.1016
0
LINE
8
BLACK
6
CONTINUOUS
10
210.375
20
-22.1016
11
210.358
21
-22.1043
0
LINE
8
BLACK
6
CONTINUOUS
10
210.358
20
-22.1043
11
210.342
21
-22.1117
0
LINE
8
BLACK
6
CONTINUOUS
10
210.342
20
-22.1117
11
210.217
21
-22.1275
0
LINE
8
BLACK
6
CONTINUOUS
10
210.217
20
-22.1275
11
210.211
21
-22.1262
0
LINE
8
BLACK
6
CONTINUOUS
10
210.211
20
-22.1262
11
210.205
21
-22.1283
0
LINE
8
BLACK
6
CONTINUOUS
10
210.205
20
-22.1283
11
203.167
21
-22.1283
0
LINE
8
BLACK
6
CONTINUOUS
10
203.167
20
-22.1283
11
203.167
21
-22.1282
0
LINE
8
BLACK
6
CONTINUOUS
10
169.479
20
-85.5578
11
176.479
21
-97.6822
0
LINE
8
BLACK
6
CONTINUOUS
10
176.479
20
-97.6822
11
176.485
21
-97.7277
0
LINE
8
BLACK
6
CONTINUOUS
10
176.485
20
-97.7277
11
176.457
21
-97.7641
0
LINE
8
BLACK
6
CONTINUOUS
10
176.457
20
-97.7641
11
164.332
21
-104.764
0
LINE
8
BLACK
6
CONTINUOUS
10
164.332
20
-104.764
11
164.287
21
-104.77
0
LINE
8
BLACK
6
CONTINUOUS
10
164.287
20
-104.77
11
164.25
21
-104.742
0
LINE
8
BLACK
6
CONTINUOUS
10
164.25
20
-104.742
11
157.25
21
-92.6178
0
LINE
8
BLACK
6
CONTINUOUS
10
157.25
20
-92.6178
11
157.244
21
-92.5723
0
LINE
8
BLACK
6
CONTINUOUS
10
157.244
20
-92.5723
11
157.272
21
-92.5359
0
LINE
8
BLACK
6
CONTINUOUS
10
157.272
20
-92.5359
11
169.397
21
-85.5359
0
LINE
8
BLACK
6
CONTINUOUS
10
169.397
20
-85.5359
11
169.397
21
-85.5359
0
LINE
8
BLACK
6
CONTINUOUS
10
169.397
20
-85.5359
11
169.442
21
-85.5299
0
LINE
8
BLACK
6
CONTINUOUS
10
169.442
20
-85.5299
11
169.479
21
-85.5578
0
LINE
8
BLACK
6
CONTINUOUS
10
157.384
20
-92.6098
11
164.324
21
-104.63
0
LINE
8
BLACK
6
CONTINUOUS
10
164.324
20
-104.63
11
176.345
21
-97.6902
0
LINE
8
BLACK
6
CONTINUOUS
10
176.345
20
-97.6902
11
169.405
21
-85.6698
0
LINE
8
BLACK
6
CONTINUOUS
10
169.405
20
-85.6698
11
157.384
21
-92.6098
0
LINE
8
BLACK
6
CONTINUOUS
10
163.245
20
-95.1612
11
165.045
21
-98.2788
0
LINE
8
BLACK
6
CONTINUOUS
10
165.045
20
-98.2788
11
165.051
21
-98.3244
0
LINE
8
BLACK
6
CONTINUOUS
10
165.051
20
-98.3244
11
165.023
21
-98.3608
0
LINE
8
BLACK
6
CONTINUOUS
10
165.023
20
-98.3608
11
162.339
21
-99.9108
0
LINE
8
BLACK
6
CONTINUOUS
10
162.339
20
-99.9108
11
162.293
21
-99.9168
0
LINE
8
BLACK
6
CONTINUOUS
10
162.293
20
-99.9168
11
162.257
21
-99.8888
0
LINE
8
BLACK
6
CONTINUOUS
10
162.257
20
-99.8888
11
160.457
21
-96.7712
0
LINE
8
BLACK
6
CONTINUOUS
10
160.457
20
-96.7712
11
160.451
21
-96.7256
0
LINE
8
BLACK
6
CONTINUOUS
10
160.451
20
-96.7256
11
160.479
21
-96.6892
0
LINE
8
BLACK
6
CONTINUOUS
10
160.479
20
-96.6892
11
163.163
21
-95.1392
0
LINE
8
BLACK
6
CONTINUOUS
10
163.163
20
-95.1392
11
163.163
21
-95.1392
0
LINE
8
BLACK
6
CONTINUOUS
10
163.163
20
-95.1392
11
163.209
21
-95.1332
0
LINE
8
BLACK
6
CONTINUOUS
10
163.209
20
-95.1332
11
163.245
21
-95.1612
0
LINE
8
BLACK
6
CONTINUOUS
10
160.591
20
-96.7631
11
162.331
21
-99.7769
0
LINE
8
BLACK
6
CONTINUOUS
10
162.331
20
-99.7769
11
164.911
21
-98.2869
0
LINE
8
BLACK
6
CONTINUOUS
10
164.911
20
-98.2869
11
163.171
21
-95.2731
0
LINE
8
BLACK
6
CONTINUOUS
10
163.171
20
-95.2731
11
160.591
21
-96.7631
0
LINE
8
BLACK
6
CONTINUOUS
10
194.094
20
-82.7748
11
194.122
21
-82.8113
0
LINE
8
BLACK
6
CONTINUOUS
10
194.122
20
-82.8113
11
197.746
21
-96.3342
0
LINE
8
BLACK
6
CONTINUOUS
10
197.746
20
-96.3342
11
197.74
21
-96.3797
0
LINE
8
BLACK
6
CONTINUOUS
10
197.74
20
-96.3797
11
197.703
21
-96.4077
0
LINE
8
BLACK
6
CONTINUOUS
10
197.703
20
-96.4077
11
197.703
21
-96.4077
0
LINE
8
BLACK
6
CONTINUOUS
10
197.703
20
-96.4077
11
184.18
21
-100.031
0
LINE
8
BLACK
6
CONTINUOUS
10
184.18
20
-100.031
11
184.135
21
-100.025
0
LINE
8
BLACK
6
CONTINUOUS
10
184.135
20
-100.025
11
184.107
21
-99.9887
0
LINE
8
BLACK
6
CONTINUOUS
10
184.107
20
-99.9887
11
184.107
21
-99.9887
0
LINE
8
BLACK
6
CONTINUOUS
10
184.107
20
-99.9887
11
184.107
21
-99.9887
0
LINE
8
BLACK
6
CONTINUOUS
10
184.107
20
-99.9887
11
180.483
21
-86.4658
0
LINE
8
BLACK
6
CONTINUOUS
10
180.483
20
-86.4658
11
180.489
21
-86.4203
0
LINE
8
BLACK
6
CONTINUOUS
10
180.489
20
-86.4203
11
180.526
21
-86.3923
0
LINE
8
BLACK
6
CONTINUOUS
10
180.526
20
-86.3923
11
194.049
21
-82.7688
0
LINE
8
BLACK
6
CONTINUOUS
10
194.049
20
-82.7688
11
194.094
21
-82.7748
0
LINE
8
BLACK
6
CONTINUOUS
10
180.615
20
-86.4927
11
184.207
21
-99.8997
0
LINE
8
BLACK
6
CONTINUOUS
10
184.207
20
-99.8997
11
197.614
21
-96.3073
0
LINE
8
BLACK
6
CONTINUOUS
10
197.614
20
-96.3073
11
194.022
21
-82.9003
0
LINE
8
BLACK
6
CONTINUOUS
10
194.022
20
-82.9003
11
180.615
21
-86.4927
0
LINE
8
BLACK
6
CONTINUOUS
10
191.711
20
-93.9731
11
191.739
21
-94.0096
0
LINE
8
BLACK
6
CONTINUOUS
10
191.739
20
-94.0096
11
192.542
21
-97.0039
0
LINE
8
BLACK
6
CONTINUOUS
10
192.542
20
-97.0039
11
192.536
21
-97.0495
0
LINE
8
BLACK
6
CONTINUOUS
10
192.536
20
-97.0495
11
192.499
21
-97.0774
0
LINE
8
BLACK
6
CONTINUOUS
10
192.499
20
-97.0774
11
189.022
21
-98.0092
0
LINE
8
BLACK
6
CONTINUOUS
10
189.022
20
-98.0092
11
188.976
21
-98.0032
0
LINE
8
BLACK
6
CONTINUOUS
10
188.976
20
-98.0032
11
188.948
21
-97.9667
0
LINE
8
BLACK
6
CONTINUOUS
10
188.948
20
-97.9667
11
188.146
21
-94.9724
0
LINE
8
BLACK
6
CONTINUOUS
10
188.146
20
-94.9724
11
188.152
21
-94.9268
0
LINE
8
BLACK
6
CONTINUOUS
10
188.152
20
-94.9268
11
188.189
21
-94.8989
0
LINE
8
BLACK
6
CONTINUOUS
10
188.189
20
-94.8989
11
191.666
21
-93.9671
0
LINE
8
BLACK
6
CONTINUOUS
10
191.666
20
-93.9671
11
191.711
21
-93.9731
0
LINE
8
BLACK
6
CONTINUOUS
10
188.278
20
-94.9993
11
189.049
21
-97.8777
0
LINE
8
BLACK
6
CONTINUOUS
10
189.049
20
-97.8777
11
192.41
21
-96.977
0
LINE
8
BLACK
6
CONTINUOUS
10
192.41
20
-96.977
11
191.639
21
-94.0986
0
LINE
8
BLACK
6
CONTINUOUS
10
191.639
20
-94.0986
11
188.278
21
-94.9993
0
LINE
8
BLACK
6
CONTINUOUS
10
203.072
20
-95.6924
11
203.054
21
-95.65
0
LINE
8
BLACK
6
CONTINUOUS
10
203.054
20
-95.65
11
203.054
21
-81.65
0
LINE
8
BLACK
6
CONTINUOUS
10
203.054
20
-81.65
11
203.072
21
-81.6076
0
LINE
8
BLACK
6
CONTINUOUS
10
203.072
20
-81.6076
11
203.114
21
-81.59
0
LINE
8
BLACK
6
CONTINUOUS
10
203.114
20
-81.59
11
217.114
21
-81.59
0
LINE
8
BLACK
6
CONTINUOUS
10
217.114
20
-81.59
11
217.157
21
-81.6076
0
LINE
8
BLACK
6
CONTINUOUS
10
217.157
20
-81.6076
11
217.174
21
-81.65
0
LINE
8
BLACK
6
CONTINUOUS
10
217.174
20
-81.65
11
217.174
21
-95.65
0
LINE
8
BLACK
6
CONTINUOUS
10
217.174
20
-95.65
11
217.157
21
-95.6924
0
LINE
8
BLACK
6
CONTINUOUS
10
217.157
20
-95.6924
11
217.114
21
-95.71
0
LINE
8
BLACK
6
CONTINUOUS
10
217.114
20
-95.71
11
203.114
21
-95.71
0
LINE
8
BLACK
6
CONTINUOUS
10
203.114
20
-95.71
11
203.072
21
-95.6924
0
LINE
8
BLACK
6
CONTINUOUS
10
203.174
20
-81.71
11
203.174
21
-95.59
0
LINE
8
BLACK
6
CONTINUOUS
10
203.174
20
-95.59
11
217.054
21
-95.59
0
LINE
8
BLACK
6
CONTINUOUS
10
217.054
20
-95.59
11
217.054
21
-81.71
0
LINE
8
BLACK
6
CONTINUOUS
10
217.054
20
-81.71
11
203.174
21
-81.71
0
LINE
8
BLACK
6
CONTINUOUS
10
208.265
20
-94.9974
11
208.248
21
-94.955
0
LINE
8
BLACK
6
CONTINUOUS
10
208.248
20
-94.955
11
208.248
21
-91.855
0
LINE
8
BLACK
6
CONTINUOUS
10
208.248
20
-91.855
11
208.265
21
-91.8126
0
LINE
8
BLACK
6
CONTINUOUS
10
208.265
20
-91.8126
11
208.308
21
-91.795
0
LINE
8
BLACK
6
CONTINUOUS
10
208.308
20
-91.795
11
211.907
21
-91.795
0
LINE
8
BLACK
6
CONTINUOUS
10
211.907
20
-91.795
11
211.95
21
-91.8126
0
LINE
8
BLACK
6
CONTINUOUS
10
211.95
20
-91.8126
11
211.968
21
-91.855
0
LINE
8
BLACK
6
CONTINUOUS
10
211.968
20
-91.855
11
211.968
21
-94.955
0
LINE
8
BLACK
6
CONTINUOUS
10
211.968
20
-94.955
11
211.95
21
-94.9974
0
LINE
8
BLACK
6
CONTINUOUS
10
211.95
20
-94.9974
11
211.907
21
-95.015
0
LINE
8
BLACK
6
CONTINUOUS
10
211.907
20
-95.015
11
208.308
21
-95.015
0
LINE
8
BLACK
6
CONTINUOUS
10
208.308
20
-95.015
11
208.265
21
-94.9974
0
LINE
8
BLACK
6
CONTINUOUS
10
208.367
20
-91.915
11
208.367
21
-94.895
0
LINE
8
BLACK
6
CONTINUOUS
10
208.367
20
-94.895
11
211.847
21
-94.895
0
LINE
8
BLACK
6
CONTINUOUS
10
211.847
20
-94.895
11
211.847
21
-91.915
0
LINE
8
BLACK
6
CONTINUOUS
10
211.847
20
-91.915
11
208.367
21
-91.915
0
LINE
8
BLACK
6
CONTINUOUS
10
250.572
20
-80.8174
11
250.554
21
-80.775
0
LINE
8
BLACK
6
CONTINUOUS
10
250.554
20
-80.775
11
250.554
21
-66.775
0
LINE
8
BLACK
6
CONTINUOUS
10
250.554
20
-66.775
11
250.572
21
-66.7326
0
LINE
8
BLACK
6
CONTINUOUS
10
250.572
20
-66.7326
11
250.614
21
-66.715
0
LINE
8
BLACK
6
CONTINUOUS
10
250.614
20
-66.715
11
264.614
21
-66.715
0
LINE
8
BLACK
6
CONTINUOUS
10
264.614
20
-66.715
11
264.657
21
-66.7326
0
LINE
8
BLACK
6
CONTINUOUS
10
264.657
20
-66.7326
11
264.674
21
-66.775
0
LINE
8
BLACK
6
CONTINUOUS
10
264.674
20
-66.775
11
264.674
21
-80.775
0
LINE
8
BLACK
6
CONTINUOUS
10
264.674
20
-80.775
11
264.657
21
-80.8174
0
LINE
8
BLACK
6
CONTINUOUS
10
264.657
20
-80.8174
11
264.614
21
-80.835
0
LINE
8
BLACK
6
CONTINUOUS
10
264.614
20
-80.835
11
250.614
21
-80.835
0
LINE
8
BLACK
6
CONTINUOUS
10
250.614
20
-80.835
11
250.572
21
-80.8174
0
LINE
8
BLACK
6
CONTINUOUS
10
250.674
20
-66.835
11
250.674
21
-80.715
0
LINE
8
BLACK
6
CONTINUOUS
10
250.674
20
-80.715
11
264.554
21
-80.715
0
LINE
8
BLACK
6
CONTINUOUS
10
264.554
20
-80.715
11
264.554
21
-66.835
0
LINE
8
BLACK
6
CONTINUOUS
10
264.554
20
-66.835
11
250.674
21
-66.835
0
LINE
8
BLACK
6
CONTINUOUS
10
255.765
20
-80.1224
11
255.748
21
-80.08
0
LINE
8
BLACK
6
CONTINUOUS
10
255.748
20
-80.08
11
255.748
21
-76.98
0
LINE
8
BLACK
6
CONTINUOUS
10
255.748
20
-76.98
11
255.765
21
-76.9376
0
LINE
8
BLACK
6
CONTINUOUS
10
255.765
20
-76.9376
11
255.807
21
-76.92
0
LINE
8
BLACK
6
CONTINUOUS
10
255.807
20
-76.92
11
259.407
21
-76.92
0
LINE
8
BLACK
6
CONTINUOUS
10
259.407
20
-76.92
11
259.45
21
-76.9376
0
LINE
8
BLACK
6
CONTINUOUS
10
259.45
20
-76.9376
11
259.467
21
-76.98
0
LINE
8
BLACK
6
CONTINUOUS
10
259.467
20
-76.98
11
259.467
21
-80.08
0
LINE
8
BLACK
6
CONTINUOUS
10
259.467
20
-80.08
11
259.45
21
-80.1224
0
LINE
8
BLACK
6
CONTINUOUS
10
259.45
20
-80.1224
11
259.407
21
-80.14
0
LINE
8
BLACK
6
CONTINUOUS
10
259.407
20
-80.14
11
255.807
21
-80.14
0
LINE
8
BLACK
6
CONTINUOUS
10
255.807
20
-80.14
11
255.765
21
-80.1224
0
LINE
8
BLACK
6
CONTINUOUS
10
255.867
20
-77.04
11
255.867
21
-80.02
0
LINE
8
BLACK
6
CONTINUOUS
10
255.867
20
-80.02
11
259.347
21
-80.02
0
LINE
8
BLACK
6
CONTINUOUS
10
259.347
20
-80.02
11
259.347
21
-77.04
0
LINE
8
BLACK
6
CONTINUOUS
10
259.347
20
-77.04
11
255.867
21
-77.04
0
LINE
8
BLACK
6
CONTINUOUS
10
269.572
20
-80.8174
11
269.554
21
-80.775
0
LINE
8
BLACK
6
CONTINUOUS
10
269.554
20
-80.775
11
269.554
21
-66.775
0
LINE
8
BLACK
6
CONTINUOUS
10
269.554
20
-66.775
11
269.572
21
-66.7326
0
LINE
8
BLACK
6
CONTINUOUS
10
269.572
20
-66.7326
11
269.614
21
-66.715
0
LINE
8
BLACK
6
CONTINUOUS
10
269.614
20
-66.715
11
283.614
21
-66.715
0
LINE
8
BLACK
6
CONTINUOUS
10
283.614
20
-66.715
11
283.657
21
-66.7326
0
LINE
8
BLACK
6
CONTINUOUS
10
283.657
20
-66.7326
11
283.674
21
-66.775
0
LINE
8
BLACK
6
CONTINUOUS
10
283.674
20
-66.775
11
283.674
21
-80.775
0
LINE
8
BLACK
6
CONTINUOUS
10
283.674
20
-80.775
11
283.657
21
-80.8174
0
LINE
8
BLACK
6
CONTINUOUS
10
283.657
20
-80.8174
11
283.614
21
-80.835
0
LINE
8
BLACK
6
CONTINUOUS
10
283.614
20
-80.835
11
269.614
21
-80.835
0
LINE
8
BLACK
6
CONTINUOUS
10
269.614
20
-80.835
11
269.572
21
-80.8174
0
LINE
8
BLACK
6
CONTINUOUS
10
269.674
20
-66.835
11
269.674
21
-80.715
0
LINE
8
BLACK
6
CONTINUOUS
10
269.674
20
-80.715
11
283.554
21
-80.715
0
LINE
8
BLACK
6
CONTINUOUS
10
283.554
20
-80.715
11
283.554
21
-66.835
0
LINE
8
BLACK
6
CONTINUOUS
10
283.554
20
-66.835
11
269.674
21
-66.835
0
LINE
8
BLACK
6
CONTINUOUS
10
274.765
20
-80.1224
11
274.748
21
-80.08
0
LINE
8
BLACK
6
CONTINUOUS
10
274.748
20
-80.08
11
274.748
21
-76.98
0
LINE
8
BLACK
6
CONTINUOUS
10
274.748
20
-76.98
11
274.765
21
-76.9376
0
LINE
8
BLACK
6
CONTINUOUS
10
274.765
20
-76.9376
11
274.808
21
-76.92
0
LINE
8
BLACK
6
CONTINUOUS
10
274.808
20
-76.92
11
278.407
21
-76.92
0
LINE
8
BLACK
6
CONTINUOUS
10
278.407
20
-76.92
11
278.45
21
-76.9376
0
LINE
8
BLACK
6
CONTINUOUS
10
278.45
20
-76.9376
11
278.467
21
-76.98
0
LINE
8
BLACK
6
CONTINUOUS
10
278.467
20
-76.98
11
278.467
21
-80.08
0
LINE
8
BLACK
6
CONTINUOUS
10
278.467
20
-80.08
11
278.45
21
-80.1224
0
LINE
8
BLACK
6
CONTINUOUS
10
278.45
20
-80.1224
11
278.407
21
-80.14
0
LINE
8
BLACK
6
CONTINUOUS
10
278.407
20
-80.14
11
274.808
21
-80.14
0
LINE
8
BLACK
6
CONTINUOUS
10
274.808
20
-80.14
11
274.765
21
-80.1224
0
LINE
8
BLACK
6
CONTINUOUS
10
274.868
20
-77.04
11
274.868
21
-80.02
0
LINE
8
BLACK
6
CONTINUOUS
10
274.868
20
-80.02
11
278.347
21
-80.02
0
LINE
8
BLACK
6
CONTINUOUS
10
278.347
20
-80.02
11
278.347
21
-77.04
0
LINE
8
BLACK
6
CONTINUOUS
10
278.347
20
-77.04
11
274.868
21
-77.04
0
LINE
8
BLACK
6
CONTINUOUS
10
174.572
20
-78.4424
11
174.554
21
-78.4
0
LINE
8
BLACK
6
CONTINUOUS
10
174.554
20
-78.4
11
174.554
21
-64.4
0
LINE
8
BLACK
6
CONTINUOUS
10
174.554
20
-64.4
11
174.572
21
-64.3576
0
LINE
8
BLACK
6
CONTINUOUS
10
174.572
20
-64.3576
11
174.614
21
-64.34
0
LINE
8
BLACK
6
CONTINUOUS
10
174.614
20
-64.34
11
188.614
21
-64.34
0
LINE
8
BLACK
6
CONTINUOUS
10
188.614
20
-64.34
11
188.657
21
-64.3576
0
LINE
8
BLACK
6
CONTINUOUS
10
188.657
20
-64.3576
11
188.674
21
-64.4
0
LINE
8
BLACK
6
CONTINUOUS
10
188.674
20
-64.4
11
188.674
21
-78.4
0
LINE
8
BLACK
6
CONTINUOUS
10
188.674
20
-78.4
11
188.657
21
-78.4424
0
LINE
8
BLACK
6
CONTINUOUS
10
188.657
20
-78.4424
11
188.614
21
-78.46
0
LINE
8
BLACK
6
CONTINUOUS
10
188.614
20
-78.46
11
174.614
21
-78.46
0
LINE
8
BLACK
6
CONTINUOUS
10
174.614
20
-78.46
11
174.572
21
-78.4424
0
LINE
8
BLACK
6
CONTINUOUS
10
174.674
20
-64.46
11
174.674
21
-78.34
0
LINE
8
BLACK
6
CONTINUOUS
10
174.674
20
-78.34
11
188.554
21
-78.34
0
LINE
8
BLACK
6
CONTINUOUS
10
188.554
20
-78.34
11
188.554
21
-64.46
0
LINE
8
BLACK
6
CONTINUOUS
10
188.554
20
-64.46
11
174.674
21
-64.46
0
LINE
8
BLACK
6
CONTINUOUS
10
179.765
20
-77.7474
11
179.748
21
-77.705
0
LINE
8
BLACK
6
CONTINUOUS
10
179.748
20
-77.705
11
179.748
21
-74.605
0
LINE
8
BLACK
6
CONTINUOUS
10
179.748
20
-74.605
11
179.765
21
-74.5626
0
LINE
8
BLACK
6
CONTINUOUS
10
179.765
20
-74.5626
11
179.808
21
-74.545
0
LINE
8
BLACK
6
CONTINUOUS
10
179.808
20
-74.545
11
183.407
21
-74.545
0
LINE
8
BLACK
6
CONTINUOUS
10
183.407
20
-74.545
11
183.45
21
-74.5626
0
LINE
8
BLACK
6
CONTINUOUS
10
183.45
20
-74.5626
11
183.468
21
-74.605
0
LINE
8
BLACK
6
CONTINUOUS
10
183.468
20
-74.605
11
183.468
21
-77.705
0
LINE
8
BLACK
6
CONTINUOUS
10
183.468
20
-77.705
11
183.45
21
-77.7474
0
LINE
8
BLACK
6
CONTINUOUS
10
183.45
20
-77.7474
11
183.407
21
-77.765
0
LINE
8
BLACK
6
CONTINUOUS
10
183.407
20
-77.765
11
179.808
21
-77.765
0
LINE
8
BLACK
6
CONTINUOUS
10
179.808
20
-77.765
11
179.765
21
-77.7474
0
LINE
8
BLACK
6
CONTINUOUS
10
179.867
20
-74.665
11
179.867
21
-77.645
0
LINE
8
BLACK
6
CONTINUOUS
10
179.867
20
-77.645
11
183.347
21
-77.645
0
LINE
8
BLACK
6
CONTINUOUS
10
183.347
20
-77.645
11
183.347
21
-74.665
0
LINE
8
BLACK
6
CONTINUOUS
10
183.347
20
-74.665
11
179.867
21
-74.665
0
LINE
8
BLACK
6
CONTINUOUS
10
193.572
20
-76.0674
11
193.554
21
-76.025
0
LINE
8
BLACK
6
CONTINUOUS
10
193.554
20
-76.025
11
193.554
21
-62.025
0
LINE
8
BLACK
6
CONTINUOUS
10
193.554
20
-62.025
11
193.572
21
-61.9826
0
LINE
8
BLACK
6
CONTINUOUS
10
193.572
20
-61.9826
11
193.614
21
-61.965
0
LINE
8
BLACK
6
CONTINUOUS
10
193.614
20
-61.965
11
207.614
21
-61.965
0
LINE
8
BLACK
6
CONTINUOUS
10
207.614
20
-61.965
11
207.657
21
-61.9826
0
LINE
8
BLACK
6
CONTINUOUS
10
207.657
20
-61.9826
11
207.674
21
-62.025
0
LINE
8
BLACK
6
CONTINUOUS
10
207.674
20
-62.025
11
207.674
21
-76.025
0
LINE
8
BLACK
6
CONTINUOUS
10
207.674
20
-76.025
11
207.657
21
-76.0674
0
LINE
8
BLACK
6
CONTINUOUS
10
207.657
20
-76.0674
11
207.614
21
-76.085
0
LINE
8
BLACK
6
CONTINUOUS
10
207.614
20
-76.085
11
193.614
21
-76.085
0
LINE
8
BLACK
6
CONTINUOUS
10
193.614
20
-76.085
11
193.572
21
-76.0674
0
LINE
8
BLACK
6
CONTINUOUS
10
193.674
20
-62.085
11
193.674
21
-75.965
0
LINE
8
BLACK
6
CONTINUOUS
10
193.674
20
-75.965
11
207.554
21
-75.965
0
LINE
8
BLACK
6
CONTINUOUS
10
207.554
20
-75.965
11
207.554
21
-62.085
0
LINE
8
BLACK
6
CONTINUOUS
10
207.554
20
-62.085
11
193.674
21
-62.085
0
LINE
8
BLACK
6
CONTINUOUS
10
198.765
20
-75.3724
11
198.748
21
-75.33
0
LINE
8
BLACK
6
CONTINUOUS
10
198.748
20
-75.33
11
198.748
21
-72.23
0
LINE
8
BLACK
6
CONTINUOUS
10
198.748
20
-72.23
11
198.765
21
-72.1876
0
LINE
8
BLACK
6
CONTINUOUS
10
198.765
20
-72.1876
11
198.808
21
-72.17
0
LINE
8
BLACK
6
CONTINUOUS
10
198.808
20
-72.17
11
202.407
21
-72.17
0
LINE
8
BLACK
6
CONTINUOUS
10
202.407
20
-72.17
11
202.45
21
-72.1876
0
LINE
8
BLACK
6
CONTINUOUS
10
202.45
20
-72.1876
11
202.468
21
-72.23
0
LINE
8
BLACK
6
CONTINUOUS
10
202.468
20
-72.23
11
202.468
21
-75.33
0
LINE
8
BLACK
6
CONTINUOUS
10
202.468
20
-75.33
11
202.45
21
-75.3724
0
LINE
8
BLACK
6
CONTINUOUS
10
202.45
20
-75.3724
11
202.407
21
-75.39
0
LINE
8
BLACK
6
CONTINUOUS
10
202.407
20
-75.39
11
198.808
21
-75.39
0
LINE
8
BLACK
6
CONTINUOUS
10
198.808
20
-75.39
11
198.765
21
-75.3724
0
LINE
8
BLACK
6
CONTINUOUS
10
198.867
20
-72.29
11
198.867
21
-75.27
0
LINE
8
BLACK
6
CONTINUOUS
10
198.867
20
-75.27
11
202.347
21
-75.27
0
LINE
8
BLACK
6
CONTINUOUS
10
202.347
20
-75.27
11
202.347
21
-72.29
0
LINE
8
BLACK
6
CONTINUOUS
10
202.347
20
-72.29
11
198.867
21
-72.29
0
LINE
8
BLACK
6
CONTINUOUS
10
231.572
20
-76.0674
11
231.554
21
-76.025
0
LINE
8
BLACK
6
CONTINUOUS
10
231.554
20
-76.025
11
231.554
21
-62.025
0
LINE
8
BLACK
6
CONTINUOUS
10
231.554
20
-62.025
11
231.572
21
-61.9826
0
LINE
8
BLACK
6
CONTINUOUS
10
231.572
20
-61.9826
11
231.614
21
-61.965
0
LINE
8
BLACK
6
CONTINUOUS
10
231.614
20
-61.965
11
245.614
21
-61.965
0
LINE
8
BLACK
6
CONTINUOUS
10
245.614
20
-61.965
11
245.657
21
-61.9826
0
LINE
8
BLACK
6
CONTINUOUS
10
245.657
20
-61.9826
11
245.674
21
-62.025
0
LINE
8
BLACK
6
CONTINUOUS
10
245.674
20
-62.025
11
245.674
21
-76.025
0
LINE
8
BLACK
6
CONTINUOUS
10
245.674
20
-76.025
11
245.657
21
-76.0674
0
LINE
8
BLACK
6
CONTINUOUS
10
245.657
20
-76.0674
11
245.614
21
-76.085
0
LINE
8
BLACK
6
CONTINUOUS
10
245.614
20
-76.085
11
231.614
21
-76.085
0
LINE
8
BLACK
6
CONTINUOUS
10
231.614
20
-76.085
11
231.572
21
-76.0674
0
LINE
8
BLACK
6
CONTINUOUS
10
231.674
20
-62.085
11
231.674
21
-75.965
0
LINE
8
BLACK
6
CONTINUOUS
10
231.674
20
-75.965
11
245.554
21
-75.965
0
LINE
8
BLACK
6
CONTINUOUS
10
245.554
20
-75.965
11
245.554
21
-62.085
0
LINE
8
BLACK
6
CONTINUOUS
10
245.554
20
-62.085
11
231.674
21
-62.085
0
LINE
8
BLACK
6
CONTINUOUS
10
236.765
20
-75.3724
11
236.748
21
-75.33
0
LINE
8
BLACK
6
CONTINUOUS
10
236.748
20
-75.33
11
236.748
21
-72.23
0
LINE
8
BLACK
6
CONTINUOUS
10
236.748
20
-72.23
11
236.765
21
-72.1876
0
LINE
8
BLACK
6
CONTINUOUS
10
236.765
20
-72.1876
11
236.807
21
-72.17
0
LINE
8
BLACK
6
CONTINUOUS
10
236.807
20
-72.17
11
240.407
21
-72.17
0
LINE
8
BLACK
6
CONTINUOUS
10
240.407
20
-72.17
11
240.45
21
-72.1876
0
LINE
8
BLACK
6
CONTINUOUS
10
240.45
20
-72.1876
11
240.468
21
-72.23
0
LINE
8
BLACK
6
CONTINUOUS
10
240.468
20
-72.23
11
240.468
21
-75.33
0
LINE
8
BLACK
6
CONTINUOUS
10
240.468
20
-75.33
11
240.45
21
-75.3724
0
LINE
8
BLACK
6
CONTINUOUS
10
240.45
20
-75.3724
11
240.407
21
-75.39
0
LINE
8
BLACK
6
CONTINUOUS
10
240.407
20
-75.39
11
236.807
21
-75.39
0
LINE
8
BLACK
6
CONTINUOUS
10
236.807
20
-75.39
11
236.765
21
-75.3724
0
LINE
8
BLACK
6
CONTINUOUS
10
236.867
20
-72.29
11
236.867
21
-75.27
0
LINE
8
BLACK
6
CONTINUOUS
10
236.867
20
-75.27
11
240.347
21
-75.27
0
LINE
8
BLACK
6
CONTINUOUS
10
240.347
20
-75.27
11
240.347
21
-72.29
0
LINE
8
BLACK
6
CONTINUOUS
10
240.347
20
-72.29
11
236.867
21
-72.29
0
LINE
8
BLACK
6
CONTINUOUS
10
212.572
20
-73.6924
11
212.554
21
-73.65
0
LINE
8
BLACK
6
CONTINUOUS
10
212.554
20
-73.65
11
212.554
21
-59.65
0
LINE
8
BLACK
6
CONTINUOUS
10
212.554
20
-59.65
11
212.572
21
-59.6076
0
LINE
8
BLACK
6
CONTINUOUS
10
212.572
20
-59.6076
11
212.614
21
-59.59
0
LINE
8
BLACK
6
CONTINUOUS
10
212.614
20
-59.59
11
226.614
21
-59.59
0
LINE
8
BLACK
6
CONTINUOUS
10
226.614
20
-59.59
11
226.657
21
-59.6076
0
LINE
8
BLACK
6
CONTINUOUS
10
226.657
20
-59.6076
11
226.674
21
-59.65
0
LINE
8
BLACK
6
CONTINUOUS
10
226.674
20
-59.65
11
226.674
21
-73.65
0
LINE
8
BLACK
6
CONTINUOUS
10
226.674
20
-73.65
11
226.657
21
-73.6924
0
LINE
8
BLACK
6
CONTINUOUS
10
226.657
20
-73.6924
11
226.614
21
-73.71
0
LINE
8
BLACK
6
CONTINUOUS
10
226.614
20
-73.71
11
212.614
21
-73.71
0
LINE
8
BLACK
6
CONTINUOUS
10
212.614
20
-73.71
11
212.572
21
-73.6924
0
LINE
8
BLACK
6
CONTINUOUS
10
212.674
20
-59.71
11
212.674
21
-73.59
0
LINE
8
BLACK
6
CONTINUOUS
10
212.674
20
-73.59
11
226.554
21
-73.59
0
LINE
8
BLACK
6
CONTINUOUS
10
226.554
20
-73.59
11
226.554
21
-59.71
0
LINE
8
BLACK
6
CONTINUOUS
10
226.554
20
-59.71
11
212.674
21
-59.71
0
LINE
8
BLACK
6
CONTINUOUS
10
217.765
20
-72.9974
11
217.748
21
-72.955
0
LINE
8
BLACK
6
CONTINUOUS
10
217.748
20
-72.955
11
217.748
21
-69.855
0
LINE
8
BLACK
6
CONTINUOUS
10
217.748
20
-69.855
11
217.765
21
-69.8126
0
LINE
8
BLACK
6
CONTINUOUS
10
217.765
20
-69.8126
11
217.807
21
-69.795
0
LINE
8
BLACK
6
CONTINUOUS
10
217.807
20
-69.795
11
221.407
21
-69.795
0
LINE
8
BLACK
6
CONTINUOUS
10
221.407
20
-69.795
11
221.45
21
-69.8126
0
LINE
8
BLACK
6
CONTINUOUS
10
221.45
20
-69.8126
11
221.468
21
-69.855
0
LINE
8
BLACK
6
CONTINUOUS
10
221.468
20
-69.855
11
221.468
21
-72.955
0
LINE
8
BLACK
6
CONTINUOUS
10
221.468
20
-72.955
11
221.45
21
-72.9974
0
LINE
8
BLACK
6
CONTINUOUS
10
221.45
20
-72.9974
11
221.407
21
-73.015
0
LINE
8
BLACK
6
CONTINUOUS
10
221.407
20
-73.015
11
217.807
21
-73.015
0
LINE
8
BLACK
6
CONTINUOUS
10
217.807
20
-73.015
11
217.765
21
-72.9974
0
LINE
8
BLACK
6
CONTINUOUS
10
217.867
20
-69.915
11
217.867
21
-72.895
0
LINE
8
BLACK
6
CONTINUOUS
10
217.867
20
-72.895
11
221.347
21
-72.895
0
LINE
8
BLACK
6
CONTINUOUS
10
221.347
20
-72.895
11
221.347
21
-69.915
0
LINE
8
BLACK
6
CONTINUOUS
10
221.347
20
-69.915
11
217.867
21
-69.915
0
LINE
8
BLACK
6
CONTINUOUS
10
269.572
20
-61.8174
11
269.554
21
-61.775
0
LINE
8
BLACK
6
CONTINUOUS
10
269.554
20
-61.775
11
269.554
21
-47.775
0
LINE
8
BLACK
6
CONTINUOUS
10
269.554
20
-47.775
11
269.572
21
-47.7326
0
LINE
8
BLACK
6
CONTINUOUS
10
269.572
20
-47.7326
11
269.614
21
-47.715
0
LINE
8
BLACK
6
CONTINUOUS
10
269.614
20
-47.715
11
283.614
21
-47.715
0
LINE
8
BLACK
6
CONTINUOUS
10
283.614
20
-47.715
11
283.657
21
-47.7326
0
LINE
8
BLACK
6
CONTINUOUS
10
283.657
20
-47.7326
11
283.674
21
-47.775
0
LINE
8
BLACK
6
CONTINUOUS
10
283.674
20
-47.775
11
283.674
21
-61.775
0
LINE
8
BLACK
6
CONTINUOUS
10
283.674
20
-61.775
11
283.657
21
-61.8174
0
LINE
8
BLACK
6
CONTINUOUS
10
283.657
20
-61.8174
11
283.614
21
-61.835
0
LINE
8
BLACK
6
CONTINUOUS
10
283.614
20
-61.835
11
269.614
21
-61.835
0
LINE
8
BLACK
6
CONTINUOUS
10
269.614
20
-61.835
11
269.572
21
-61.8174
0
LINE
8
BLACK
6
CONTINUOUS
10
269.674
20
-47.835
11
269.674
21
-61.715
0
LINE
8
BLACK
6
CONTINUOUS
10
269.674
20
-61.715
11
283.554
21
-61.715
0
LINE
8
BLACK
6
CONTINUOUS
10
283.554
20
-61.715
11
283.554
21
-47.835
0
LINE
8
BLACK
6
CONTINUOUS
10
283.554
20
-47.835
11
269.674
21
-47.835
0
LINE
8
BLACK
6
CONTINUOUS
10
274.765
20
-61.1224
11
274.748
21
-61.08
0
LINE
8
BLACK
6
CONTINUOUS
10
274.748
20
-61.08
11
274.748
21
-57.98
0
LINE
8
BLACK
6
CONTINUOUS
10
274.748
20
-57.98
11
274.765
21
-57.9376
0
LINE
8
BLACK
6
CONTINUOUS
10
274.765
20
-57.9376
11
274.808
21
-57.92
0
LINE
8
BLACK
6
CONTINUOUS
10
274.808
20
-57.92
11
278.407
21
-57.92
0
LINE
8
BLACK
6
CONTINUOUS
10
278.407
20
-57.92
11
278.45
21
-57.9376
0
LINE
8
BLACK
6
CONTINUOUS
10
278.45
20
-57.9376
11
278.467
21
-57.98
0
LINE
8
BLACK
6
CONTINUOUS
10
278.467
20
-57.98
11
278.467
21
-61.08
0
LINE
8
BLACK
6
CONTINUOUS
10
278.467
20
-61.08
11
278.45
21
-61.1224
0
LINE
8
BLACK
6
CONTINUOUS
10
278.45
20
-61.1224
11
278.407
21
-61.14
0
LINE
8
BLACK
6
CONTINUOUS
10
278.407
20
-61.14
11
274.808
21
-61.14
0
LINE
8
BLACK
6
CONTINUOUS
10
274.808
20
-61.14
11
274.765
21
-61.1224
0
LINE
8
BLACK
6
CONTINUOUS
10
274.868
20
-58.04
11
274.868
21
-61.02
0
LINE
8
BLACK
6
CONTINUOUS
10
274.868
20
-61.02
11
278.347
21
-61.02
0
LINE
8
BLACK
6
CONTINUOUS
10
278.347
20
-61.02
11
278.347
21
-58.04
0
LINE
8
BLACK
6
CONTINUOUS
10
278.347
20
-58.04
11
274.868
21
-58.04
0
LINE
8
BLACK
6
CONTINUOUS
10
250.572
20
-61.8174
11
250.554
21
-61.775
0
LINE
8
BLACK
6
CONTINUOUS
10
250.554
20
-61.775
11
250.554
21
-47.775
0
LINE
8
BLACK
6
CONTINUOUS
10
250.554
20
-47.775
11
250.572
21
-47.7326
0
LINE
8
BLACK
6
CONTINUOUS
10
250.572
20
-47.7326
11
250.614
21
-47.715
0
LINE
8
BLACK
6
CONTINUOUS
10
250.614
20
-47.715
11
264.614
21
-47.715
0
LINE
8
BLACK
6
CONTINUOUS
10
264.614
20
-47.715
11
264.657
21
-47.7326
0
LINE
8
BLACK
6
CONTINUOUS
10
264.657
20
-47.7326
11
264.674
21
-47.775
0
LINE
8
BLACK
6
CONTINUOUS
10
264.674
20
-47.775
11
264.674
21
-61.775
0
LINE
8
BLACK
6
CONTINUOUS
10
264.674
20
-61.775
11
264.657
21
-61.8174
0
LINE
8
BLACK
6
CONTINUOUS
10
264.657
20
-61.8174
11
264.614
21
-61.835
0
LINE
8
BLACK
6
CONTINUOUS
10
264.614
20
-61.835
11
250.614
21
-61.835
0
LINE
8
BLACK
6
CONTINUOUS
10
250.614
20
-61.835
11
250.572
21
-61.8174
0
LINE
8
BLACK
6
CONTINUOUS
10
250.674
20
-47.835
11
250.674
21
-61.715
0
LINE
8
BLACK
6
CONTINUOUS
10
250.674
20
-61.715
11
264.554
21
-61.715
0
LINE
8
BLACK
6
CONTINUOUS
10
264.554
20
-61.715
11
264.554
21
-47.835
0
LINE
8
BLACK
6
CONTINUOUS
10
264.554
20
-47.835
11
250.674
21
-47.835
0
LINE
8
BLACK
6
CONTINUOUS
10
255.765
20
-61.1224
11
255.748
21
-61.08
0
LINE
8
BLACK
6
CONTINUOUS
10
255.748
20
-61.08
11
255.748
21
-57.98
0
LINE
8
BLACK
6
CONTINUOUS
10
255.748
20
-57.98
11
255.765
21
-57.9376
0
LINE
8
BLACK
6
CONTINUOUS
10
255.765
20
-57.9376
11
255.807
21
-57.92
0
LINE
8
BLACK
6
CONTINUOUS
10
255.807
20
-57.92
11
259.407
21
-57.92
0
LINE
8
BLACK
6
CONTINUOUS
10
259.407
20
-57.92
11
259.45
21
-57.9376
0
LINE
8
BLACK
6
CONTINUOUS
10
259.45
20
-57.9376
11
259.467
21
-57.98
0
LINE
8
BLACK
6
CONTINUOUS
10
259.467
20
-57.98
11
259.467
21
-61.08
0
LINE
8
BLACK
6
CONTINUOUS
10
259.467
20
-61.08
11
259.45
21
-61.1224
0
LINE
8
BLACK
6
CONTINUOUS
10
259.45
20
-61.1224
11
259.407
21
-61.14
0
LINE
8
BLACK
6
CONTINUOUS
10
259.407
20
-61.14
11
255.807
21
-61.14
0
LINE
8
BLACK
6
CONTINUOUS
10
255.807
20
-61.14
11
255.765
21
-61.1224
0
LINE
8
BLACK
6
CONTINUOUS
10
255.867
20
-58.04
11
255.867
21
-61.02
0
LINE
8
BLACK
6
CONTINUOUS
10
255.867
20
-61.02
11
259.347
21
-61.02
0
LINE
8
BLACK
6
CONTINUOUS
10
259.347
20
-61.02
11
259.347
21
-58.04
0
LINE
8
BLACK
6
CONTINUOUS
10
259.347
20
-58.04
11
255.867
21
-58.04
0
LINE
8
BLACK
6
CONTINUOUS
10
174.572
20
-59.4424
11
174.554
21
-59.4
0
LINE
8
BLACK
6
CONTINUOUS
10
174.554
20
-59.4
11
174.554
21
-45.4
0
LINE
8
BLACK
6
CONTINUOUS
10
174.554
20
-45.4
11
174.572
21
-45.3576
0
LINE
8
BLACK
6
CONTINUOUS
10
174.572
20
-45.3576
11
174.614
21
-45.34
0
LINE
8
BLACK
6
CONTINUOUS
10
174.614
20
-45.34
11
188.614
21
-45.34
0
LINE
8
BLACK
6
CONTINUOUS
10
188.614
20
-45.34
11
188.657
21
-45.3576
0
LINE
8
BLACK
6
CONTINUOUS
10
188.657
20
-45.3576
11
188.674
21
-45.4
0
LINE
8
BLACK
6
CONTINUOUS
10
188.674
20
-45.4
11
188.674
21
-59.4
0
LINE
8
BLACK
6
CONTINUOUS
10
188.674
20
-59.4
11
188.657
21
-59.4424
0
LINE
8
BLACK
6
CONTINUOUS
10
188.657
20
-59.4424
11
188.614
21
-59.46
0
LINE
8
BLACK
6
CONTINUOUS
10
188.614
20
-59.46
11
174.614
21
-59.46
0
LINE
8
BLACK
6
CONTINUOUS
10
174.614
20
-59.46
11
174.572
21
-59.4424
0
LINE
8
BLACK
6
CONTINUOUS
10
174.674
20
-45.46
11
174.674
21
-59.34
0
LINE
8
BLACK
6
CONTINUOUS
10
174.674
20
-59.34
11
188.554
21
-59.34
0
LINE
8
BLACK
6
CONTINUOUS
10
188.554
20
-59.34
11
188.554
21
-45.46
0
LINE
8
BLACK
6
CONTINUOUS
10
188.554
20
-45.46
11
174.674
21
-45.46
0
LINE
8
BLACK
6
CONTINUOUS
10
179.765
20
-58.7474
11
179.748
21
-58.705
0
LINE
8
BLACK
6
CONTINUOUS
10
179.748
20
-58.705
11
179.748
21
-55.605
0
LINE
8
BLACK
6
CONTINUOUS
10
179.748
20
-55.605
11
179.765
21
-55.5626
0
LINE
8
BLACK
6
CONTINUOUS
10
179.765
20
-55.5626
11
179.808
21
-55.545
0
LINE
8
BLACK
6
CONTINUOUS
10
179.808
20
-55.545
11
183.407
21
-55.545
0
LINE
8
BLACK
6
CONTINUOUS
10
183.407
20
-55.545
11
183.45
21
-55.5626
0
LINE
8
BLACK
6
CONTINUOUS
10
183.45
20
-55.5626
11
183.468
21
-55.605
0
LINE
8
BLACK
6
CONTINUOUS
10
183.468
20
-55.605
11
183.468
21
-58.705
0
LINE
8
BLACK
6
CONTINUOUS
10
183.468
20
-58.705
11
183.45
21
-58.7474
0
LINE
8
BLACK
6
CONTINUOUS
10
183.45
20
-58.7474
11
183.407
21
-58.765
0
LINE
8
BLACK
6
CONTINUOUS
10
183.407
20
-58.765
11
179.808
21
-58.765
0
LINE
8
BLACK
6
CONTINUOUS
10
179.808
20
-58.765
11
179.765
21
-58.7474
0
LINE
8
BLACK
6
CONTINUOUS
10
179.867
20
-55.665
11
179.867
21
-58.645
0
LINE
8
BLACK
6
CONTINUOUS
10
179.867
20
-58.645
11
183.347
21
-58.645
0
LINE
8
BLACK
6
CONTINUOUS
10
183.347
20
-58.645
11
183.347
21
-55.665
0
LINE
8
BLACK
6
CONTINUOUS
10
183.347
20
-55.665
11
179.867
21
-55.665
0
LINE
8
BLACK
6
CONTINUOUS
10
231.572
20
-57.0674
11
231.554
21
-57.025
0
LINE
8
BLACK
6
CONTINUOUS
10
231.554
20
-57.025
11
231.554
21
-43.025
0
LINE
8
BLACK
6
CONTINUOUS
10
231.554
20
-43.025
11
231.572
21
-42.9826
0
LINE
8
BLACK
6
CONTINUOUS
10
231.572
20
-42.9826
11
231.614
21
-42.965
0
LINE
8
BLACK
6
CONTINUOUS
10
231.614
20
-42.965
11
245.614
21
-42.965
0
LINE
8
BLACK
6
CONTINUOUS
10
245.614
20
-42.965
11
245.657
21
-42.9826
0
LINE
8
BLACK
6
CONTINUOUS
10
245.657
20
-42.9826
11
245.674
21
-43.025
0
LINE
8
BLACK
6
CONTINUOUS
10
245.674
20
-43.025
11
245.674
21
-57.025
0
LINE
8
BLACK
6
CONTINUOUS
10
245.674
20
-57.025
11
245.657
21
-57.0674
0
LINE
8
BLACK
6
CONTINUOUS
10
245.657
20
-57.0674
11
245.614
21
-57.085
0
LINE
8
BLACK
6
CONTINUOUS
10
245.614
20
-57.085
11
231.614
21
-57.085
0
LINE
8
BLACK
6
CONTINUOUS
10
231.614
20
-57.085
11
231.572
21
-57.0674
0
LINE
8
BLACK
6
CONTINUOUS
10
231.674
20
-43.085
11
231.674
21
-56.965
0
LINE
8
BLACK
6
CONTINUOUS
10
231.674
20
-56.965
11
245.554
21
-56.965
0
LINE
8
BLACK
6
CONTINUOUS
10
245.554
20
-56.965
11
245.554
21
-43.085
0
LINE
8
BLACK
6
CONTINUOUS
10
245.554
20
-43.085
11
231.674
21
-43.085
0
LINE
8
BLACK
6
CONTINUOUS
10
236.765
20
-56.3724
11
236.748
21
-56.33
0
LINE
8
BLACK
6
CONTINUOUS
10
236.748
20
-56.33
11
236.748
21
-53.23
0
LINE
8
BLACK
6
CONTINUOUS
10
236.748
20
-53.23
11
236.765
21
-53.1876
0
LINE
8
BLACK
6
CONTINUOUS
10
236.765
20
-53.1876
11
236.807
21
-53.17
0
LINE
8
BLACK
6
CONTINUOUS
10
236.807
20
-53.17
11
240.407
21
-53.17
0
LINE
8
BLACK
6
CONTINUOUS
10
240.407
20
-53.17
11
240.45
21
-53.1876
0
LINE
8
BLACK
6
CONTINUOUS
10
240.45
20
-53.1876
11
240.468
21
-53.23
0
LINE
8
BLACK
6
CONTINUOUS
10
240.468
20
-53.23
11
240.468
21
-56.33
0
LINE
8
BLACK
6
CONTINUOUS
10
240.468
20
-56.33
11
240.45
21
-56.3724
0
LINE
8
BLACK
6
CONTINUOUS
10
240.45
20
-56.3724
11
240.407
21
-56.39
0
LINE
8
BLACK
6
CONTINUOUS
10
240.407
20
-56.39
11
236.807
21
-56.39
0
LINE
8
BLACK
6
CONTINUOUS
10
236.807
20
-56.39
11
236.765
21
-56.3724
0
LINE
8
BLACK
6
CONTINUOUS
10
236.867
20
-53.29
11
236.867
21
-56.27
0
LINE
8
BLACK
6
CONTINUOUS
10
236.867
20
-56.27
11
240.347
21
-56.27
0
LINE
8
BLACK
6
CONTINUOUS
10
240.347
20
-56.27
11
240.347
21
-53.29
0
LINE
8
BLACK
6
CONTINUOUS
10
240.347
20
-53.29
11
236.867
21
-53.29
0
LINE
8
BLACK
6
CONTINUOUS
10
193.572
20
-57.0674
11
193.554
21
-57.025
0
LINE
8
BLACK
6
CONTINUOUS
10
193.554
20
-57.025
11
193.554
21
-43.025
0
LINE
8
BLACK
6
CONTINUOUS
10
193.554
20
-43.025
11
193.572
21
-42.9826
0
LINE
8
BLACK
6
CONTINUOUS
10
193.572
20
-42.9826
11
193.614
21
-42.965
0
LINE
8
BLACK
6
CONTINUOUS
10
193.614
20
-42.965
11
207.614
21
-42.965
0
LINE
8
BLACK
6
CONTINUOUS
10
207.614
20
-42.965
11
207.657
21
-42.9826
0
LINE
8
BLACK
6
CONTINUOUS
10
207.657
20
-42.9826
11
207.674
21
-43.025
0
LINE
8
BLACK
6
CONTINUOUS
10
207.674
20
-43.025
11
207.674
21
-57.025
0
LINE
8
BLACK
6
CONTINUOUS
10
207.674
20
-57.025
11
207.657
21
-57.0674
0
LINE
8
BLACK
6
CONTINUOUS
10
207.657
20
-57.0674
11
207.614
21
-57.085
0
LINE
8
BLACK
6
CONTINUOUS
10
207.614
20
-57.085
11
193.614
21
-57.085
0
LINE
8
BLACK
6
CONTINUOUS
10
193.614
20
-57.085
11
193.572
21
-57.0674
0
LINE
8
BLACK
6
CONTINUOUS
10
193.674
20
-43.085
11
193.674
21
-56.965
0
LINE
8
BLACK
6
CONTINUOUS
10
193.674
20
-56.965
11
207.554
21
-56.965
0
LINE
8
BLACK
6
CONTINUOUS
10
207.554
20
-56.965
11
207.554
21
-43.085
0
LINE
8
BLACK
6
CONTINUOUS
10
207.554
20
-43.085
11
193.674
21
-43.085
0
LINE
8
BLACK
6
CONTINUOUS
10
198.765
20
-56.3724
11
198.748
21
-56.33
0
LINE
8
BLACK
6
CONTINUOUS
10
198.748
20
-56.33
11
198.748
21
-53.23
0
LINE
8
BLACK
6
CONTINUOUS
10
198.748
20
-53.23
11
198.765
21
-53.1876
0
LINE
8
BLACK
6
CONTINUOUS
10
198.765
20
-53.1876
11
198.808
21
-53.17
0
LINE
8
BLACK
6
CONTINUOUS
10
198.808
20
-53.17
11
202.407
21
-53.17
0
LINE
8
BLACK
6
CONTINUOUS
10
202.407
20
-53.17
11
202.45
21
-53.1876
0
LINE
8
BLACK
6
CONTINUOUS
10
202.45
20
-53.1876
11
202.468
21
-53.23
0
LINE
8
BLACK
6
CONTINUOUS
10
202.468
20
-53.23
11
202.468
21
-56.33
0
LINE
8
BLACK
6
CONTINUOUS
10
202.468
20
-56.33
11
202.45
21
-56.3724
0
LINE
8
BLACK
6
CONTINUOUS
10
202.45
20
-56.3724
11
202.407
21
-56.39
0
LINE
8
BLACK
6
CONTINUOUS
10
202.407
20
-56.39
11
198.808
21
-56.39
0
LINE
8
BLACK
6
CONTINUOUS
10
198.808
20
-56.39
11
198.765
21
-56.3724
0
LINE
8
BLACK
6
CONTINUOUS
10
198.867
20
-53.29
11
198.867
21
-56.27
0
LINE
8
BLACK
6
CONTINUOUS
10
198.867
20
-56.27
11
202.347
21
-56.27
0
LINE
8
BLACK
6
CONTINUOUS
10
202.347
20
-56.27
11
202.347
21
-53.29
0
LINE
8
BLACK
6
CONTINUOUS
10
202.347
20
-53.29
11
198.867
21
-53.29
0
LINE
8
BLACK
6
CONTINUOUS
10
212.572
20
-54.6924
11
212.554
21
-54.65
0
LINE
8
BLACK
6
CONTINUOUS
10
212.554
20
-54.65
11
212.554
21
-40.65
0
LINE
8
BLACK
6
CONTINUOUS
10
212.554
20
-40.65
11
212.572
21
-40.6076
0
LINE
8
BLACK
6
CONTINUOUS
10
212.572
20
-40.6076
11
212.614
21
-40.59
0
LINE
8
BLACK
6
CONTINUOUS
10
212.614
20
-40.59
11
226.614
21
-40.59
0
LINE
8
BLACK
6
CONTINUOUS
10
226.614
20
-40.59
11
226.657
21
-40.6076
0
LINE
8
BLACK
6
CONTINUOUS
10
226.657
20
-40.6076
11
226.674
21
-40.65
0
LINE
8
BLACK
6
CONTINUOUS
10
226.674
20
-40.65
11
226.674
21
-54.65
0
LINE
8
BLACK
6
CONTINUOUS
10
226.674
20
-54.65
11
226.657
21
-54.6924
0
LINE
8
BLACK
6
CONTINUOUS
10
226.657
20
-54.6924
11
226.614
21
-54.71
0
LINE
8
BLACK
6
CONTINUOUS
10
226.614
20
-54.71
11
212.614
21
-54.71
0
LINE
8
BLACK
6
CONTINUOUS
10
212.614
20
-54.71
11
212.572
21
-54.6924
0
LINE
8
BLACK
6
CONTINUOUS
10
212.674
20
-40.71
11
212.674
21
-54.59
0
LINE
8
BLACK
6
CONTINUOUS
10
212.674
20
-54.59
11
226.554
21
-54.59
0
LINE
8
BLACK
6
CONTINUOUS
10
226.554
20
-54.59
11
226.554
21
-40.71
0
LINE
8
BLACK
6
CONTINUOUS
10
226.554
20
-40.71
11
212.674
21
-40.71
0
LINE
8
BLACK
6
CONTINUOUS
10
217.765
20
-53.9974
11
217.748
21
-53.955
0
LINE
8
BLACK
6
CONTINUOUS
10
217.748
20
-53.955
11
217.748
21
-50.855
0
LINE
8
BLACK
6
CONTINUOUS
10
217.748
20
-50.855
11
217.765
21
-50.8126
0
LINE
8
BLACK
6
CONTINUOUS
10
217.765
20
-50.8126
11
217.807
21
-50.795
0
LINE
8
BLACK
6
CONTINUOUS
10
217.807
20
-50.795
11
221.407
21
-50.795
0
LINE
8
BLACK
6
CONTINUOUS
10
221.407
20
-50.795
11
221.45
21
-50.8126
0
LINE
8
BLACK
6
CONTINUOUS
10
221.45
20
-50.8126
11
221.468
21
-50.855
0
LINE
8
BLACK
6
CONTINUOUS
10
221.468
20
-50.855
11
221.468
21
-53.955
0
LINE
8
BLACK
6
CONTINUOUS
10
221.468
20
-53.955
11
221.45
21
-53.9974
0
LINE
8
BLACK
6
CONTINUOUS
10
221.45
20
-53.9974
11
221.407
21
-54.015
0
LINE
8
BLACK
6
CONTINUOUS
10
221.407
20
-54.015
11
217.807
21
-54.015
0
LINE
8
BLACK
6
CONTINUOUS
10
217.807
20
-54.015
11
217.765
21
-53.9974
0
LINE
8
BLACK
6
CONTINUOUS
10
217.867
20
-50.915
11
217.867
21
-53.895
0
LINE
8
BLACK
6
CONTINUOUS
10
217.867
20
-53.895
11
221.347
21
-53.895
0
LINE
8
BLACK
6
CONTINUOUS
10
221.347
20
-53.895
11
221.347
21
-50.915
0
LINE
8
BLACK
6
CONTINUOUS
10
221.347
20
-50.915
11
217.867
21
-50.915
0
LINE
8
BLACK
6
CONTINUOUS
10
250.572
20
-42.8174
11
250.554
21
-42.775
0
LINE
8
BLACK
6
CONTINUOUS
10
250.554
20
-42.775
11
250.554
21
-28.775
0
LINE
8
BLACK
6
CONTINUOUS
10
250.554
20
-28.775
11
250.572
21
-28.7326
0
LINE
8
BLACK
6
CONTINUOUS
10
250.572
20
-28.7326
11
250.614
21
-28.715
0
LINE
8
BLACK
6
CONTINUOUS
10
250.614
20
-28.715
11
264.614
21
-28.715
0
LINE
8
BLACK
6
CONTINUOUS
10
264.614
20
-28.715
11
264.657
21
-28.7326
0
LINE
8
BLACK
6
CONTINUOUS
10
264.657
20
-28.7326
11
264.674
21
-28.775
0
LINE
8
BLACK
6
CONTINUOUS
10
264.674
20
-28.775
11
264.674
21
-42.775
0
LINE
8
BLACK
6
CONTINUOUS
10
264.674
20
-42.775
11
264.657
21
-42.8174
0
LINE
8
BLACK
6
CONTINUOUS
10
264.657
20
-42.8174
11
264.614
21
-42.835
0
LINE
8
BLACK
6
CONTINUOUS
10
264.614
20
-42.835
11
250.614
21
-42.835
0
LINE
8
BLACK
6
CONTINUOUS
10
250.614
20
-42.835
11
250.572
21
-42.8174
0
LINE
8
BLACK
6
CONTINUOUS
10
250.674
20
-28.835
11
250.674
21
-42.715
0
LINE
8
BLACK
6
CONTINUOUS
10
250.674
20
-42.715
11
264.554
21
-42.715
0
LINE
8
BLACK
6
CONTINUOUS
10
264.554
20
-42.715
11
264.554
21
-28.835
0
LINE
8
BLACK
6
CONTINUOUS
10
264.554
20
-28.835
11
250.674
21
-28.835
0
LINE
8
BLACK
6
CONTINUOUS
10
255.765
20
-42.1224
11
255.748
21
-42.08
0
LINE
8
BLACK
6
CONTINUOUS
10
255.748
20
-42.08
11
255.748
21
-38.98
0
LINE
8
BLACK
6
CONTINUOUS
10
255.748
20
-38.98
11
255.765
21
-38.9376
0
LINE
8
BLACK
6
CONTINUOUS
10
255.765
20
-38.9376
11
255.807
21
-38.92
0
LINE
8
BLACK
6
CONTINUOUS
10
255.807
20
-38.92
11
259.407
21
-38.92
0
LINE
8
BLACK
6
CONTINUOUS
10
259.407
20
-38.92
11
259.45
21
-38.9376
0
LINE
8
BLACK
6
CONTINUOUS
10
259.45
20
-38.9376
11
259.467
21
-38.98
0
LINE
8
BLACK
6
CONTINUOUS
10
259.467
20
-38.98
11
259.467
21
-42.08
0
LINE
8
BLACK
6
CONTINUOUS
10
259.467
20
-42.08
11
259.45
21
-42.1224
0
LINE
8
BLACK
6
CONTINUOUS
10
259.45
20
-42.1224
11
259.407
21
-42.14
0
LINE
8
BLACK
6
CONTINUOUS
10
259.407
20
-42.14
11
255.807
21
-42.14
0
LINE
8
BLACK
6
CONTINUOUS
10
255.807
20
-42.14
11
255.765
21
-42.1224
0
LINE
8
BLACK
6
CONTINUOUS
10
255.867
20
-39.04
11
255.867
21
-42.02
0
LINE
8
BLACK
6
CONTINUOUS
10
255.867
20
-42.02
11
259.347
21
-42.02
0
LINE
8
BLACK
6
CONTINUOUS
10
259.347
20
-42.02
11
259.347
21
-39.04
0
LINE
8
BLACK
6
CONTINUOUS
10
259.347
20
-39.04
11
255.867
21
-39.04
0
LINE
8
BLACK
6
CONTINUOUS
10
269.572
20
-42.8174
11
269.554
21
-42.775
0
LINE
8
BLACK
6
CONTINUOUS
10
269.554
20
-42.775
11
269.554
21
-28.775
0
LINE
8
BLACK
6
CONTINUOUS
10
269.554
20
-28.775
11
269.572
21
-28.7326
0
LINE
8
BLACK
6
CONTINUOUS
10
269.572
20
-28.7326
11
269.614
21
-28.715
0
LINE
8
BLACK
6
CONTINUOUS
10
269.614
20
-28.715
11
283.614
21
-28.715
0
LINE
8
BLACK
6
CONTINUOUS
10
283.614
20
-28.715
11
283.657
21
-28.7326
0
LINE
8
BLACK
6
CONTINUOUS
10
283.657
20
-28.7326
11
283.674
21
-28.775
0
LINE
8
BLACK
6
CONTINUOUS
10
283.674
20
-28.775
11
283.674
21
-42.775
0
LINE
8
BLACK
6
CONTINUOUS
10
283.674
20
-42.775
11
283.657
21
-42.8174
0
LINE
8
BLACK
6
CONTINUOUS
10
283.657
20
-42.8174
11
283.614
21
-42.835
0
LINE
8
BLACK
6
CONTINUOUS
10
283.614
20
-42.835
11
269.614
21
-42.835
0
LINE
8
BLACK
6
CONTINUOUS
10
269.614
20
-42.835
11
269.572
21
-42.8174
0
LINE
8
BLACK
6
CONTINUOUS
10
269.674
20
-28.835
11
269.674
21
-42.715
0
LINE
8
BLACK
6
CONTINUOUS
10
269.674
20
-42.715
11
283.554
21
-42.715
0
LINE
8
BLACK
6
CONTINUOUS
10
283.554
20
-42.715
11
283.554
21
-28.835
0
LINE
8
BLACK
6
CONTINUOUS
10
283.554
20
-28.835
11
269.674
21
-28.835
0
LINE
8
BLACK
6
CONTINUOUS
10
274.765
20
-42.1224
11
274.748
21
-42.08
0
LINE
8
BLACK
6
CONTINUOUS
10
274.748
20
-42.08
11
274.748
21
-38.98
0
LINE
8
BLACK
6
CONTINUOUS
10
274.748
20
-38.98
11
274.765
21
-38.9376
0
LINE
8
BLACK
6
CONTINUOUS
10
274.765
20
-38.9376
11
274.808
21
-38.92
0
LINE
8
BLACK
6
CONTINUOUS
10
274.808
20
-38.92
11
278.407
21
-38.92
0
LINE
8
BLACK
6
CONTINUOUS
10
278.407
20
-38.92
11
278.45
21
-38.9376
0
LINE
8
BLACK
6
CONTINUOUS
10
278.45
20
-38.9376
11
278.467
21
-38.98
0
LINE
8
BLACK
6
CONTINUOUS
10
278.467
20
-38.98
11
278.467
21
-42.08
0
LINE
8
BLACK
6
CONTINUOUS
10
278.467
20
-42.08
11
278.45
21
-42.1224
0
LINE
8
BLACK
6
CONTINUOUS
10
278.45
20
-42.1224
11
278.407
21
-42.14
0
LINE
8
BLACK
6
CONTINUOUS
10
278.407
20
-42.14
11
274.808
21
-42.14
0
LINE
8
BLACK
6
CONTINUOUS
10
274.808
20
-42.14
11
274.765
21
-42.1224
0
LINE
8
BLACK
6
CONTINUOUS
10
274.868
20
-39.04
11
274.868
21
-42.02
0
LINE
8
BLACK
6
CONTINUOUS
10
274.868
20
-42.02
11
278.347
21
-42.02
0
LINE
8
BLACK
6
CONTINUOUS
10
278.347
20
-42.02
11
278.347
21
-39.04
0
LINE
8
BLACK
6
CONTINUOUS
10
278.347
20
-39.04
11
274.868
21
-39.04
0
LINE
8
BLACK
6
CONTINUOUS
10
174.565
20
-40.4474
11
174.547
21
-40.405
0
LINE
8
BLACK
6
CONTINUOUS
10
174.547
20
-40.405
11
174.547
21
-26.405
0
LINE
8
BLACK
6
CONTINUOUS
10
174.547
20
-26.405
11
174.565
21
-26.3626
0
LINE
8
BLACK
6
CONTINUOUS
10
174.565
20
-26.3626
11
174.607
21
-26.345
0
LINE
8
BLACK
6
CONTINUOUS
10
174.607
20
-26.345
11
188.607
21
-26.345
0
LINE
8
BLACK
6
CONTINUOUS
10
188.607
20
-26.345
11
188.65
21
-26.3626
0
LINE
8
BLACK
6
CONTINUOUS
10
188.65
20
-26.3626
11
188.667
21
-26.405
0
LINE
8
BLACK
6
CONTINUOUS
10
188.667
20
-26.405
11
188.667
21
-40.405
0
LINE
8
BLACK
6
CONTINUOUS
10
188.667
20
-40.405
11
188.65
21
-40.4474
0
LINE
8
BLACK
6
CONTINUOUS
10
188.65
20
-40.4474
11
188.607
21
-40.465
0
LINE
8
BLACK
6
CONTINUOUS
10
188.607
20
-40.465
11
174.607
21
-40.465
0
LINE
8
BLACK
6
CONTINUOUS
10
174.607
20
-40.465
11
174.565
21
-40.4474
0
LINE
8
BLACK
6
CONTINUOUS
10
174.667
20
-26.465
11
174.667
21
-40.345
0
LINE
8
BLACK
6
CONTINUOUS
10
174.667
20
-40.345
11
188.547
21
-40.345
0
LINE
8
BLACK
6
CONTINUOUS
10
188.547
20
-40.345
11
188.547
21
-26.465
0
LINE
8
BLACK
6
CONTINUOUS
10
188.547
20
-26.465
11
174.667
21
-26.465
0
LINE
8
BLACK
6
CONTINUOUS
10
231.572
20
-38.0674
11
231.554
21
-38.025
0
LINE
8
BLACK
6
CONTINUOUS
10
231.554
20
-38.025
11
231.554
21
-24.025
0
LINE
8
BLACK
6
CONTINUOUS
10
231.554
20
-24.025
11
231.572
21
-23.9826
0
LINE
8
BLACK
6
CONTINUOUS
10
231.572
20
-23.9826
11
231.614
21
-23.965
0
LINE
8
BLACK
6
CONTINUOUS
10
231.614
20
-23.965
11
245.614
21
-23.965
0
LINE
8
BLACK
6
CONTINUOUS
10
245.614
20
-23.965
11
245.657
21
-23.9826
0
LINE
8
BLACK
6
CONTINUOUS
10
245.657
20
-23.9826
11
245.674
21
-24.025
0
LINE
8
BLACK
6
CONTINUOUS
10
245.674
20
-24.025
11
245.674
21
-38.025
0
LINE
8
BLACK
6
CONTINUOUS
10
245.674
20
-38.025
11
245.657
21
-38.0674
0
LINE
8
BLACK
6
CONTINUOUS
10
245.657
20
-38.0674
11
245.614
21
-38.085
0
LINE
8
BLACK
6
CONTINUOUS
10
245.614
20
-38.085
11
231.614
21
-38.085
0
LINE
8
BLACK
6
CONTINUOUS
10
231.614
20
-38.085
11
231.572
21
-38.0674
0
LINE
8
BLACK
6
CONTINUOUS
10
231.674
20
-24.085
11
231.674
21
-37.965
0
LINE
8
BLACK
6
CONTINUOUS
10
231.674
20
-37.965
11
245.554
21
-37.965
0
LINE
8
BLACK
6
CONTINUOUS
10
245.554
20
-37.965
11
245.554
21
-24.085
0
LINE
8
BLACK
6
CONTINUOUS
10
245.554
20
-24.085
11
231.674
21
-24.085
0
LINE
8
BLACK
6
CONTINUOUS
10
236.765
20
-37.3724
11
236.748
21
-37.33
0
LINE
8
BLACK
6
CONTINUOUS
10
236.748
20
-37.33
11
236.748
21
-34.23
0
LINE
8
BLACK
6
CONTINUOUS
10
236.748
20
-34.23
11
236.765
21
-34.1876
0
LINE
8
BLACK
6
CONTINUOUS
10
236.765
20
-34.1876
11
236.807
21
-34.17
0
LINE
8
BLACK
6
CONTINUOUS
10
236.807
20
-34.17
11
240.407
21
-34.17
0
LINE
8
BLACK
6
CONTINUOUS
10
240.407
20
-34.17
11
240.45
21
-34.1876
0
LINE
8
BLACK
6
CONTINUOUS
10
240.45
20
-34.1876
11
240.468
21
-34.23
0
LINE
8
BLACK
6
CONTINUOUS
10
240.468
20
-34.23
11
240.468
21
-37.33
0
LINE
8
BLACK
6
CONTINUOUS
10
240.468
20
-37.33
11
240.45
21
-37.3724
0
LINE
8
BLACK
6
CONTINUOUS
10
240.45
20
-37.3724
11
240.407
21
-37.39
0
LINE
8
BLACK
6
CONTINUOUS
10
240.407
20
-37.39
11
236.807
21
-37.39
0
LINE
8
BLACK
6
CONTINUOUS
10
236.807
20
-37.39
11
236.765
21
-37.3724
0
LINE
8
BLACK
6
CONTINUOUS
10
236.867
20
-34.29
11
236.867
21
-37.27
0
LINE
8
BLACK
6
CONTINUOUS
10
236.867
20
-37.27
11
240.347
21
-37.27
0
LINE
8
BLACK
6
CONTINUOUS
10
240.347
20
-37.27
11
240.347
21
-34.29
0
LINE
8
BLACK
6
CONTINUOUS
10
240.347
20
-34.29
11
236.867
21
-34.29
0
LINE
8
BLACK
6
CONTINUOUS
10
193.572
20
-38.0674
11
193.554
21
-38.025
0
LINE
8
BLACK
6
CONTINUOUS
10
193.554
20
-38.025
11
193.554
21
-24.025
0
LINE
8
BLACK
6
CONTINUOUS
10
193.554
20
-24.025
11
193.572
21
-23.9826
0
LINE
8
BLACK
6
CONTINUOUS
10
193.572
20
-23.9826
11
193.614
21
-23.965
0
LINE
8
BLACK
6
CONTINUOUS
10
193.614
20
-23.965
11
207.614
21
-23.965
0
LINE
8
BLACK
6
CONTINUOUS
10
207.614
20
-23.965
11
207.657
21
-23.9826
0
LINE
8
BLACK
6
CONTINUOUS
10
207.657
20
-23.9826
11
207.674
21
-24.025
0
LINE
8
BLACK
6
CONTINUOUS
10
207.674
20
-24.025
11
207.674
21
-38.025
0
LINE
8
BLACK
6
CONTINUOUS
10
207.674
20
-38.025
11
207.657
21
-38.0674
0
LINE
8
BLACK
6
CONTINUOUS
10
207.657
20
-38.0674
11
207.614
21
-38.085
0
LINE
8
BLACK
6
CONTINUOUS
10
207.614
20
-38.085
11
193.614
21
-38.085
0
LINE
8
BLACK
6
CONTINUOUS
10
193.614
20
-38.085
11
193.572
21
-38.0674
0
LINE
8
BLACK
6
CONTINUOUS
10
193.674
20
-24.085
11
193.674
21
-37.965
0
LINE
8
BLACK
6
CONTINUOUS
10
193.674
20
-37.965
11
207.554
21
-37.965
0
LINE
8
BLACK
6
CONTINUOUS
10
207.554
20
-37.965
11
207.554
21
-24.085
0
LINE
8
BLACK
6
CONTINUOUS
10
207.554
20
-24.085
11
193.674
21
-24.085
0
LINE
8
BLACK
6
CONTINUOUS
10
198.765
20
-37.3724
11
198.748
21
-37.33
0
LINE
8
BLACK
6
CONTINUOUS
10
198.748
20
-37.33
11
198.748
21
-34.23
0
LINE
8
BLACK
6
CONTINUOUS
10
198.748
20
-34.23
11
198.765
21
-34.1876
0
LINE
8
BLACK
6
CONTINUOUS
10
198.765
20
-34.1876
11
198.808
21
-34.17
0
LINE
8
BLACK
6
CONTINUOUS
10
198.808
20
-34.17
11
202.407
21
-34.17
0
LINE
8
BLACK
6
CONTINUOUS
10
202.407
20
-34.17
11
202.45
21
-34.1876
0
LINE
8
BLACK
6
CONTINUOUS
10
202.45
20
-34.1876
11
202.468
21
-34.23
0
LINE
8
BLACK
6
CONTINUOUS
10
202.468
20
-34.23
11
202.468
21
-37.33
0
LINE
8
BLACK
6
CONTINUOUS
10
202.468
20
-37.33
11
202.45
21
-37.3724
0
LINE
8
BLACK
6
CONTINUOUS
10
202.45
20
-37.3724
11
202.407
21
-37.39
0
LINE
8
BLACK
6
CONTINUOUS
10
202.407
20
-37.39
11
198.808
21
-37.39
0
LINE
8
BLACK
6
CONTINUOUS
10
198.808
20
-37.39
11
198.765
21
-37.3724
0
LINE
8
BLACK
6
CONTINUOUS
10
198.867
20
-34.29
11
198.867
21
-37.27
0
LINE
8
BLACK
6
CONTINUOUS
10
198.867
20
-37.27
11
202.347
21
-37.27
0
LINE
8
BLACK
6
CONTINUOUS
10
202.347
20
-37.27
11
202.347
21
-34.29
0
LINE
8
BLACK
6
CONTINUOUS
10
202.347
20
-34.29
11
198.867
21
-34.29
0
LINE
8
BLACK
6
CONTINUOUS
10
212.572
20
-35.6924
11
212.554
21
-35.65
0
LINE
8
BLACK
6
CONTINUOUS
10
212.554
20
-35.65
11
212.554
21
-21.65
0
LINE
8
BLACK
6
CONTINUOUS
10
212.554
20
-21.65
11
212.572
21
-21.6076
0
LINE
8
BLACK
6
CONTINUOUS
10
212.572
20
-21.6076
11
212.614
21
-21.59
0
LINE
8
BLACK
6
CONTINUOUS
10
212.614
20
-21.59
11
226.614
21
-21.59
0
LINE
8
BLACK
6
CONTINUOUS
10
226.614
20
-21.59
11
226.657
21
-21.6076
0
LINE
8
BLACK
6
CONTINUOUS
10
226.657
20
-21.6076
11
226.674
21
-21.65
0
LINE
8
BLACK
6
CONTINUOUS
10
226.674
20
-21.65
11
226.674
21
-35.65
0
LINE
8
BLACK
6
CONTINUOUS
10
226.674
20
-35.65
11
226.657
21
-35.6924
0
LINE
8
BLACK
6
CONTINUOUS
10
226.657
20
-35.6924
11
226.614
21
-35.71
0
LINE
8
BLACK
6
CONTINUOUS
10
226.614
20
-35.71
11
212.614
21
-35.71
0
LINE
8
BLACK
6
CONTINUOUS
10
212.614
20
-35.71
11
212.572
21
-35.6924
0
LINE
8
BLACK
6
CONTINUOUS
10
212.674
20
-21.71
11
212.674
21
-35.59
0
LINE
8
BLACK
6
CONTINUOUS
10
212.674
20
-35.59
11
226.554
21
-35.59
0
LINE
8
BLACK
6
CONTINUOUS
10
226.554
20
-35.59
11
226.554
21
-21.71
0
LINE
8
BLACK
6
CONTINUOUS
10
226.554
20
-21.71
11
212.674
21
-21.71
0
LINE
8
BLACK
6
CONTINUOUS
10
217.765
20
-34.9974
11
217.748
21
-34.955
0
LINE
8
BLACK
6
CONTINUOUS
10
217.748
20
-34.955
11
217.748
21
-31.855
0
LINE
8
BLACK
6
CONTINUOUS
10
217.748
20
-31.855
11
217.765
21
-31.8126
0
LINE
8
BLACK
6
CONTINUOUS
10
217.765
20
-31.8126
11
217.807
21
-31.795
0
LINE
8
BLACK
6
CONTINUOUS
10
217.807
20
-31.795
11
221.407
21
-31.795
0
LINE
8
BLACK
6
CONTINUOUS
10
221.407
20
-31.795
11
221.45
21
-31.8126
0
LINE
8
BLACK
6
CONTINUOUS
10
221.45
20
-31.8126
11
221.468
21
-31.855
0
LINE
8
BLACK
6
CONTINUOUS
10
221.468
20
-31.855
11
221.468
21
-34.955
0
LINE
8
BLACK
6
CONTINUOUS
10
221.468
20
-34.955
11
221.45
21
-34.9974
0
LINE
8
BLACK
6
CONTINUOUS
10
221.45
20
-34.9974
11
221.407
21
-35.015
0
LINE
8
BLACK
6
CONTINUOUS
10
221.407
20
-35.015
11
217.807
21
-35.015
0
LINE
8
BLACK
6
CONTINUOUS
10
217.807
20
-35.015
11
217.765
21
-34.9974
0
LINE
8
BLACK
6
CONTINUOUS
10
217.867
20
-31.915
11
217.867
21
-34.895
0
LINE
8
BLACK
6
CONTINUOUS
10
217.867
20
-34.895
11
221.347
21
-34.895
0
LINE
8
BLACK
6
CONTINUOUS
10
221.347
20
-34.895
11
221.347
21
-31.915
0
LINE
8
BLACK
6
CONTINUOUS
10
221.347
20
-31.915
11
217.867
21
-31.915
0
LINE
8
BLACK
6
CONTINUOUS
10
11.6905
20
-83.1201
11
11.6844
21
-83.1181
0
LINE
8
BLACK
6
CONTINUOUS
10
11.6844
20
-83.1181
11
11.678
21
-83.1193
0
LINE
8
BLACK
6
CONTINUOUS
10
11.678
20
-83.1193
11
11.5531
21
-83.1036
0
LINE
8
BLACK
6
CONTINUOUS
10
11.5531
20
-83.1036
11
11.5373
21
-83.0962
0
LINE
8
BLACK
6
CONTINUOUS
10
11.5373
20
-83.0962
11
11.5201
21
-83.0935
0
LINE
8
BLACK
6
CONTINUOUS
10
11.5201
20
-83.0935
11
11.327
21
-82.9951
0
LINE
8
BLACK
6
CONTINUOUS
10
11.327
20
-82.9951
11
11.3117
21
-82.9798
0
LINE
8
BLACK
6
CONTINUOUS
10
11.3117
20
-82.9798
11
11.2938
21
-82.9677
0
LINE
8
BLACK
6
CONTINUOUS
10
11.2938
20
-82.9677
11
11.1611
21
-82.7987
0
LINE
8
BLACK
6
CONTINUOUS
10
11.1611
20
-82.7987
11
11.1535
21
-82.7781
0
LINE
8
BLACK
6
CONTINUOUS
10
11.1535
20
-82.7781
11
11.1422
21
-82.7592
0
LINE
8
BLACK
6
CONTINUOUS
10
11.1422
20
-82.7592
11
11.0929
21
-82.5424
0
LINE
8
BLACK
6
CONTINUOUS
10
11.0929
20
-82.5424
11
11.0936
21
-82.5343
0
LINE
8
BLACK
6
CONTINUOUS
10
11.0936
20
-82.5343
11
11.0886
21
-82.5189
0
LINE
8
BLACK
6
CONTINUOUS
10
11.0886
20
-82.5189
11
11.0904
21
-27.2702
0
LINE
8
BLACK
6
CONTINUOUS
10
11.0904
20
-27.2702
11
11.0904
21
-27.2702
0
LINE
8
BLACK
6
CONTINUOUS
10
11.0904
20
-27.2702
11
11.1095
21
-27.2114
0
LINE
8
BLACK
6
CONTINUOUS
10
11.1095
20
-27.2114
11
11.1595
21
-27.1751
0
LINE
8
BLACK
6
CONTINUOUS
10
11.1595
20
-27.1751
11
11.2213
21
-27.1751
0
LINE
8
BLACK
6
CONTINUOUS
10
11.2213
20
-27.1751
11
11.2713
21
-27.2114
0
LINE
8
BLACK
6
CONTINUOUS
10
11.2713
20
-27.2114
11
11.2904
21
-27.2702
0
LINE
8
BLACK
6
CONTINUOUS
10
11.2904
20
-27.2702
11
11.2904
21
-27.2702
0
LINE
8
BLACK
6
CONTINUOUS
10
11.2904
20
-27.2702
11
11.2886
21
-82.5012
0
LINE
8
BLACK
6
CONTINUOUS
10
11.2886
20
-82.5012
11
11.3323
21
-82.6929
0
LINE
8
BLACK
6
CONTINUOUS
10
11.3323
20
-82.6929
11
11.4375
21
-82.8269
0
LINE
8
BLACK
6
CONTINUOUS
10
11.4375
20
-82.8269
11
11.5954
21
-82.9073
0
LINE
8
BLACK
6
CONTINUOUS
10
11.5954
20
-82.9073
11
11.6968
21
-82.9201
0
LINE
8
BLACK
6
CONTINUOUS
10
11.6968
20
-82.9201
11
22.5675
21
-82.9203
0
LINE
8
BLACK
6
CONTINUOUS
10
22.5675
20
-82.9203
11
60.5575
21
-82.9211
0
LINE
8
BLACK
6
CONTINUOUS
10
60.5575
20
-82.9211
11
66.6903
21
-82.9201
0
LINE
8
BLACK
6
CONTINUOUS
10
66.6903
20
-82.9201
11
66.6993
21
-82.923
0
LINE
8
BLACK
6
CONTINUOUS
10
66.6993
20
-82.923
11
66.7087
21
-82.9218
0
LINE
8
BLACK
6
CONTINUOUS
10
66.7087
20
-82.9218
11
66.8887
21
-82.9553
0
LINE
8
BLACK
6
CONTINUOUS
10
66.8887
20
-82.9553
11
66.906
21
-82.9647
0
LINE
8
BLACK
6
CONTINUOUS
10
66.906
20
-82.9647
11
66.9249
21
-82.9698
0
LINE
8
BLACK
6
CONTINUOUS
10
66.9249
20
-82.9698
11
67.0985
21
-83.0828
0
LINE
8
BLACK
6
CONTINUOUS
10
67.0985
20
-83.0828
11
67.1099
21
-83.097
0
LINE
8
BLACK
6
CONTINUOUS
10
67.1099
20
-83.097
11
67.1247
21
-83.1077
0
LINE
8
BLACK
6
CONTINUOUS
10
67.1247
20
-83.1077
11
77.6569
21
-97.55
0
LINE
8
BLACK
6
CONTINUOUS
10
77.6569
20
-97.55
11
77.7983
21
-97.6419
0
LINE
8
BLACK
6
CONTINUOUS
10
77.7983
20
-97.6419
11
77.9561
21
-97.6713
0
LINE
8
BLACK
6
CONTINUOUS
10
77.9561
20
-97.6713
11
114.623
21
-102.441
0
LINE
8
BLACK
6
CONTINUOUS
10
114.623
20
-102.441
11
114.663
21
-102.445
0
LINE
8
BLACK
6
CONTINUOUS
10
114.663
20
-102.445
11
114.665
21
-102.446
0
LINE
8
BLACK
6
CONTINUOUS
10
114.665
20
-102.446
11
114.667
21
-102.446
0
LINE
8
BLACK
6
CONTINUOUS
10
114.667
20
-102.446
11
114.873
21
-102.475
0
LINE
8
BLACK
6
CONTINUOUS
10
114.873
20
-102.475
11
114.876
21
-102.476
0
LINE
8
BLACK
6
CONTINUOUS
10
114.876
20
-102.476
11
114.879
21
-102.476
0
LINE
8
BLACK
6
CONTINUOUS
10
114.879
20
-102.476
11
115.084
21
-102.518
0
LINE
8
BLACK
6
CONTINUOUS
10
115.084
20
-102.518
11
115.087
21
-102.519
0
LINE
8
BLACK
6
CONTINUOUS
10
115.087
20
-102.519
11
115.09
21
-102.519
0
LINE
8
BLACK
6
CONTINUOUS
10
115.09
20
-102.519
11
115.291
21
-102.573
0
LINE
8
BLACK
6
CONTINUOUS
10
115.291
20
-102.573
11
115.303
21
-102.581
0
LINE
8
BLACK
6
CONTINUOUS
10
115.303
20
-102.581
11
115.316
21
-102.583
0
LINE
8
BLACK
6
CONTINUOUS
10
115.316
20
-102.583
11
129.609
21
-110.844
0
LINE
8
BLACK
6
CONTINUOUS
10
129.609
20
-110.844
11
129.787
21
-110.945
0
LINE
8
BLACK
6
CONTINUOUS
10
129.787
20
-110.945
11
129.965
21
-111.014
0
LINE
8
BLACK
6
CONTINUOUS
10
129.965
20
-111.014
11
130.149
21
-111.054
0
LINE
8
BLACK
6
CONTINUOUS
10
130.149
20
-111.054
11
130.334
21
-111.068
0
LINE
8
BLACK
6
CONTINUOUS
10
130.334
20
-111.068
11
130.581
21
-111.044
0
LINE
8
BLACK
6
CONTINUOUS
10
130.581
20
-111.044
11
130.818
21
-110.973
0
LINE
8
BLACK
6
CONTINUOUS
10
130.818
20
-110.973
11
130.985
21
-110.892
0
LINE
8
BLACK
6
CONTINUOUS
10
130.985
20
-110.892
11
131.14
21
-110.785
0
LINE
8
BLACK
6
CONTINUOUS
10
131.14
20
-110.785
11
131.28
21
-110.654
0
LINE
8
BLACK
6
CONTINUOUS
10
131.28
20
-110.654
11
131.403
21
-110.498
0
LINE
8
BLACK
6
CONTINUOUS
10
131.403
20
-110.498
11
144.626
21
-87.5719
0
LINE
8
BLACK
6
CONTINUOUS
10
144.626
20
-87.5719
11
144.664
21
-87.3865
0
LINE
8
BLACK
6
CONTINUOUS
10
144.664
20
-87.3865
11
144.676
21
-87.1761
0
LINE
8
BLACK
6
CONTINUOUS
10
144.676
20
-87.1761
11
144.657
21
-86.9662
0
LINE
8
BLACK
6
CONTINUOUS
10
144.657
20
-86.9662
11
144.607
21
-86.7613
0
LINE
8
BLACK
6
CONTINUOUS
10
144.607
20
-86.7613
11
144.528
21
-86.5659
0
LINE
8
BLACK
6
CONTINUOUS
10
144.528
20
-86.5659
11
144.422
21
-86.3841
0
LINE
8
BLACK
6
CONTINUOUS
10
144.422
20
-86.3841
11
144.289
21
-86.22
0
LINE
8
BLACK
6
CONTINUOUS
10
144.289
20
-86.22
11
144.135
21
-86.0769
0
LINE
8
BLACK
6
CONTINUOUS
10
144.135
20
-86.0769
11
143.969
21
-85.9635
0
LINE
8
BLACK
6
CONTINUOUS
10
143.969
20
-85.9635
11
143.959
21
-85.9614
0
LINE
8
BLACK
6
CONTINUOUS
10
143.959
20
-85.9614
11
125.137
21
-75.0922
0
LINE
8
BLACK
6
CONTINUOUS
10
125.137
20
-75.0922
11
125.135
21
-75.0897
0
LINE
8
BLACK
6
CONTINUOUS
10
125.135
20
-75.0897
11
125.132
21
-75.0887
0
LINE
8
BLACK
6
CONTINUOUS
10
125.132
20
-75.0887
11
125.132
21
-75.0887
0
LINE
8
BLACK
6
CONTINUOUS
10
125.132
20
-75.0887
11
124.905
21
-74.917
0
LINE
8
BLACK
6
CONTINUOUS
10
124.905
20
-74.917
11
124.701
21
-74.7193
0
LINE
8
BLACK
6
CONTINUOUS
10
124.701
20
-74.7193
11
124.522
21
-74.4985
0
LINE
8
BLACK
6
CONTINUOUS
10
124.522
20
-74.4985
11
124.37
21
-74.2578
0
LINE
8
BLACK
6
CONTINUOUS
10
124.37
20
-74.2578
11
124.249
21
-74.0007
0
LINE
8
BLACK
6
CONTINUOUS
10
124.249
20
-74.0007
11
124.159
21
-73.7308
0
LINE
8
BLACK
6
CONTINUOUS
10
124.159
20
-73.7308
11
124.102
21
-73.4522
0
LINE
8
BLACK
6
CONTINUOUS
10
124.102
20
-73.4522
11
124.08
21
-73.1687
0
LINE
8
BLACK
6
CONTINUOUS
10
124.08
20
-73.1687
11
124.09
21
-72.8948
0
LINE
8
BLACK
6
CONTINUOUS
10
124.09
20
-72.8948
11
124.09
21
-72.8945
0
LINE
8
BLACK
6
CONTINUOUS
10
124.09
20
-72.8945
11
124.09
21
-7.2898
0
LINE
8
BLACK
6
CONTINUOUS
10
124.09
20
-7.2898
11
124.093
21
-7.28005
0
LINE
8
BLACK
6
CONTINUOUS
10
124.093
20
-7.28005
11
124.09
21
-7.27036
0
LINE
8
BLACK
6
CONTINUOUS
10
124.09
20
-7.27036
11
124.088
21
-6.02144
0
LINE
8
BLACK
6
CONTINUOUS
10
124.088
20
-6.02144
11
124.048
21
-5.84751
0
LINE
8
BLACK
6
CONTINUOUS
10
124.048
20
-5.84751
11
123.943
21
-5.71344
0
LINE
8
BLACK
6
CONTINUOUS
10
123.943
20
-5.71344
11
123.786
21
-5.63292
0
LINE
8
BLACK
6
CONTINUOUS
10
123.786
20
-5.63292
11
123.678
21
-5.61933
0
LINE
8
BLACK
6
CONTINUOUS
10
123.678
20
-5.61933
11
123.675
21
-5.61809
0
LINE
8
BLACK
6
CONTINUOUS
10
123.675
20
-5.61809
11
105.689
21
-5.61809
0
LINE
8
BLACK
6
CONTINUOUS
10
105.689
20
-5.61809
11
105.687
21
-5.61753
0
LINE
8
BLACK
6
CONTINUOUS
10
105.687
20
-5.61753
11
105.678
21
-5.61934
0
LINE
8
BLACK
6
CONTINUOUS
10
105.678
20
-5.61934
11
105.553
21
-5.60363
0
LINE
8
BLACK
6
CONTINUOUS
10
105.553
20
-5.60363
11
105.537
21
-5.59623
0
LINE
8
BLACK
6
CONTINUOUS
10
105.537
20
-5.59623
11
105.52
21
-5.59351
0
LINE
8
BLACK
6
CONTINUOUS
10
105.52
20
-5.59351
11
105.327
21
-5.49513
0
LINE
8
BLACK
6
CONTINUOUS
10
105.327
20
-5.49513
11
105.312
21
-5.47983
0
LINE
8
BLACK
6
CONTINUOUS
10
105.312
20
-5.47983
11
105.294
21
-5.46777
0
LINE
8
BLACK
6
CONTINUOUS
10
105.294
20
-5.46777
11
105.161
21
-5.29875
0
LINE
8
BLACK
6
CONTINUOUS
10
105.161
20
-5.29875
11
105.153
21
-5.2781
0
LINE
8
BLACK
6
CONTINUOUS
10
105.153
20
-5.2781
11
105.142
21
-5.25921
0
LINE
8
BLACK
6
CONTINUOUS
10
105.142
20
-5.25921
11
105.093
21
-5.04245
0
LINE
8
BLACK
6
CONTINUOUS
10
105.093
20
-5.04245
11
105.094
21
-5.03278
0
LINE
8
BLACK
6
CONTINUOUS
10
105.094
20
-5.03278
11
105.089
21
-5.01771
0
LINE
8
BLACK
6
CONTINUOUS
10
105.089
20
-5.01771
11
105.089
21
-3.52465
0
LINE
8
BLACK
6
CONTINUOUS
10
105.089
20
-3.52465
11
105.048
21
-3.34751
0
LINE
8
BLACK
6
CONTINUOUS
10
105.048
20
-3.34751
11
104.943
21
-3.21351
0
LINE
8
BLACK
6
CONTINUOUS
10
104.943
20
-3.21351
11
104.786
21
-3.13304
0
LINE
8
BLACK
6
CONTINUOUS
10
104.786
20
-3.13304
11
104.678
21
-3.11946
0
LINE
8
BLACK
6
CONTINUOUS
10
104.678
20
-3.11946
11
104.676
21
-3.11873
0
LINE
8
BLACK
6
CONTINUOUS
10
104.676
20
-3.11873
11
98.5675
21
-3.11873
0
LINE
8
BLACK
6
CONTINUOUS
10
98.5675
20
-3.11873
11
86.6905
21
-3.12025
0
LINE
8
BLACK
6
CONTINUOUS
10
86.6905
20
-3.12025
11
86.6843
21
-3.11822
0
LINE
8
BLACK
6
CONTINUOUS
10
86.6843
20
-3.11822
11
86.6778
21
-3.11946
0
LINE
8
BLACK
6
CONTINUOUS
10
86.6778
20
-3.11946
11
86.5528
21
-3.10369
0
LINE
8
BLACK
6
CONTINUOUS
10
86.5528
20
-3.10369
11
86.5371
21
-3.09629
0
LINE
8
BLACK
6
CONTINUOUS
10
86.5371
20
-3.09629
11
86.5199
21
-3.09356
0
LINE
8
BLACK
6
CONTINUOUS
10
86.5199
20
-3.09356
11
86.3268
21
-2.99507
0
LINE
8
BLACK
6
CONTINUOUS
10
86.3268
20
-2.99507
11
86.3115
21
-2.97977
0
LINE
8
BLACK
6
CONTINUOUS
10
86.3115
20
-2.97977
11
86.2936
21
-2.96771
0
LINE
8
BLACK
6
CONTINUOUS
10
86.2936
20
-2.96771
11
86.161
21
-2.79862
0
LINE
8
BLACK
6
CONTINUOUS
10
86.161
20
-2.79862
11
86.1534
21
-2.77796
0
LINE
8
BLACK
6
CONTINUOUS
10
86.1534
20
-2.77796
11
86.1421
21
-2.75906
0
LINE
8
BLACK
6
CONTINUOUS
10
86.1421
20
-2.75906
11
86.0929
21
-2.54228
0
LINE
8
BLACK
6
CONTINUOUS
10
86.0929
20
-2.54228
11
86.0939
21
-2.5314
0
LINE
8
BLACK
6
CONTINUOUS
10
86.0939
20
-2.5314
11
86.0896
21
-2.51835
0
LINE
8
BLACK
6
CONTINUOUS
10
86.0896
20
-2.51835
11
86.0896
21
-1.27805
0
LINE
8
BLACK
6
CONTINUOUS
10
86.0896
20
-1.27805
11
86.0486
21
-1.09746
0
LINE
8
BLACK
6
CONTINUOUS
10
86.0486
20
-1.09746
11
85.9435
21
-0.963386
0
LINE
8
BLACK
6
CONTINUOUS
10
85.9435
20
-0.963386
11
85.7856
21
-0.882864
0
LINE
8
BLACK
6
CONTINUOUS
10
85.7856
20
-0.882864
11
85.678
21
-0.869281
0
LINE
8
BLACK
6
CONTINUOUS
10
85.678
20
-0.869281
11
85.6759
21
-0.868292
0
LINE
8
BLACK
6
CONTINUOUS
10
85.6759
20
-0.868292
11
68.7094
21
-0.868292
0
LINE
8
BLACK
6
CONTINUOUS
10
68.7094
20
-0.868292
11
68.5177
21
-0.911947
0
LINE
8
BLACK
6
CONTINUOUS
10
68.5177
20
-0.911947
11
68.3836
21
-1.01716
0
LINE
8
BLACK
6
CONTINUOUS
10
68.3836
20
-1.01716
11
68.3032
21
-1.17505
0
LINE
8
BLACK
6
CONTINUOUS
10
68.3032
20
-1.17505
11
68.2904
21
-1.27652
0
LINE
8
BLACK
6
CONTINUOUS
10
68.2904
20
-1.27652
11
68.2887
21
-2.51849
0
LINE
8
BLACK
6
CONTINUOUS
10
68.2887
20
-2.51849
11
68.2876
21
-2.5219
0
LINE
8
BLACK
6
CONTINUOUS
10
68.2876
20
-2.5219
11
68.2897
21
-2.5329
0
LINE
8
BLACK
6
CONTINUOUS
10
68.2897
20
-2.5329
11
68.2739
21
-2.65786
0
LINE
8
BLACK
6
CONTINUOUS
10
68.2739
20
-2.65786
11
68.2665
21
-2.67359
0
LINE
8
BLACK
6
CONTINUOUS
10
68.2665
20
-2.67359
11
68.2638
21
-2.69077
0
LINE
8
BLACK
6
CONTINUOUS
10
68.2638
20
-2.69077
11
68.1653
21
-2.88383
0
LINE
8
BLACK
6
CONTINUOUS
10
68.1653
20
-2.88383
11
68.15
21
-2.89912
0
LINE
8
BLACK
6
CONTINUOUS
10
68.15
20
-2.89912
11
68.1379
21
-2.91708
0
LINE
8
BLACK
6
CONTINUOUS
10
68.1379
20
-2.91708
11
67.9688
21
-3.04969
0
LINE
8
BLACK
6
CONTINUOUS
10
67.9688
20
-3.04969
11
67.9482
21
-3.05725
0
LINE
8
BLACK
6
CONTINUOUS
10
67.9482
20
-3.05725
11
67.9293
21
-3.06852
0
LINE
8
BLACK
6
CONTINUOUS
10
67.9293
20
-3.06852
11
67.7125
21
-3.11777
0
LINE
8
BLACK
6
CONTINUOUS
10
67.7125
20
-3.11777
11
67.7012
21
-3.11674
0
LINE
8
BLACK
6
CONTINUOUS
10
67.7012
20
-3.11674
11
67.6903
21
-3.12025
0
LINE
8
BLACK
6
CONTINUOUS
10
67.6903
20
-3.12025
11
49.7016
21
-3.12025
0
LINE
8
BLACK
6
CONTINUOUS
10
49.7016
20
-3.12025
11
49.5178
21
-3.1621
0
LINE
8
BLACK
6
CONTINUOUS
10
49.5178
20
-3.1621
11
49.3838
21
-3.26726
0
LINE
8
BLACK
6
CONTINUOUS
10
49.3838
20
-3.26726
11
49.3033
21
-3.42507
0
LINE
8
BLACK
6
CONTINUOUS
10
49.3033
20
-3.42507
11
49.2897
21
-3.53264
0
LINE
8
BLACK
6
CONTINUOUS
10
49.2897
20
-3.53264
11
49.2895
21
-3.53312
0
LINE
8
BLACK
6
CONTINUOUS
10
49.2895
20
-3.53312
11
49.2895
21
-7.26814
0
LINE
8
BLACK
6
CONTINUOUS
10
49.2895
20
-7.26814
11
49.2879
21
-7.27319
0
LINE
8
BLACK
6
CONTINUOUS
10
49.2879
20
-7.27319
11
49.2897
21
-7.28295
0
LINE
8
BLACK
6
CONTINUOUS
10
49.2897
20
-7.28295
11
49.274
21
-7.4079
0
LINE
8
BLACK
6
CONTINUOUS
10
49.274
20
-7.4079
11
49.2665
21
-7.42364
0
LINE
8
BLACK
6
CONTINUOUS
10
49.2665
20
-7.42364
11
49.2638
21
-7.44082
0
LINE
8
BLACK
6
CONTINUOUS
10
49.2638
20
-7.44082
11
49.1653
21
-7.63388
0
LINE
8
BLACK
6
CONTINUOUS
10
49.1653
20
-7.63388
11
49.15
21
-7.64917
0
LINE
8
BLACK
6
CONTINUOUS
10
49.15
20
-7.64917
11
49.138
21
-7.66713
0
LINE
8
BLACK
6
CONTINUOUS
10
49.138
20
-7.66713
11
48.9689
21
-7.79974
0
LINE
8
BLACK
6
CONTINUOUS
10
48.9689
20
-7.79974
11
48.9482
21
-7.8073
0
LINE
8
BLACK
6
CONTINUOUS
10
48.9482
20
-7.8073
11
48.9293
21
-7.81856
0
LINE
8
BLACK
6
CONTINUOUS
10
48.9293
20
-7.81856
11
48.7125
21
-7.86782
0
LINE
8
BLACK
6
CONTINUOUS
10
48.7125
20
-7.86782
11
48.696
21
-7.86631
0
LINE
8
BLACK
6
CONTINUOUS
10
48.696
20
-7.86631
11
48.6891
21
-7.86852
0
LINE
8
BLACK
6
CONTINUOUS
10
48.6891
20
-7.86852
11
11.7017
21
-7.8703
0
LINE
8
BLACK
6
CONTINUOUS
10
11.7017
20
-7.8703
11
11.5178
21
-7.91209
0
LINE
8
BLACK
6
CONTINUOUS
10
11.5178
20
-7.91209
11
11.3837
21
-8.01724
0
LINE
8
BLACK
6
CONTINUOUS
10
11.3837
20
-8.01724
11
11.3032
21
-8.17508
0
LINE
8
BLACK
6
CONTINUOUS
10
11.3032
20
-8.17508
11
11.2896
21
-8.28269
0
LINE
8
BLACK
6
CONTINUOUS
10
11.2896
20
-8.28269
11
11.2633
21
-8.33862
0
LINE
8
BLACK
6
CONTINUOUS
10
11.2633
20
-8.33862
11
11.2091
21
-8.3684
0
LINE
8
BLACK
6
CONTINUOUS
10
11.2091
20
-8.3684
11
11.1478
21
-8.36066
0
LINE
8
BLACK
6
CONTINUOUS
10
11.1478
20
-8.36066
11
11.1027
21
-8.31835
0
LINE
8
BLACK
6
CONTINUOUS
10
11.1027
20
-8.31835
11
11.0912
21
-8.25765
0
LINE
8
BLACK
6
CONTINUOUS
10
11.0912
20
-8.25765
11
11.1069
21
-8.13269
0
LINE
8
BLACK
6
CONTINUOUS
10
11.1069
20
-8.13269
11
11.1143
21
-8.11695
0
LINE
8
BLACK
6
CONTINUOUS
10
11.1143
20
-8.11695
11
11.1171
21
-8.09978
0
LINE
8
BLACK
6
CONTINUOUS
10
11.1171
20
-8.09978
11
11.2155
21
-7.90671
0
LINE
8
BLACK
6
CONTINUOUS
10
11.2155
20
-7.90671
11
11.2309
21
-7.89142
0
LINE
8
BLACK
6
CONTINUOUS
10
11.2309
20
-7.89142
11
11.2429
21
-7.87346
0
LINE
8
BLACK
6
CONTINUOUS
10
11.2429
20
-7.87346
11
11.412
21
-7.74086
0
LINE
8
BLACK
6
CONTINUOUS
10
11.412
20
-7.74086
11
11.4327
21
-7.7333
0
LINE
8
BLACK
6
CONTINUOUS
10
11.4327
20
-7.7333
11
11.4516
21
-7.72203
0
LINE
8
BLACK
6
CONTINUOUS
10
11.4516
20
-7.72203
11
11.6683
21
-7.67279
0
LINE
8
BLACK
6
CONTINUOUS
10
11.6683
20
-7.67279
11
11.6797
21
-7.67382
0
LINE
8
BLACK
6
CONTINUOUS
10
11.6797
20
-7.67382
11
11.6905
21
-7.6703
0
LINE
8
BLACK
6
CONTINUOUS
10
11.6905
20
-7.6703
11
48.687
21
-7.66852
0
LINE
8
BLACK
6
CONTINUOUS
10
48.687
20
-7.66852
11
48.8631
21
-7.62851
0
LINE
8
BLACK
6
CONTINUOUS
10
48.8631
20
-7.62851
11
48.9972
21
-7.52336
0
LINE
8
BLACK
6
CONTINUOUS
10
48.9972
20
-7.52336
11
49.0777
21
-7.36551
0
LINE
8
BLACK
6
CONTINUOUS
10
49.0777
20
-7.36551
11
49.0899
21
-7.26927
0
LINE
8
BLACK
6
CONTINUOUS
10
49.0899
20
-7.26927
11
49.0895
21
-7.26814
0
LINE
8
BLACK
6
CONTINUOUS
10
49.0895
20
-7.26814
11
49.0895
21
-3.51911
0
LINE
8
BLACK
6
CONTINUOUS
10
49.0895
20
-3.51911
11
49.092
21
-3.51136
0
LINE
8
BLACK
6
CONTINUOUS
10
49.092
20
-3.51136
11
49.0913
21
-3.50761
0
LINE
8
BLACK
6
CONTINUOUS
10
49.0913
20
-3.50761
11
49.1071
21
-3.38269
0
LINE
8
BLACK
6
CONTINUOUS
10
49.1071
20
-3.38269
11
49.1145
21
-3.36696
0
LINE
8
BLACK
6
CONTINUOUS
10
49.1145
20
-3.36696
11
49.1172
21
-3.34979
0
LINE
8
BLACK
6
CONTINUOUS
10
49.1172
20
-3.34979
11
49.2156
21
-3.15677
0
LINE
8
BLACK
6
CONTINUOUS
10
49.2156
20
-3.15677
11
49.2309
21
-3.14148
0
LINE
8
BLACK
6
CONTINUOUS
10
49.2309
20
-3.14148
11
49.243
21
-3.12352
0
LINE
8
BLACK
6
CONTINUOUS
10
49.243
20
-3.12352
11
49.412
21
-2.99091
0
LINE
8
BLACK
6
CONTINUOUS
10
49.412
20
-2.99091
11
49.4326
21
-2.98334
0
LINE
8
BLACK
6
CONTINUOUS
10
49.4326
20
-2.98334
11
49.4515
21
-2.97207
0
LINE
8
BLACK
6
CONTINUOUS
10
49.4515
20
-2.97207
11
49.6682
21
-2.92275
0
LINE
8
BLACK
6
CONTINUOUS
10
49.6682
20
-2.92275
11
49.6795
21
-2.92377
0
LINE
8
BLACK
6
CONTINUOUS
10
49.6795
20
-2.92377
11
49.6904
21
-2.92025
0
LINE
8
BLACK
6
CONTINUOUS
10
49.6904
20
-2.92025
11
67.6791
21
-2.92025
0
LINE
8
BLACK
6
CONTINUOUS
10
67.6791
20
-2.92025
11
67.8631
21
-2.87846
0
LINE
8
BLACK
6
CONTINUOUS
10
67.8631
20
-2.87846
11
67.9971
21
-2.77331
0
LINE
8
BLACK
6
CONTINUOUS
10
67.9971
20
-2.77331
11
68.0777
21
-2.61547
0
LINE
8
BLACK
6
CONTINUOUS
10
68.0777
20
-2.61547
11
68.0896
21
-2.521
0
LINE
8
BLACK
6
CONTINUOUS
10
68.0896
20
-2.521
11
68.0887
21
-2.51821
0
LINE
8
BLACK
6
CONTINUOUS
10
68.0887
20
-2.51821
11
68.0905
21
-1.27005
0
LINE
8
BLACK
6
CONTINUOUS
10
68.0905
20
-1.27005
11
68.0924
21
-1.26398
0
LINE
8
BLACK
6
CONTINUOUS
10
68.0924
20
-1.26398
11
68.0912
21
-1.25772
0
LINE
8
BLACK
6
CONTINUOUS
10
68.0912
20
-1.25772
11
68.1069
21
-1.13275
0
LINE
8
BLACK
6
CONTINUOUS
10
68.1069
20
-1.13275
11
68.1143
21
-1.11701
0
LINE
8
BLACK
6
CONTINUOUS
10
68.1143
20
-1.11701
11
68.1171
21
-1.09983
0
LINE
8
BLACK
6
CONTINUOUS
10
68.1171
20
-1.09983
11
68.2154
21
-0.906721
0
LINE
8
BLACK
6
CONTINUOUS
10
68.2154
20
-0.906721
11
68.2307
21
-0.891422
0
LINE
8
BLACK
6
CONTINUOUS
10
68.2307
20
-0.891422
11
68.2428
21
-0.873459
0
LINE
8
BLACK
6
CONTINUOUS
10
68.2428
20
-0.873459
11
68.4118
21
-0.74077
0
LINE
8
BLACK
6
CONTINUOUS
10
68.4118
20
-0.74077
11
68.4325
21
-0.733197
0
LINE
8
BLACK
6
CONTINUOUS
10
68.4325
20
-0.733197
11
68.4514
21
-0.721923
0
LINE
8
BLACK
6
CONTINUOUS
10
68.4514
20
-0.721923
11
68.6681
21
-0.672564
0
LINE
8
BLACK
6
CONTINUOUS
10
68.6681
20
-0.672564
11
68.6742
21
-0.673115
0
LINE
8
BLACK
6
CONTINUOUS
10
68.6742
20
-0.673115
11
68.6891
21
-0.668292
0
LINE
8
BLACK
6
CONTINUOUS
10
68.6891
20
-0.668292
11
85.6893
21
-0.668292
0
LINE
8
BLACK
6
CONTINUOUS
10
85.6893
20
-0.668292
11
85.6993
21
-0.671565
0
LINE
8
BLACK
6
CONTINUOUS
10
85.6993
20
-0.671565
11
85.7031
21
-0.670855
0
LINE
8
BLACK
6
CONTINUOUS
10
85.7031
20
-0.670855
11
85.828
21
-0.686627
0
LINE
8
BLACK
6
CONTINUOUS
10
85.828
20
-0.686627
11
85.8437
21
-0.694031
0
LINE
8
BLACK
6
CONTINUOUS
10
85.8437
20
-0.694031
11
85.8609
21
-0.69676
0
LINE
8
BLACK
6
CONTINUOUS
10
85.8609
20
-0.69676
11
86.054
21
-0.795244
0
LINE
8
BLACK
6
CONTINUOUS
10
86.054
20
-0.795244
11
86.0693
21
-0.81055
0
LINE
8
BLACK
6
CONTINUOUS
10
86.0693
20
-0.81055
11
86.0872
21
-0.822614
0
LINE
8
BLACK
6
CONTINUOUS
10
86.0872
20
-0.822614
11
86.2198
21
-0.991701
0
LINE
8
BLACK
6
CONTINUOUS
10
86.2198
20
-0.991701
11
86.2274
21
-1.01236
0
LINE
8
BLACK
6
CONTINUOUS
10
86.2274
20
-1.01236
11
86.2387
21
-1.03126
0
LINE
8
BLACK
6
CONTINUOUS
10
86.2387
20
-1.03126
11
86.2879
21
-1.24804
0
LINE
8
BLACK
6
CONTINUOUS
10
86.2879
20
-1.24804
11
86.2868
21
-1.26002
0
LINE
8
BLACK
6
CONTINUOUS
10
86.2868
20
-1.26002
11
86.2896
21
-1.26867
0
LINE
8
BLACK
6
CONTINUOUS
10
86.2896
20
-1.26867
11
86.2896
21
-2.50555
0
LINE
8
BLACK
6
CONTINUOUS
10
86.2896
20
-2.50555
11
86.3322
21
-2.69286
0
LINE
8
BLACK
6
CONTINUOUS
10
86.3322
20
-2.69286
11
86.4373
21
-2.82693
0
LINE
8
BLACK
6
CONTINUOUS
10
86.4373
20
-2.82693
11
86.5952
21
-2.90745
0
LINE
8
BLACK
6
CONTINUOUS
10
86.5952
20
-2.90745
11
86.6966
21
-2.92025
0
LINE
8
BLACK
6
CONTINUOUS
10
86.6966
20
-2.92025
11
98.5675
21
-2.91873
0
LINE
8
BLACK
6
CONTINUOUS
10
98.5675
20
-2.91873
11
98.5675
21
-2.91873
0
LINE
8
BLACK
6
CONTINUOUS
10
98.5675
20
-2.91873
11
98.5675
21
-2.91873
0
LINE
8
BLACK
6
CONTINUOUS
10
98.5675
20
-2.91873
11
104.688
21
-2.91873
0
LINE
8
BLACK
6
CONTINUOUS
10
104.688
20
-2.91873
11
104.698
21
-2.92193
0
LINE
8
BLACK
6
CONTINUOUS
10
104.698
20
-2.92193
11
104.703
21
-2.92104
0
LINE
8
BLACK
6
CONTINUOUS
10
104.703
20
-2.92104
11
104.828
21
-2.9368
0
LINE
8
BLACK
6
CONTINUOUS
10
104.828
20
-2.9368
11
104.844
21
-2.9442
0
LINE
8
BLACK
6
CONTINUOUS
10
104.844
20
-2.9442
11
104.861
21
-2.94693
0
LINE
8
BLACK
6
CONTINUOUS
10
104.861
20
-2.94693
11
105.054
21
-3.04535
0
LINE
8
BLACK
6
CONTINUOUS
10
105.054
20
-3.04535
11
105.069
21
-3.06065
0
LINE
8
BLACK
6
CONTINUOUS
10
105.069
20
-3.06065
11
105.087
21
-3.0727
0
LINE
8
BLACK
6
CONTINUOUS
10
105.087
20
-3.0727
11
105.22
21
-3.2417
0
LINE
8
BLACK
6
CONTINUOUS
10
105.22
20
-3.2417
11
105.227
21
-3.26235
0
LINE
8
BLACK
6
CONTINUOUS
10
105.227
20
-3.26235
11
105.239
21
-3.28124
0
LINE
8
BLACK
6
CONTINUOUS
10
105.239
20
-3.28124
11
105.288
21
-3.49793
0
LINE
8
BLACK
6
CONTINUOUS
10
105.288
20
-3.49793
11
105.287
21
-3.51217
0
LINE
8
BLACK
6
CONTINUOUS
10
105.287
20
-3.51217
11
105.289
21
-3.51911
0
LINE
8
BLACK
6
CONTINUOUS
10
105.289
20
-3.51911
11
105.289
21
-5.0023
0
LINE
8
BLACK
6
CONTINUOUS
10
105.289
20
-5.0023
11
105.332
21
-5.19291
0
LINE
8
BLACK
6
CONTINUOUS
10
105.332
20
-5.19291
11
105.437
21
-5.32693
0
LINE
8
BLACK
6
CONTINUOUS
10
105.437
20
-5.32693
11
105.595
21
-5.40737
0
LINE
8
BLACK
6
CONTINUOUS
10
105.595
20
-5.40737
11
105.687
21
-5.41887
0
LINE
8
BLACK
6
CONTINUOUS
10
105.687
20
-5.41887
11
105.689
21
-5.41809
0
LINE
8
BLACK
6
CONTINUOUS
10
105.689
20
-5.41809
11
123.69
21
-5.41809
0
LINE
8
BLACK
6
CONTINUOUS
10
123.69
20
-5.41809
11
123.7
21
-5.4214
0
LINE
8
BLACK
6
CONTINUOUS
10
123.7
20
-5.4214
11
123.703
21
-5.42091
0
LINE
8
BLACK
6
CONTINUOUS
10
123.703
20
-5.42091
11
123.828
21
-5.43668
0
LINE
8
BLACK
6
CONTINUOUS
10
123.828
20
-5.43668
11
123.844
21
-5.44409
0
LINE
8
BLACK
6
CONTINUOUS
10
123.844
20
-5.44409
11
123.861
21
-5.44682
0
LINE
8
BLACK
6
CONTINUOUS
10
123.861
20
-5.44682
11
124.054
21
-5.5453
0
LINE
8
BLACK
6
CONTINUOUS
10
124.054
20
-5.5453
11
124.069
21
-5.5606
0
LINE
8
BLACK
6
CONTINUOUS
10
124.069
20
-5.5606
11
124.087
21
-5.57267
0
LINE
8
BLACK
6
CONTINUOUS
10
124.087
20
-5.57267
11
124.22
21
-5.74175
0
LINE
8
BLACK
6
CONTINUOUS
10
124.22
20
-5.74175
11
124.227
21
-5.76241
0
LINE
8
BLACK
6
CONTINUOUS
10
124.227
20
-5.76241
11
124.239
21
-5.78131
0
LINE
8
BLACK
6
CONTINUOUS
10
124.239
20
-5.78131
11
124.288
21
-5.99809
0
LINE
8
BLACK
6
CONTINUOUS
10
124.288
20
-5.99809
11
124.286
21
-6.0134
0
LINE
8
BLACK
6
CONTINUOUS
10
124.286
20
-6.0134
11
124.288
21
-6.01828
0
LINE
8
BLACK
6
CONTINUOUS
10
124.288
20
-6.01828
11
124.29
21
-7.27
0
LINE
8
BLACK
6
CONTINUOUS
10
124.29
20
-7.27
11
124.287
21
-7.27993
0
LINE
8
BLACK
6
CONTINUOUS
10
124.287
20
-7.27993
11
124.29
21
-7.2898
0
LINE
8
BLACK
6
CONTINUOUS
10
124.29
20
-7.2898
11
124.29
21
-72.8945
0
LINE
8
BLACK
6
CONTINUOUS
10
124.29
20
-72.8945
11
124.289
21
-72.8995
0
LINE
8
BLACK
6
CONTINUOUS
10
124.289
20
-72.8995
11
124.29
21
-72.9045
0
LINE
8
BLACK
6
CONTINUOUS
10
124.29
20
-72.9045
11
124.285
21
-72.9144
0
LINE
8
BLACK
6
CONTINUOUS
10
124.285
20
-72.9144
11
124.276
21
-73.1647
0
LINE
8
BLACK
6
CONTINUOUS
10
124.276
20
-73.1647
11
124.297
21
-73.4247
0
LINE
8
BLACK
6
CONTINUOUS
10
124.297
20
-73.4247
11
124.349
21
-73.6802
0
LINE
8
BLACK
6
CONTINUOUS
10
124.349
20
-73.6802
11
124.431
21
-73.9277
0
LINE
8
BLACK
6
CONTINUOUS
10
124.431
20
-73.9277
11
124.542
21
-74.1635
0
LINE
8
BLACK
6
CONTINUOUS
10
124.542
20
-74.1635
11
124.681
21
-74.3843
0
LINE
8
BLACK
6
CONTINUOUS
10
124.681
20
-74.3843
11
124.845
21
-74.5868
0
LINE
8
BLACK
6
CONTINUOUS
10
124.845
20
-74.5868
11
125.033
21
-74.7681
0
LINE
8
BLACK
6
CONTINUOUS
10
125.033
20
-74.7681
11
125.23
21
-74.9173
0
LINE
8
BLACK
6
CONTINUOUS
10
125.23
20
-74.9173
11
125.238
21
-74.919
0
LINE
8
BLACK
6
CONTINUOUS
10
125.238
20
-74.919
11
144.059
21
-85.7882
0
LINE
8
BLACK
6
CONTINUOUS
10
144.059
20
-85.7882
11
144.059
21
-85.7883
0
LINE
8
BLACK
6
CONTINUOUS
10
144.059
20
-85.7883
11
144.059
21
-85.7883
0
LINE
8
BLACK
6
CONTINUOUS
10
144.059
20
-85.7883
11
144.257
21
-85.9235
0
LINE
8
BLACK
6
CONTINUOUS
10
144.257
20
-85.9235
11
144.433
21
-86.0861
0
LINE
8
BLACK
6
CONTINUOUS
10
144.433
20
-86.0861
11
144.583
21
-86.2727
0
LINE
8
BLACK
6
CONTINUOUS
10
144.583
20
-86.2727
11
144.704
21
-86.4792
0
LINE
8
BLACK
6
CONTINUOUS
10
144.704
20
-86.4792
11
144.794
21
-86.7014
0
LINE
8
BLACK
6
CONTINUOUS
10
144.794
20
-86.7014
11
144.85
21
-86.9342
0
LINE
8
BLACK
6
CONTINUOUS
10
144.85
20
-86.9342
11
144.872
21
-87.1728
0
LINE
8
BLACK
6
CONTINUOUS
10
144.872
20
-87.1728
11
144.858
21
-87.412
0
LINE
8
BLACK
6
CONTINUOUS
10
144.858
20
-87.412
11
144.81
21
-87.6466
0
LINE
8
BLACK
6
CONTINUOUS
10
144.81
20
-87.6466
11
144.81
21
-87.6466
0
LINE
8
BLACK
6
CONTINUOUS
10
144.81
20
-87.6466
11
144.803
21
-87.657
0
LINE
8
BLACK
6
CONTINUOUS
10
144.803
20
-87.657
11
144.8
21
-87.6692
0
LINE
8
BLACK
6
CONTINUOUS
10
144.8
20
-87.6692
11
131.574
21
-110.602
0
LINE
8
BLACK
6
CONTINUOUS
10
131.574
20
-110.602
11
131.572
21
-110.604
0
LINE
8
BLACK
6
CONTINUOUS
10
131.572
20
-110.604
11
131.571
21
-110.607
0
LINE
8
BLACK
6
CONTINUOUS
10
131.571
20
-110.607
11
131.568
21
-110.612
0
LINE
8
BLACK
6
CONTINUOUS
10
131.568
20
-110.612
11
131.564
21
-110.614
0
LINE
8
BLACK
6
CONTINUOUS
10
131.564
20
-110.614
11
131.563
21
-110.618
0
LINE
8
BLACK
6
CONTINUOUS
10
131.563
20
-110.618
11
131.432
21
-110.784
0
LINE
8
BLACK
6
CONTINUOUS
10
131.432
20
-110.784
11
131.425
21
-110.789
0
LINE
8
BLACK
6
CONTINUOUS
10
131.425
20
-110.789
11
131.422
21
-110.796
0
LINE
8
BLACK
6
CONTINUOUS
10
131.422
20
-110.796
11
131.271
21
-110.936
0
LINE
8
BLACK
6
CONTINUOUS
10
131.271
20
-110.936
11
131.264
21
-110.94
0
LINE
8
BLACK
6
CONTINUOUS
10
131.264
20
-110.94
11
131.259
21
-110.946
0
LINE
8
BLACK
6
CONTINUOUS
10
131.259
20
-110.946
11
131.092
21
-111.061
0
LINE
8
BLACK
6
CONTINUOUS
10
131.092
20
-111.061
11
131.085
21
-111.063
0
LINE
8
BLACK
6
CONTINUOUS
10
131.085
20
-111.063
11
131.079
21
-111.068
0
LINE
8
BLACK
6
CONTINUOUS
10
131.079
20
-111.068
11
130.899
21
-111.157
0
LINE
8
BLACK
6
CONTINUOUS
10
130.899
20
-111.157
11
130.89
21
-111.158
0
LINE
8
BLACK
6
CONTINUOUS
10
130.89
20
-111.158
11
130.883
21
-111.163
0
LINE
8
BLACK
6
CONTINUOUS
10
130.883
20
-111.163
11
130.628
21
-111.238
0
LINE
8
BLACK
6
CONTINUOUS
10
130.628
20
-111.238
11
130.618
21
-111.238
0
LINE
8
BLACK
6
CONTINUOUS
10
130.618
20
-111.238
11
130.609
21
-111.242
0
LINE
8
BLACK
6
CONTINUOUS
10
130.609
20
-111.242
11
130.345
21
-111.268
0
LINE
8
BLACK
6
CONTINUOUS
10
130.345
20
-111.268
11
130.336
21
-111.266
0
LINE
8
BLACK
6
CONTINUOUS
10
130.336
20
-111.266
11
130.328
21
-111.268
0
LINE
8
BLACK
6
CONTINUOUS
10
130.328
20
-111.268
11
130.127
21
-111.253
0
LINE
8
BLACK
6
CONTINUOUS
10
130.127
20
-111.253
11
130.12
21
-111.251
0
LINE
8
BLACK
6
CONTINUOUS
10
130.12
20
-111.251
11
130.113
21
-111.251
0
LINE
8
BLACK
6
CONTINUOUS
10
130.113
20
-111.251
11
129.915
21
-111.208
0
LINE
8
BLACK
6
CONTINUOUS
10
129.915
20
-111.208
11
129.908
21
-111.204
0
LINE
8
BLACK
6
CONTINUOUS
10
129.908
20
-111.204
11
129.901
21
-111.203
0
LINE
8
BLACK
6
CONTINUOUS
10
129.901
20
-111.203
11
129.708
21
-111.129
0
LINE
8
BLACK
6
CONTINUOUS
10
129.708
20
-111.129
11
129.702
21
-111.124
0
LINE
8
BLACK
6
CONTINUOUS
10
129.702
20
-111.124
11
129.694
21
-111.123
0
LINE
8
BLACK
6
CONTINUOUS
10
129.694
20
-111.123
11
129.51
21
-111.018
0
LINE
8
BLACK
6
CONTINUOUS
10
129.51
20
-111.018
11
129.51
21
-111.018
0
LINE
8
BLACK
6
CONTINUOUS
10
129.51
20
-111.018
11
129.51
21
-111.018
0
LINE
8
BLACK
6
CONTINUOUS
10
129.51
20
-111.018
11
115.227
21
-102.763
0
LINE
8
BLACK
6
CONTINUOUS
10
115.227
20
-102.763
11
115.041
21
-102.713
0
LINE
8
BLACK
6
CONTINUOUS
10
115.041
20
-102.713
11
114.842
21
-102.673
0
LINE
8
BLACK
6
CONTINUOUS
10
114.842
20
-102.673
11
114.64
21
-102.644
0
LINE
8
BLACK
6
CONTINUOUS
10
114.64
20
-102.644
11
114.601
21
-102.64
0
LINE
8
BLACK
6
CONTINUOUS
10
114.601
20
-102.64
11
114.599
21
-102.639
0
LINE
8
BLACK
6
CONTINUOUS
10
114.599
20
-102.639
11
114.598
21
-102.64
0
LINE
8
BLACK
6
CONTINUOUS
10
114.598
20
-102.64
11
77.9276
21
-97.8693
0
LINE
8
BLACK
6
CONTINUOUS
10
77.9276
20
-97.8693
11
77.925
21
-97.868
0
LINE
8
BLACK
6
CONTINUOUS
10
77.925
20
-97.868
11
77.9222
21
-97.8684
0
LINE
8
BLACK
6
CONTINUOUS
10
77.9222
20
-97.8684
11
77.7422
21
-97.8349
0
LINE
8
BLACK
6
CONTINUOUS
10
77.7422
20
-97.8349
11
77.7249
21
-97.8256
0
LINE
8
BLACK
6
CONTINUOUS
10
77.7249
20
-97.8256
11
77.706
21
-97.8205
0
LINE
8
BLACK
6
CONTINUOUS
10
77.706
20
-97.8205
11
77.5324
21
-97.7076
0
LINE
8
BLACK
6
CONTINUOUS
10
77.5324
20
-97.7076
11
77.5209
21
-97.6934
0
LINE
8
BLACK
6
CONTINUOUS
10
77.5209
20
-97.6934
11
77.5061
21
-97.6827
0
LINE
8
BLACK
6
CONTINUOUS
10
77.5061
20
-97.6827
11
66.9739
21
-83.2404
0
LINE
8
BLACK
6
CONTINUOUS
10
66.9739
20
-83.2404
11
66.8325
21
-83.1483
0
LINE
8
BLACK
6
CONTINUOUS
10
66.8325
20
-83.1483
11
66.6811
21
-83.1201
0
LINE
8
BLACK
6
CONTINUOUS
10
66.6811
20
-83.1201
11
60.5575
21
-83.1211
0
LINE
8
BLACK
6
CONTINUOUS
10
60.5575
20
-83.1211
11
60.5575
21
-83.1211
0
LINE
8
BLACK
6
CONTINUOUS
10
60.5575
20
-83.1211
11
60.5575
21
-83.1211
0
LINE
8
BLACK
6
CONTINUOUS
10
60.5575
20
-83.1211
11
22.5675
21
-83.1203
0
LINE
8
BLACK
6
CONTINUOUS
10
22.5675
20
-83.1203
11
11.6905
21
-83.1201
0
LINE
8
BLACK
6
CONTINUOUS
10
11.6905
20
-83.1201
11
11.6905
21
-83.1201
0
LINE
8
BLACK
6
CONTINUOUS
10
132.39
20
-104.769
11
120.265
21
-97.7691
0
LINE
8
BLACK
6
CONTINUOUS
10
120.265
20
-97.7691
11
120.237
21
-97.7327
0
LINE
8
BLACK
6
CONTINUOUS
10
120.237
20
-97.7327
11
120.243
21
-97.6872
0
LINE
8
BLACK
6
CONTINUOUS
10
120.243
20
-97.6872
11
127.243
21
-85.5628
0
LINE
8
BLACK
6
CONTINUOUS
10
127.243
20
-85.5628
11
127.28
21
-85.5349
0
LINE
8
BLACK
6
CONTINUOUS
10
127.28
20
-85.5349
11
127.325
21
-85.5409
0
LINE
8
BLACK
6
CONTINUOUS
10
127.325
20
-85.5409
11
139.45
21
-92.5409
0
LINE
8
BLACK
6
CONTINUOUS
10
139.45
20
-92.5409
11
139.478
21
-92.5773
0
LINE
8
BLACK
6
CONTINUOUS
10
139.478
20
-92.5773
11
139.472
21
-92.6228
0
LINE
8
BLACK
6
CONTINUOUS
10
139.472
20
-92.6228
11
132.472
21
-104.747
0
LINE
8
BLACK
6
CONTINUOUS
10
132.472
20
-104.747
11
132.435
21
-104.775
0
LINE
8
BLACK
6
CONTINUOUS
10
132.435
20
-104.775
11
132.39
21
-104.769
0
LINE
8
BLACK
6
CONTINUOUS
10
132.39
20
-104.769
11
132.39
21
-104.769
0
LINE
8
BLACK
6
CONTINUOUS
10
120.377
20
-97.6952
11
132.398
21
-104.635
0
LINE
8
BLACK
6
CONTINUOUS
10
132.398
20
-104.635
11
139.338
21
-92.6148
0
LINE
8
BLACK
6
CONTINUOUS
10
139.338
20
-92.6148
11
127.317
21
-85.6748
0
LINE
8
BLACK
6
CONTINUOUS
10
127.317
20
-85.6748
11
120.377
21
-97.6952
0
LINE
8
BLACK
6
CONTINUOUS
10
134.383
20
-99.9158
11
131.699
21
-98.3658
0
LINE
8
BLACK
6
CONTINUOUS
10
131.699
20
-98.3658
11
131.671
21
-98.3294
0
LINE
8
BLACK
6
CONTINUOUS
10
131.671
20
-98.3294
11
131.677
21
-98.2838
0
LINE
8
BLACK
6
CONTINUOUS
10
131.677
20
-98.2838
11
133.477
21
-95.1662
0
LINE
8
BLACK
6
CONTINUOUS
10
133.477
20
-95.1662
11
133.513
21
-95.1382
0
LINE
8
BLACK
6
CONTINUOUS
10
133.513
20
-95.1382
11
133.559
21
-95.1442
0
LINE
8
BLACK
6
CONTINUOUS
10
133.559
20
-95.1442
11
136.243
21
-96.6942
0
LINE
8
BLACK
6
CONTINUOUS
10
136.243
20
-96.6942
11
136.271
21
-96.7306
0
LINE
8
BLACK
6
CONTINUOUS
10
136.271
20
-96.7306
11
136.265
21
-96.7762
0
LINE
8
BLACK
6
CONTINUOUS
10
136.265
20
-96.7762
11
134.465
21
-99.8938
0
LINE
8
BLACK
6
CONTINUOUS
10
134.465
20
-99.8938
11
134.429
21
-99.9218
0
LINE
8
BLACK
6
CONTINUOUS
10
134.429
20
-99.9218
11
134.383
21
-99.9158
0
LINE
8
BLACK
6
CONTINUOUS
10
134.383
20
-99.9158
11
134.383
21
-99.9158
0
LINE
8
BLACK
6
CONTINUOUS
10
131.811
20
-98.2919
11
134.391
21
-99.7819
0
LINE
8
BLACK
6
CONTINUOUS
10
134.391
20
-99.7819
11
136.131
21
-96.7681
0
LINE
8
BLACK
6
CONTINUOUS
10
136.131
20
-96.7681
11
133.551
21
-95.2781
0
LINE
8
BLACK
6
CONTINUOUS
10
133.551
20
-95.2781
11
131.811
21
-98.2919
0
LINE
8
BLACK
6
CONTINUOUS
10
116.196
20
-86.3973
11
116.196
21
-86.3973
0
LINE
8
BLACK
6
CONTINUOUS
10
116.196
20
-86.3973
11
116.233
21
-86.4253
0
LINE
8
BLACK
6
CONTINUOUS
10
116.233
20
-86.4253
11
116.239
21
-86.4708
0
LINE
8
BLACK
6
CONTINUOUS
10
116.239
20
-86.4708
11
112.615
21
-99.9937
0
LINE
8
BLACK
6
CONTINUOUS
10
112.615
20
-99.9937
11
112.587
21
-100.03
0
LINE
8
BLACK
6
CONTINUOUS
10
112.587
20
-100.03
11
112.542
21
-100.036
0
LINE
8
BLACK
6
CONTINUOUS
10
112.542
20
-100.036
11
99.0188
21
-96.4127
0
LINE
8
BLACK
6
CONTINUOUS
10
99.0188
20
-96.4127
11
98.9823
21
-96.3847
0
LINE
8
BLACK
6
CONTINUOUS
10
98.9823
20
-96.3847
11
98.9763
21
-96.3392
0
LINE
8
BLACK
6
CONTINUOUS
10
98.9763
20
-96.3392
11
102.6
21
-82.8163
0
LINE
8
BLACK
6
CONTINUOUS
10
102.6
20
-82.8163
11
102.6
21
-82.8163
0
LINE
8
BLACK
6
CONTINUOUS
10
102.6
20
-82.8163
11
102.628
21
-82.7798
0
LINE
8
BLACK
6
CONTINUOUS
10
102.628
20
-82.7798
11
102.673
21
-82.7738
0
LINE
8
BLACK
6
CONTINUOUS
10
102.673
20
-82.7738
11
116.196
21
-86.3973
0
LINE
8
BLACK
6
CONTINUOUS
10
99.1078
20
-96.3123
11
112.515
21
-99.9047
0
LINE
8
BLACK
6
CONTINUOUS
10
112.515
20
-99.9047
11
116.107
21
-86.4977
0
LINE
8
BLACK
6
CONTINUOUS
10
116.107
20
-86.4977
11
102.7
21
-82.9053
0
LINE
8
BLACK
6
CONTINUOUS
10
102.7
20
-82.9053
11
99.1078
21
-96.3123
0
LINE
8
BLACK
6
CONTINUOUS
10
104.186
20
-97.0545
11
104.18
21
-97.0089
0
LINE
8
BLACK
6
CONTINUOUS
10
104.18
20
-97.0089
11
104.983
21
-94.0146
0
LINE
8
BLACK
6
CONTINUOUS
10
104.983
20
-94.0146
11
105.011
21
-93.9781
0
LINE
8
BLACK
6
CONTINUOUS
10
105.011
20
-93.9781
11
105.056
21
-93.9721
0
LINE
8
BLACK
6
CONTINUOUS
10
105.056
20
-93.9721
11
108.533
21
-94.9039
0
LINE
8
BLACK
6
CONTINUOUS
10
108.533
20
-94.9039
11
108.57
21
-94.9318
0
LINE
8
BLACK
6
CONTINUOUS
10
108.57
20
-94.9318
11
108.576
21
-94.9774
0
LINE
8
BLACK
6
CONTINUOUS
10
108.576
20
-94.9774
11
107.774
21
-97.9717
0
LINE
8
BLACK
6
CONTINUOUS
10
107.774
20
-97.9717
11
107.746
21
-98.0082
0
LINE
8
BLACK
6
CONTINUOUS
10
107.746
20
-98.0082
11
107.7
21
-98.0142
0
LINE
8
BLACK
6
CONTINUOUS
10
107.7
20
-98.0142
11
104.223
21
-97.0824
0
LINE
8
BLACK
6
CONTINUOUS
10
104.223
20
-97.0824
11
104.186
21
-97.0545
0
LINE
8
BLACK
6
CONTINUOUS
10
104.312
20
-96.982
11
107.673
21
-97.8827
0
LINE
8
BLACK
6
CONTINUOUS
10
107.673
20
-97.8827
11
108.444
21
-95.0043
0
LINE
8
BLACK
6
CONTINUOUS
10
108.444
20
-95.0043
11
105.083
21
-94.1036
0
LINE
8
BLACK
6
CONTINUOUS
10
105.083
20
-94.1036
11
104.312
21
-96.982
0
LINE
8
BLACK
6
CONTINUOUS
10
79.5651
20
-95.6974
11
79.5475
21
-95.655
0
LINE
8
BLACK
6
CONTINUOUS
10
79.5475
20
-95.655
11
79.5475
21
-81.655
0
LINE
8
BLACK
6
CONTINUOUS
10
79.5475
20
-81.655
11
79.5651
21
-81.6126
0
LINE
8
BLACK
6
CONTINUOUS
10
79.5651
20
-81.6126
11
79.6075
21
-81.595
0
LINE
8
BLACK
6
CONTINUOUS
10
79.6075
20
-81.595
11
93.6075
21
-81.595
0
LINE
8
BLACK
6
CONTINUOUS
10
93.6075
20
-81.595
11
93.6499
21
-81.6126
0
LINE
8
BLACK
6
CONTINUOUS
10
93.6499
20
-81.6126
11
93.6675
21
-81.655
0
LINE
8
BLACK
6
CONTINUOUS
10
93.6675
20
-81.655
11
93.6675
21
-95.655
0
LINE
8
BLACK
6
CONTINUOUS
10
93.6675
20
-95.655
11
93.6499
21
-95.6974
0
LINE
8
BLACK
6
CONTINUOUS
10
93.6499
20
-95.6974
11
93.6075
21
-95.715
0
LINE
8
BLACK
6
CONTINUOUS
10
93.6075
20
-95.715
11
79.6075
21
-95.715
0
LINE
8
BLACK
6
CONTINUOUS
10
79.6075
20
-95.715
11
79.5651
21
-95.6974
0
LINE
8
BLACK
6
CONTINUOUS
10
79.6675
20
-81.715
11
79.6675
21
-95.595
0
LINE
8
BLACK
6
CONTINUOUS
10
79.6675
20
-95.595
11
93.5475
21
-95.595
0
LINE
8
BLACK
6
CONTINUOUS
10
93.5475
20
-95.595
11
93.5475
21
-81.715
0
LINE
8
BLACK
6
CONTINUOUS
10
93.5475
20
-81.715
11
79.6675
21
-81.715
0
LINE
8
BLACK
6
CONTINUOUS
10
84.7651
20
-94.9974
11
84.7475
21
-94.955
0
LINE
8
BLACK
6
CONTINUOUS
10
84.7475
20
-94.955
11
84.7475
21
-91.855
0
LINE
8
BLACK
6
CONTINUOUS
10
84.7475
20
-91.855
11
84.7651
21
-91.8126
0
LINE
8
BLACK
6
CONTINUOUS
10
84.7651
20
-91.8126
11
84.8075
21
-91.795
0
LINE
8
BLACK
6
CONTINUOUS
10
84.8075
20
-91.795
11
88.4075
21
-91.795
0
LINE
8
BLACK
6
CONTINUOUS
10
88.4075
20
-91.795
11
88.4499
21
-91.8126
0
LINE
8
BLACK
6
CONTINUOUS
10
88.4499
20
-91.8126
11
88.4675
21
-91.855
0
LINE
8
BLACK
6
CONTINUOUS
10
88.4675
20
-91.855
11
88.4675
21
-94.955
0
LINE
8
BLACK
6
CONTINUOUS
10
88.4675
20
-94.955
11
88.4499
21
-94.9974
0
LINE
8
BLACK
6
CONTINUOUS
10
88.4499
20
-94.9974
11
88.4075
21
-95.015
0
LINE
8
BLACK
6
CONTINUOUS
10
88.4075
20
-95.015
11
84.8075
21
-95.015
0
LINE
8
BLACK
6
CONTINUOUS
10
84.8075
20
-95.015
11
84.7651
21
-94.9974
0
LINE
8
BLACK
6
CONTINUOUS
10
84.8675
20
-91.915
11
84.8675
21
-94.895
0
LINE
8
BLACK
6
CONTINUOUS
10
84.8675
20
-94.895
11
88.3475
21
-94.895
0
LINE
8
BLACK
6
CONTINUOUS
10
88.3475
20
-94.895
11
88.3475
21
-91.915
0
LINE
8
BLACK
6
CONTINUOUS
10
88.3475
20
-91.915
11
84.8675
21
-91.915
0
LINE
8
BLACK
6
CONTINUOUS
10
13.0651
20
-80.8224
11
13.0475
21
-80.78
0
LINE
8
BLACK
6
CONTINUOUS
10
13.0475
20
-80.78
11
13.0475
21
-66.78
0
LINE
8
BLACK
6
CONTINUOUS
10
13.0475
20
-66.78
11
13.0651
21
-66.7376
0
LINE
8
BLACK
6
CONTINUOUS
10
13.0651
20
-66.7376
11
13.1075
21
-66.72
0
LINE
8
BLACK
6
CONTINUOUS
10
13.1075
20
-66.72
11
27.1075
21
-66.72
0
LINE
8
BLACK
6
CONTINUOUS
10
27.1075
20
-66.72
11
27.1499
21
-66.7376
0
LINE
8
BLACK
6
CONTINUOUS
10
27.1499
20
-66.7376
11
27.1675
21
-66.78
0
LINE
8
BLACK
6
CONTINUOUS
10
27.1675
20
-66.78
11
27.1675
21
-80.78
0
LINE
8
BLACK
6
CONTINUOUS
10
27.1675
20
-80.78
11
27.1499
21
-80.8224
0
LINE
8
BLACK
6
CONTINUOUS
10
27.1499
20
-80.8224
11
27.1075
21
-80.84
0
LINE
8
BLACK
6
CONTINUOUS
10
27.1075
20
-80.84
11
13.1075
21
-80.84
0
LINE
8
BLACK
6
CONTINUOUS
10
13.1075
20
-80.84
11
13.0651
21
-80.8224
0
LINE
8
BLACK
6
CONTINUOUS
10
13.1675
20
-66.84
11
13.1675
21
-80.72
0
LINE
8
BLACK
6
CONTINUOUS
10
13.1675
20
-80.72
11
27.0475
21
-80.72
0
LINE
8
BLACK
6
CONTINUOUS
10
27.0475
20
-80.72
11
27.0475
21
-66.84
0
LINE
8
BLACK
6
CONTINUOUS
10
27.0475
20
-66.84
11
13.1675
21
-66.84
0
LINE
8
BLACK
6
CONTINUOUS
10
18.2651
20
-80.1224
11
18.2475
21
-80.08
0
LINE
8
BLACK
6
CONTINUOUS
10
18.2475
20
-80.08
11
18.2475
21
-76.98
0
LINE
8
BLACK
6
CONTINUOUS
10
18.2475
20
-76.98
11
18.2651
21
-76.9376
0
LINE
8
BLACK
6
CONTINUOUS
10
18.2651
20
-76.9376
11
18.3075
21
-76.92
0
LINE
8
BLACK
6
CONTINUOUS
10
18.3075
20
-76.92
11
21.9075
21
-76.92
0
LINE
8
BLACK
6
CONTINUOUS
10
21.9075
20
-76.92
11
21.9499
21
-76.9376
0
LINE
8
BLACK
6
CONTINUOUS
10
21.9499
20
-76.9376
11
21.9675
21
-76.98
0
LINE
8
BLACK
6
CONTINUOUS
10
21.9675
20
-76.98
11
21.9675
21
-80.08
0
LINE
8
BLACK
6
CONTINUOUS
10
21.9675
20
-80.08
11
21.9499
21
-80.1224
0
LINE
8
BLACK
6
CONTINUOUS
10
21.9499
20
-80.1224
11
21.9075
21
-80.14
0
LINE
8
BLACK
6
CONTINUOUS
10
21.9075
20
-80.14
11
18.3075
21
-80.14
0
LINE
8
BLACK
6
CONTINUOUS
10
18.3075
20
-80.14
11
18.2651
21
-80.1224
0
LINE
8
BLACK
6
CONTINUOUS
10
18.3675
20
-77.04
11
18.3675
21
-80.02
0
LINE
8
BLACK
6
CONTINUOUS
10
18.3675
20
-80.02
11
21.8475
21
-80.02
0
LINE
8
BLACK
6
CONTINUOUS
10
21.8475
20
-80.02
11
21.8475
21
-77.04
0
LINE
8
BLACK
6
CONTINUOUS
10
21.8475
20
-77.04
11
18.3675
21
-77.04
0
LINE
8
BLACK
6
CONTINUOUS
10
32.0651
20
-80.8224
11
32.0475
21
-80.78
0
LINE
8
BLACK
6
CONTINUOUS
10
32.0475
20
-80.78
11
32.0475
21
-66.78
0
LINE
8
BLACK
6
CONTINUOUS
10
32.0475
20
-66.78
11
32.0651
21
-66.7376
0
LINE
8
BLACK
6
CONTINUOUS
10
32.0651
20
-66.7376
11
32.1075
21
-66.72
0
LINE
8
BLACK
6
CONTINUOUS
10
32.1075
20
-66.72
11
46.1075
21
-66.72
0
LINE
8
BLACK
6
CONTINUOUS
10
46.1075
20
-66.72
11
46.1499
21
-66.7376
0
LINE
8
BLACK
6
CONTINUOUS
10
46.1499
20
-66.7376
11
46.1675
21
-66.78
0
LINE
8
BLACK
6
CONTINUOUS
10
46.1675
20
-66.78
11
46.1675
21
-80.78
0
LINE
8
BLACK
6
CONTINUOUS
10
46.1675
20
-80.78
11
46.1499
21
-80.8224
0
LINE
8
BLACK
6
CONTINUOUS
10
46.1499
20
-80.8224
11
46.1075
21
-80.84
0
LINE
8
BLACK
6
CONTINUOUS
10
46.1075
20
-80.84
11
32.1075
21
-80.84
0
LINE
8
BLACK
6
CONTINUOUS
10
32.1075
20
-80.84
11
32.0651
21
-80.8224
0
LINE
8
BLACK
6
CONTINUOUS
10
32.1675
20
-66.84
11
32.1675
21
-80.72
0
LINE
8
BLACK
6
CONTINUOUS
10
32.1675
20
-80.72
11
46.0475
21
-80.72
0
LINE
8
BLACK
6
CONTINUOUS
10
46.0475
20
-80.72
11
46.0475
21
-66.84
0
LINE
8
BLACK
6
CONTINUOUS
10
46.0475
20
-66.84
11
32.1675
21
-66.84
0
LINE
8
BLACK
6
CONTINUOUS
10
37.2651
20
-80.1224
11
37.2475
21
-80.08
0
LINE
8
BLACK
6
CONTINUOUS
10
37.2475
20
-80.08
11
37.2475
21
-76.98
0
LINE
8
BLACK
6
CONTINUOUS
10
37.2475
20
-76.98
11
37.2651
21
-76.9376
0
LINE
8
BLACK
6
CONTINUOUS
10
37.2651
20
-76.9376
11
37.3075
21
-76.92
0
LINE
8
BLACK
6
CONTINUOUS
10
37.3075
20
-76.92
11
40.9075
21
-76.92
0
LINE
8
BLACK
6
CONTINUOUS
10
40.9075
20
-76.92
11
40.9499
21
-76.9376
0
LINE
8
BLACK
6
CONTINUOUS
10
40.9499
20
-76.9376
11
40.9675
21
-76.98
0
LINE
8
BLACK
6
CONTINUOUS
10
40.9675
20
-76.98
11
40.9675
21
-80.08
0
LINE
8
BLACK
6
CONTINUOUS
10
40.9675
20
-80.08
11
40.9499
21
-80.1224
0
LINE
8
BLACK
6
CONTINUOUS
10
40.9499
20
-80.1224
11
40.9075
21
-80.14
0
LINE
8
BLACK
6
CONTINUOUS
10
40.9075
20
-80.14
11
37.3075
21
-80.14
0
LINE
8
BLACK
6
CONTINUOUS
10
37.3075
20
-80.14
11
37.2651
21
-80.1224
0
LINE
8
BLACK
6
CONTINUOUS
10
37.3675
20
-77.04
11
37.3675
21
-80.02
0
LINE
8
BLACK
6
CONTINUOUS
10
37.3675
20
-80.02
11
40.8475
21
-80.02
0
LINE
8
BLACK
6
CONTINUOUS
10
40.8475
20
-80.02
11
40.8475
21
-77.04
0
LINE
8
BLACK
6
CONTINUOUS
10
40.8475
20
-77.04
11
37.3675
21
-77.04
0
LINE
8
BLACK
6
CONTINUOUS
10
108.065
20
-78.4474
11
108.047
21
-78.405
0
LINE
8
BLACK
6
CONTINUOUS
10
108.047
20
-78.405
11
108.047
21
-64.405
0
LINE
8
BLACK
6
CONTINUOUS
10
108.047
20
-64.405
11
108.065
21
-64.3626
0
LINE
8
BLACK
6
CONTINUOUS
10
108.065
20
-64.3626
11
108.108
21
-64.345
0
LINE
8
BLACK
6
CONTINUOUS
10
108.108
20
-64.345
11
122.107
21
-64.345
0
LINE
8
BLACK
6
CONTINUOUS
10
122.107
20
-64.345
11
122.15
21
-64.3626
0
LINE
8
BLACK
6
CONTINUOUS
10
122.15
20
-64.3626
11
122.167
21
-64.405
0
LINE
8
BLACK
6
CONTINUOUS
10
122.167
20
-64.405
11
122.167
21
-78.405
0
LINE
8
BLACK
6
CONTINUOUS
10
122.167
20
-78.405
11
122.15
21
-78.4474
0
LINE
8
BLACK
6
CONTINUOUS
10
122.15
20
-78.4474
11
122.107
21
-78.465
0
LINE
8
BLACK
6
CONTINUOUS
10
122.107
20
-78.465
11
108.108
21
-78.465
0
LINE
8
BLACK
6
CONTINUOUS
10
108.108
20
-78.465
11
108.065
21
-78.4474
0
LINE
8
BLACK
6
CONTINUOUS
10
108.167
20
-64.465
11
108.167
21
-78.345
0
LINE
8
BLACK
6
CONTINUOUS
10
108.167
20
-78.345
11
122.047
21
-78.345
0
LINE
8
BLACK
6
CONTINUOUS
10
122.047
20
-78.345
11
122.047
21
-64.465
0
LINE
8
BLACK
6
CONTINUOUS
10
122.047
20
-64.465
11
108.167
21
-64.465
0
LINE
8
BLACK
6
CONTINUOUS
10
113.265
20
-77.7474
11
113.247
21
-77.705
0
LINE
8
BLACK
6
CONTINUOUS
10
113.247
20
-77.705
11
113.247
21
-74.605
0
LINE
8
BLACK
6
CONTINUOUS
10
113.247
20
-74.605
11
113.265
21
-74.5626
0
LINE
8
BLACK
6
CONTINUOUS
10
113.265
20
-74.5626
11
113.307
21
-74.545
0
LINE
8
BLACK
6
CONTINUOUS
10
113.307
20
-74.545
11
116.907
21
-74.545
0
LINE
8
BLACK
6
CONTINUOUS
10
116.907
20
-74.545
11
116.95
21
-74.5626
0
LINE
8
BLACK
6
CONTINUOUS
10
116.95
20
-74.5626
11
116.968
21
-74.605
0
LINE
8
BLACK
6
CONTINUOUS
10
116.968
20
-74.605
11
116.968
21
-77.705
0
LINE
8
BLACK
6
CONTINUOUS
10
116.968
20
-77.705
11
116.95
21
-77.7474
0
LINE
8
BLACK
6
CONTINUOUS
10
116.95
20
-77.7474
11
116.907
21
-77.765
0
LINE
8
BLACK
6
CONTINUOUS
10
116.907
20
-77.765
11
113.307
21
-77.765
0
LINE
8
BLACK
6
CONTINUOUS
10
113.307
20
-77.765
11
113.265
21
-77.7474
0
LINE
8
BLACK
6
CONTINUOUS
10
113.367
20
-74.665
11
113.367
21
-77.645
0
LINE
8
BLACK
6
CONTINUOUS
10
113.367
20
-77.645
11
116.847
21
-77.645
0
LINE
8
BLACK
6
CONTINUOUS
10
116.847
20
-77.645
11
116.847
21
-74.665
0
LINE
8
BLACK
6
CONTINUOUS
10
116.847
20
-74.665
11
113.367
21
-74.665
0
LINE
8
BLACK
6
CONTINUOUS
10
51.0651
20
-76.0724
11
51.0475
21
-76.03
0
LINE
8
BLACK
6
CONTINUOUS
10
51.0475
20
-76.03
11
51.0475
21
-62.03
0
LINE
8
BLACK
6
CONTINUOUS
10
51.0475
20
-62.03
11
51.0651
21
-61.9876
0
LINE
8
BLACK
6
CONTINUOUS
10
51.0651
20
-61.9876
11
51.1075
21
-61.97
0
LINE
8
BLACK
6
CONTINUOUS
10
51.1075
20
-61.97
11
65.1075
21
-61.97
0
LINE
8
BLACK
6
CONTINUOUS
10
65.1075
20
-61.97
11
65.1499
21
-61.9876
0
LINE
8
BLACK
6
CONTINUOUS
10
65.1499
20
-61.9876
11
65.1675
21
-62.03
0
LINE
8
BLACK
6
CONTINUOUS
10
65.1675
20
-62.03
11
65.1675
21
-76.03
0
LINE
8
BLACK
6
CONTINUOUS
10
65.1675
20
-76.03
11
65.1499
21
-76.0724
0
LINE
8
BLACK
6
CONTINUOUS
10
65.1499
20
-76.0724
11
65.1075
21
-76.09
0
LINE
8
BLACK
6
CONTINUOUS
10
65.1075
20
-76.09
11
51.1075
21
-76.09
0
LINE
8
BLACK
6
CONTINUOUS
10
51.1075
20
-76.09
11
51.0651
21
-76.0724
0
LINE
8
BLACK
6
CONTINUOUS
10
51.1675
20
-62.09
11
51.1675
21
-75.97
0
LINE
8
BLACK
6
CONTINUOUS
10
51.1675
20
-75.97
11
65.0475
21
-75.97
0
LINE
8
BLACK
6
CONTINUOUS
10
65.0475
20
-75.97
11
65.0475
21
-62.09
0
LINE
8
BLACK
6
CONTINUOUS
10
65.0475
20
-62.09
11
51.1675
21
-62.09
0
LINE
8
BLACK
6
CONTINUOUS
10
56.2651
20
-75.3724
11
56.2475
21
-75.33
0
LINE
8
BLACK
6
CONTINUOUS
10
56.2475
20
-75.33
11
56.2475
21
-72.23
0
LINE
8
BLACK
6
CONTINUOUS
10
56.2475
20
-72.23
11
56.2651
21
-72.1876
0
LINE
8
BLACK
6
CONTINUOUS
10
56.2651
20
-72.1876
11
56.3075
21
-72.17
0
LINE
8
BLACK
6
CONTINUOUS
10
56.3075
20
-72.17
11
59.9075
21
-72.17
0
LINE
8
BLACK
6
CONTINUOUS
10
59.9075
20
-72.17
11
59.9499
21
-72.1876
0
LINE
8
BLACK
6
CONTINUOUS
10
59.9499
20
-72.1876
11
59.9675
21
-72.23
0
LINE
8
BLACK
6
CONTINUOUS
10
59.9675
20
-72.23
11
59.9675
21
-75.33
0
LINE
8
BLACK
6
CONTINUOUS
10
59.9675
20
-75.33
11
59.9499
21
-75.3724
0
LINE
8
BLACK
6
CONTINUOUS
10
59.9499
20
-75.3724
11
59.9075
21
-75.39
0
LINE
8
BLACK
6
CONTINUOUS
10
59.9075
20
-75.39
11
56.3075
21
-75.39
0
LINE
8
BLACK
6
CONTINUOUS
10
56.3075
20
-75.39
11
56.2651
21
-75.3724
0
LINE
8
BLACK
6
CONTINUOUS
10
56.3675
20
-72.29
11
56.3675
21
-75.27
0
LINE
8
BLACK
6
CONTINUOUS
10
56.3675
20
-75.27
11
59.8475
21
-75.27
0
LINE
8
BLACK
6
CONTINUOUS
10
59.8475
20
-75.27
11
59.8475
21
-72.29
0
LINE
8
BLACK
6
CONTINUOUS
10
59.8475
20
-72.29
11
56.3675
21
-72.29
0
LINE
8
BLACK
6
CONTINUOUS
10
89.0651
20
-76.0724
11
89.0475
21
-76.03
0
LINE
8
BLACK
6
CONTINUOUS
10
89.0475
20
-76.03
11
89.0475
21
-62.03
0
LINE
8
BLACK
6
CONTINUOUS
10
89.0475
20
-62.03
11
89.0651
21
-61.9876
0
LINE
8
BLACK
6
CONTINUOUS
10
89.0651
20
-61.9876
11
89.1075
21
-61.97
0
LINE
8
BLACK
6
CONTINUOUS
10
89.1075
20
-61.97
11
103.108
21
-61.97
0
LINE
8
BLACK
6
CONTINUOUS
10
103.108
20
-61.97
11
103.15
21
-61.9876
0
LINE
8
BLACK
6
CONTINUOUS
10
103.15
20
-61.9876
11
103.167
21
-62.03
0
LINE
8
BLACK
6
CONTINUOUS
10
103.167
20
-62.03
11
103.167
21
-76.03
0
LINE
8
BLACK
6
CONTINUOUS
10
103.167
20
-76.03
11
103.15
21
-76.0724
0
LINE
8
BLACK
6
CONTINUOUS
10
103.15
20
-76.0724
11
103.108
21
-76.09
0
LINE
8
BLACK
6
CONTINUOUS
10
103.108
20
-76.09
11
89.1075
21
-76.09
0
LINE
8
BLACK
6
CONTINUOUS
10
89.1075
20
-76.09
11
89.0651
21
-76.0724
0
LINE
8
BLACK
6
CONTINUOUS
10
89.1675
20
-62.09
11
89.1675
21
-75.97
0
LINE
8
BLACK
6
CONTINUOUS
10
89.1675
20
-75.97
11
103.047
21
-75.97
0
LINE
8
BLACK
6
CONTINUOUS
10
103.047
20
-75.97
11
103.047
21
-62.09
0
LINE
8
BLACK
6
CONTINUOUS
10
103.047
20
-62.09
11
89.1675
21
-62.09
0
LINE
8
BLACK
6
CONTINUOUS
10
94.2651
20
-75.3724
11
94.2475
21
-75.33
0
LINE
8
BLACK
6
CONTINUOUS
10
94.2475
20
-75.33
11
94.2475
21
-72.23
0
LINE
8
BLACK
6
CONTINUOUS
10
94.2475
20
-72.23
11
94.2651
21
-72.1876
0
LINE
8
BLACK
6
CONTINUOUS
10
94.2651
20
-72.1876
11
94.3075
21
-72.17
0
LINE
8
BLACK
6
CONTINUOUS
10
94.3075
20
-72.17
11
97.9075
21
-72.17
0
LINE
8
BLACK
6
CONTINUOUS
10
97.9075
20
-72.17
11
97.9499
21
-72.1876
0
LINE
8
BLACK
6
CONTINUOUS
10
97.9499
20
-72.1876
11
97.9675
21
-72.23
0
LINE
8
BLACK
6
CONTINUOUS
10
97.9675
20
-72.23
11
97.9675
21
-75.33
0
LINE
8
BLACK
6
CONTINUOUS
10
97.9675
20
-75.33
11
97.9499
21
-75.3724
0
LINE
8
BLACK
6
CONTINUOUS
10
97.9499
20
-75.3724
11
97.9075
21
-75.39
0
LINE
8
BLACK
6
CONTINUOUS
10
97.9075
20
-75.39
11
94.3075
21
-75.39
0
LINE
8
BLACK
6
CONTINUOUS
10
94.3075
20
-75.39
11
94.2651
21
-75.3724
0
LINE
8
BLACK
6
CONTINUOUS
10
94.3675
20
-72.29
11
94.3675
21
-75.27
0
LINE
8
BLACK
6
CONTINUOUS
10
94.3675
20
-75.27
11
97.8475
21
-75.27
0
LINE
8
BLACK
6
CONTINUOUS
10
97.8475
20
-75.27
11
97.8475
21
-72.29
0
LINE
8
BLACK
6
CONTINUOUS
10
97.8475
20
-72.29
11
94.3675
21
-72.29
0
LINE
8
BLACK
6
CONTINUOUS
10
70.0651
20
-73.6974
11
70.0475
21
-73.655
0
LINE
8
BLACK
6
CONTINUOUS
10
70.0475
20
-73.655
11
70.0475
21
-59.655
0
LINE
8
BLACK
6
CONTINUOUS
10
70.0475
20
-59.655
11
70.0651
21
-59.6126
0
LINE
8
BLACK
6
CONTINUOUS
10
70.0651
20
-59.6126
11
70.1075
21
-59.595
0
LINE
8
BLACK
6
CONTINUOUS
10
70.1075
20
-59.595
11
84.1075
21
-59.595
0
LINE
8
BLACK
6
CONTINUOUS
10
84.1075
20
-59.595
11
84.1499
21
-59.6126
0
LINE
8
BLACK
6
CONTINUOUS
10
84.1499
20
-59.6126
11
84.1675
21
-59.655
0
LINE
8
BLACK
6
CONTINUOUS
10
84.1675
20
-59.655
11
84.1675
21
-73.655
0
LINE
8
BLACK
6
CONTINUOUS
10
84.1675
20
-73.655
11
84.1499
21
-73.6974
0
LINE
8
BLACK
6
CONTINUOUS
10
84.1499
20
-73.6974
11
84.1075
21
-73.715
0
LINE
8
BLACK
6
CONTINUOUS
10
84.1075
20
-73.715
11
70.1075
21
-73.715
0
LINE
8
BLACK
6
CONTINUOUS
10
70.1075
20
-73.715
11
70.0651
21
-73.6974
0
LINE
8
BLACK
6
CONTINUOUS
10
70.1675
20
-59.715
11
70.1675
21
-73.595
0
LINE
8
BLACK
6
CONTINUOUS
10
70.1675
20
-73.595
11
84.0475
21
-73.595
0
LINE
8
BLACK
6
CONTINUOUS
10
84.0475
20
-73.595
11
84.0475
21
-59.715
0
LINE
8
BLACK
6
CONTINUOUS
10
84.0475
20
-59.715
11
70.1675
21
-59.715
0
LINE
8
BLACK
6
CONTINUOUS
10
75.2651
20
-72.9974
11
75.2475
21
-72.955
0
LINE
8
BLACK
6
CONTINUOUS
10
75.2475
20
-72.955
11
75.2475
21
-69.855
0
LINE
8
BLACK
6
CONTINUOUS
10
75.2475
20
-69.855
11
75.2651
21
-69.8126
0
LINE
8
BLACK
6
CONTINUOUS
10
75.2651
20
-69.8126
11
75.3075
21
-69.795
0
LINE
8
BLACK
6
CONTINUOUS
10
75.3075
20
-69.795
11
78.9075
21
-69.795
0
LINE
8
BLACK
6
CONTINUOUS
10
78.9075
20
-69.795
11
78.9499
21
-69.8126
0
LINE
8
BLACK
6
CONTINUOUS
10
78.9499
20
-69.8126
11
78.9675
21
-69.855
0
LINE
8
BLACK
6
CONTINUOUS
10
78.9675
20
-69.855
11
78.9675
21
-72.955
0
LINE
8
BLACK
6
CONTINUOUS
10
78.9675
20
-72.955
11
78.9499
21
-72.9974
0
LINE
8
BLACK
6
CONTINUOUS
10
78.9499
20
-72.9974
11
78.9075
21
-73.015
0
LINE
8
BLACK
6
CONTINUOUS
10
78.9075
20
-73.015
11
75.3075
21
-73.015
0
LINE
8
BLACK
6
CONTINUOUS
10
75.3075
20
-73.015
11
75.2651
21
-72.9974
0
LINE
8
BLACK
6
CONTINUOUS
10
75.3675
20
-69.915
11
75.3675
21
-72.895
0
LINE
8
BLACK
6
CONTINUOUS
10
75.3675
20
-72.895
11
78.8475
21
-72.895
0
LINE
8
BLACK
6
CONTINUOUS
10
78.8475
20
-72.895
11
78.8475
21
-69.915
0
LINE
8
BLACK
6
CONTINUOUS
10
78.8475
20
-69.915
11
75.3675
21
-69.915
0
LINE
8
BLACK
6
CONTINUOUS
10
13.0651
20
-61.8224
11
13.0475
21
-61.78
0
LINE
8
BLACK
6
CONTINUOUS
10
13.0475
20
-61.78
11
13.0475
21
-47.78
0
LINE
8
BLACK
6
CONTINUOUS
10
13.0475
20
-47.78
11
13.0651
21
-47.7376
0
LINE
8
BLACK
6
CONTINUOUS
10
13.0651
20
-47.7376
11
13.1075
21
-47.72
0
LINE
8
BLACK
6
CONTINUOUS
10
13.1075
20
-47.72
11
27.1075
21
-47.72
0
LINE
8
BLACK
6
CONTINUOUS
10
27.1075
20
-47.72
11
27.1499
21
-47.7376
0
LINE
8
BLACK
6
CONTINUOUS
10
27.1499
20
-47.7376
11
27.1675
21
-47.78
0
LINE
8
BLACK
6
CONTINUOUS
10
27.1675
20
-47.78
11
27.1675
21
-61.78
0
LINE
8
BLACK
6
CONTINUOUS
10
27.1675
20
-61.78
11
27.1499
21
-61.8224
0
LINE
8
BLACK
6
CONTINUOUS
10
27.1499
20
-61.8224
11
27.1075
21
-61.84
0
LINE
8
BLACK
6
CONTINUOUS
10
27.1075
20
-61.84
11
13.1075
21
-61.84
0
LINE
8
BLACK
6
CONTINUOUS
10
13.1075
20
-61.84
11
13.0651
21
-61.8224
0
LINE
8
BLACK
6
CONTINUOUS
10
13.1675
20
-47.84
11
13.1675
21
-61.72
0
LINE
8
BLACK
6
CONTINUOUS
10
13.1675
20
-61.72
11
27.0475
21
-61.72
0
LINE
8
BLACK
6
CONTINUOUS
10
27.0475
20
-61.72
11
27.0475
21
-47.84
0
LINE
8
BLACK
6
CONTINUOUS
10
27.0475
20
-47.84
11
13.1675
21
-47.84
0
LINE
8
BLACK
6
CONTINUOUS
10
18.2651
20
-61.1224
11
18.2475
21
-61.08
0
LINE
8
BLACK
6
CONTINUOUS
10
18.2475
20
-61.08
11
18.2475
21
-57.98
0
LINE
8
BLACK
6
CONTINUOUS
10
18.2475
20
-57.98
11
18.2651
21
-57.9376
0
LINE
8
BLACK
6
CONTINUOUS
10
18.2651
20
-57.9376
11
18.3075
21
-57.92
0
LINE
8
BLACK
6
CONTINUOUS
10
18.3075
20
-57.92
11
21.9075
21
-57.92
0
LINE
8
BLACK
6
CONTINUOUS
10
21.9075
20
-57.92
11
21.9499
21
-57.9376
0
LINE
8
BLACK
6
CONTINUOUS
10
21.9499
20
-57.9376
11
21.9675
21
-57.98
0
LINE
8
BLACK
6
CONTINUOUS
10
21.9675
20
-57.98
11
21.9675
21
-61.08
0
LINE
8
BLACK
6
CONTINUOUS
10
21.9675
20
-61.08
11
21.9499
21
-61.1224
0
LINE
8
BLACK
6
CONTINUOUS
10
21.9499
20
-61.1224
11
21.9075
21
-61.14
0
LINE
8
BLACK
6
CONTINUOUS
10
21.9075
20
-61.14
11
18.3075
21
-61.14
0
LINE
8
BLACK
6
CONTINUOUS
10
18.3075
20
-61.14
11
18.2651
21
-61.1224
0
LINE
8
BLACK
6
CONTINUOUS
10
18.3675
20
-58.04
11
18.3675
21
-61.02
0
LINE
8
BLACK
6
CONTINUOUS
10
18.3675
20
-61.02
11
21.8475
21
-61.02
0
LINE
8
BLACK
6
CONTINUOUS
10
21.8475
20
-61.02
11
21.8475
21
-58.04
0
LINE
8
BLACK
6
CONTINUOUS
10
21.8475
20
-58.04
11
18.3675
21
-58.04
0
LINE
8
BLACK
6
CONTINUOUS
10
32.0651
20
-61.8224
11
32.0475
21
-61.78
0
LINE
8
BLACK
6
CONTINUOUS
10
32.0475
20
-61.78
11
32.0475
21
-47.78
0
LINE
8
BLACK
6
CONTINUOUS
10
32.0475
20
-47.78
11
32.0651
21
-47.7376
0
LINE
8
BLACK
6
CONTINUOUS
10
32.0651
20
-47.7376
11
32.1075
21
-47.72
0
LINE
8
BLACK
6
CONTINUOUS
10
32.1075
20
-47.72
11
46.1075
21
-47.72
0
LINE
8
BLACK
6
CONTINUOUS
10
46.1075
20
-47.72
11
46.1499
21
-47.7376
0
LINE
8
BLACK
6
CONTINUOUS
10
46.1499
20
-47.7376
11
46.1675
21
-47.78
0
LINE
8
BLACK
6
CONTINUOUS
10
46.1675
20
-47.78
11
46.1675
21
-61.78
0
LINE
8
BLACK
6
CONTINUOUS
10
46.1675
20
-61.78
11
46.1499
21
-61.8224
0
LINE
8
BLACK
6
CONTINUOUS
10
46.1499
20
-61.8224
11
46.1075
21
-61.84
0
LINE
8
BLACK
6
CONTINUOUS
10
46.1075
20
-61.84
11
32.1075
21
-61.84
0
LINE
8
BLACK
6
CONTINUOUS
10
32.1075
20
-61.84
11
32.0651
21
-61.8224
0
LINE
8
BLACK
6
CONTINUOUS
10
32.1675
20
-47.84
11
32.1675
21
-61.72
0
LINE
8
BLACK
6
CONTINUOUS
10
32.1675
20
-61.72
11
46.0475
21
-61.72
0
LINE
8
BLACK
6
CONTINUOUS
10
46.0475
20
-61.72
11
46.0475
21
-47.84
0
LINE
8
BLACK
6
CONTINUOUS
10
46.0475
20
-47.84
11
32.1675
21
-47.84
0
LINE
8
BLACK
6
CONTINUOUS
10
37.2651
20
-61.1224
11
37.2475
21
-61.08
0
LINE
8
BLACK
6
CONTINUOUS
10
37.2475
20
-61.08
11
37.2475
21
-57.98
0
LINE
8
BLACK
6
CONTINUOUS
10
37.2475
20
-57.98
11
37.2651
21
-57.9376
0
LINE
8
BLACK
6
CONTINUOUS
10
37.2651
20
-57.9376
11
37.3075
21
-57.92
0
LINE
8
BLACK
6
CONTINUOUS
10
37.3075
20
-57.92
11
40.9075
21
-57.92
0
LINE
8
BLACK
6
CONTINUOUS
10
40.9075
20
-57.92
11
40.9499
21
-57.9376
0
LINE
8
BLACK
6
CONTINUOUS
10
40.9499
20
-57.9376
11
40.9675
21
-57.98
0
LINE
8
BLACK
6
CONTINUOUS
10
40.9675
20
-57.98
11
40.9675
21
-61.08
0
LINE
8
BLACK
6
CONTINUOUS
10
40.9675
20
-61.08
11
40.9499
21
-61.1224
0
LINE
8
BLACK
6
CONTINUOUS
10
40.9499
20
-61.1224
11
40.9075
21
-61.14
0
LINE
8
BLACK
6
CONTINUOUS
10
40.9075
20
-61.14
11
37.3075
21
-61.14
0
LINE
8
BLACK
6
CONTINUOUS
10
37.3075
20
-61.14
11
37.2651
21
-61.1224
0
LINE
8
BLACK
6
CONTINUOUS
10
37.3675
20
-58.04
11
37.3675
21
-61.02
0
LINE
8
BLACK
6
CONTINUOUS
10
37.3675
20
-61.02
11
40.8475
21
-61.02
0
LINE
8
BLACK
6
CONTINUOUS
10
40.8475
20
-61.02
11
40.8475
21
-58.04
0
LINE
8
BLACK
6
CONTINUOUS
10
40.8475
20
-58.04
11
37.3675
21
-58.04
0
LINE
8
BLACK
6
CONTINUOUS
10
108.065
20
-59.4474
11
108.047
21
-59.405
0
LINE
8
BLACK
6
CONTINUOUS
10
108.047
20
-59.405
11
108.047
21
-45.405
0
LINE
8
BLACK
6
CONTINUOUS
10
108.047
20
-45.405
11
108.065
21
-45.3626
0
LINE
8
BLACK
6
CONTINUOUS
10
108.065
20
-45.3626
11
108.108
21
-45.345
0
LINE
8
BLACK
6
CONTINUOUS
10
108.108
20
-45.345
11
122.107
21
-45.345
0
LINE
8
BLACK
6
CONTINUOUS
10
122.107
20
-45.345
11
122.15
21
-45.3626
0
LINE
8
BLACK
6
CONTINUOUS
10
122.15
20
-45.3626
11
122.167
21
-45.405
0
LINE
8
BLACK
6
CONTINUOUS
10
122.167
20
-45.405
11
122.167
21
-59.405
0
LINE
8
BLACK
6
CONTINUOUS
10
122.167
20
-59.405
11
122.15
21
-59.4474
0
LINE
8
BLACK
6
CONTINUOUS
10
122.15
20
-59.4474
11
122.107
21
-59.465
0
LINE
8
BLACK
6
CONTINUOUS
10
122.107
20
-59.465
11
108.108
21
-59.465
0
LINE
8
BLACK
6
CONTINUOUS
10
108.108
20
-59.465
11
108.065
21
-59.4474
0
LINE
8
BLACK
6
CONTINUOUS
10
108.167
20
-45.465
11
108.167
21
-59.345
0
LINE
8
BLACK
6
CONTINUOUS
10
108.167
20
-59.345
11
122.047
21
-59.345
0
LINE
8
BLACK
6
CONTINUOUS
10
122.047
20
-59.345
11
122.047
21
-45.465
0
LINE
8
BLACK
6
CONTINUOUS
10
122.047
20
-45.465
11
108.167
21
-45.465
0
LINE
8
BLACK
6
CONTINUOUS
10
113.265
20
-58.7474
11
113.247
21
-58.705
0
LINE
8
BLACK
6
CONTINUOUS
10
113.247
20
-58.705
11
113.247
21
-55.605
0
LINE
8
BLACK
6
CONTINUOUS
10
113.247
20
-55.605
11
113.265
21
-55.5626
0
LINE
8
BLACK
6
CONTINUOUS
10
113.265
20
-55.5626
11
113.307
21
-55.545
0
LINE
8
BLACK
6
CONTINUOUS
10
113.307
20
-55.545
11
116.907
21
-55.545
0
LINE
8
BLACK
6
CONTINUOUS
10
116.907
20
-55.545
11
116.95
21
-55.5626
0
LINE
8
BLACK
6
CONTINUOUS
10
116.95
20
-55.5626
11
116.968
21
-55.605
0
LINE
8
BLACK
6
CONTINUOUS
10
116.968
20
-55.605
11
116.968
21
-58.705
0
LINE
8
BLACK
6
CONTINUOUS
10
116.968
20
-58.705
11
116.95
21
-58.7474
0
LINE
8
BLACK
6
CONTINUOUS
10
116.95
20
-58.7474
11
116.907
21
-58.765
0
LINE
8
BLACK
6
CONTINUOUS
10
116.907
20
-58.765
11
113.307
21
-58.765
0
LINE
8
BLACK
6
CONTINUOUS
10
113.307
20
-58.765
11
113.265
21
-58.7474
0
LINE
8
BLACK
6
CONTINUOUS
10
113.367
20
-55.665
11
113.367
21
-58.645
0
LINE
8
BLACK
6
CONTINUOUS
10
113.367
20
-58.645
11
116.847
21
-58.645
0
LINE
8
BLACK
6
CONTINUOUS
10
116.847
20
-58.645
11
116.847
21
-55.665
0
LINE
8
BLACK
6
CONTINUOUS
10
116.847
20
-55.665
11
113.367
21
-55.665
0
LINE
8
BLACK
6
CONTINUOUS
10
51.0651
20
-57.0724
11
51.0475
21
-57.03
0
LINE
8
BLACK
6
CONTINUOUS
10
51.0475
20
-57.03
11
51.0475
21
-43.03
0
LINE
8
BLACK
6
CONTINUOUS
10
51.0475
20
-43.03
11
51.0651
21
-42.9876
0
LINE
8
BLACK
6
CONTINUOUS
10
51.0651
20
-42.9876
11
51.1075
21
-42.97
0
LINE
8
BLACK
6
CONTINUOUS
10
51.1075
20
-42.97
11
65.1075
21
-42.97
0
LINE
8
BLACK
6
CONTINUOUS
10
65.1075
20
-42.97
11
65.1499
21
-42.9876
0
LINE
8
BLACK
6
CONTINUOUS
10
65.1499
20
-42.9876
11
65.1675
21
-43.03
0
LINE
8
BLACK
6
CONTINUOUS
10
65.1675
20
-43.03
11
65.1675
21
-57.03
0
LINE
8
BLACK
6
CONTINUOUS
10
65.1675
20
-57.03
11
65.1499
21
-57.0724
0
LINE
8
BLACK
6
CONTINUOUS
10
65.1499
20
-57.0724
11
65.1075
21
-57.09
0
LINE
8
BLACK
6
CONTINUOUS
10
65.1075
20
-57.09
11
51.1075
21
-57.09
0
LINE
8
BLACK
6
CONTINUOUS
10
51.1075
20
-57.09
11
51.0651
21
-57.0724
0
LINE
8
BLACK
6
CONTINUOUS
10
51.1675
20
-43.09
11
51.1675
21
-56.97
0
LINE
8
BLACK
6
CONTINUOUS
10
51.1675
20
-56.97
11
65.0475
21
-56.97
0
LINE
8
BLACK
6
CONTINUOUS
10
65.0475
20
-56.97
11
65.0475
21
-43.09
0
LINE
8
BLACK
6
CONTINUOUS
10
65.0475
20
-43.09
11
51.1675
21
-43.09
0
LINE
8
BLACK
6
CONTINUOUS
10
56.2651
20
-56.3724
11
56.2475
21
-56.33
0
LINE
8
BLACK
6
CONTINUOUS
10
56.2475
20
-56.33
11
56.2475
21
-53.23
0
LINE
8
BLACK
6
CONTINUOUS
10
56.2475
20
-53.23
11
56.2651
21
-53.1876
0
LINE
8
BLACK
6
CONTINUOUS
10
56.2651
20
-53.1876
11
56.3075
21
-53.17
0
LINE
8
BLACK
6
CONTINUOUS
10
56.3075
20
-53.17
11
59.9075
21
-53.17
0
LINE
8
BLACK
6
CONTINUOUS
10
59.9075
20
-53.17
11
59.9499
21
-53.1876
0
LINE
8
BLACK
6
CONTINUOUS
10
59.9499
20
-53.1876
11
59.9675
21
-53.23
0
LINE
8
BLACK
6
CONTINUOUS
10
59.9675
20
-53.23
11
59.9675
21
-56.33
0
LINE
8
BLACK
6
CONTINUOUS
10
59.9675
20
-56.33
11
59.9499
21
-56.3724
0
LINE
8
BLACK
6
CONTINUOUS
10
59.9499
20
-56.3724
11
59.9075
21
-56.39
0
LINE
8
BLACK
6
CONTINUOUS
10
59.9075
20
-56.39
11
56.3075
21
-56.39
0
LINE
8
BLACK
6
CONTINUOUS
10
56.3075
20
-56.39
11
56.2651
21
-56.3724
0
LINE
8
BLACK
6
CONTINUOUS
10
56.3675
20
-53.29
11
56.3675
21
-56.27
0
LINE
8
BLACK
6
CONTINUOUS
10
56.3675
20
-56.27
11
59.8475
21
-56.27
0
LINE
8
BLACK
6
CONTINUOUS
10
59.8475
20
-56.27
11
59.8475
21
-53.29
0
LINE
8
BLACK
6
CONTINUOUS
10
59.8475
20
-53.29
11
56.3675
21
-53.29
0
LINE
8
BLACK
6
CONTINUOUS
10
89.0651
20
-57.0724
11
89.0475
21
-57.03
0
LINE
8
BLACK
6
CONTINUOUS
10
89.0475
20
-57.03
11
89.0475
21
-43.03
0
LINE
8
BLACK
6
CONTINUOUS
10
89.0475
20
-43.03
11
89.0651
21
-42.9876
0
LINE
8
BLACK
6
CONTINUOUS
10
89.0651
20
-42.9876
11
89.1075
21
-42.97
0
LINE
8
BLACK
6
CONTINUOUS
10
89.1075
20
-42.97
11
103.108
21
-42.97
0
LINE
8
BLACK
6
CONTINUOUS
10
103.108
20
-42.97
11
103.15
21
-42.9876
0
LINE
8
BLACK
6
CONTINUOUS
10
103.15
20
-42.9876
11
103.167
21
-43.03
0
LINE
8
BLACK
6
CONTINUOUS
10
103.167
20
-43.03
11
103.167
21
-57.03
0
LINE
8
BLACK
6
CONTINUOUS
10
103.167
20
-57.03
11
103.15
21
-57.0724
0
LINE
8
BLACK
6
CONTINUOUS
10
103.15
20
-57.0724
11
103.108
21
-57.09
0
LINE
8
BLACK
6
CONTINUOUS
10
103.108
20
-57.09
11
89.1075
21
-57.09
0
LINE
8
BLACK
6
CONTINUOUS
10
89.1075
20
-57.09
11
89.0651
21
-57.0724
0
LINE
8
BLACK
6
CONTINUOUS
10
89.1675
20
-43.09
11
89.1675
21
-56.97
0
LINE
8
BLACK
6
CONTINUOUS
10
89.1675
20
-56.97
11
103.047
21
-56.97
0
LINE
8
BLACK
6
CONTINUOUS
10
103.047
20
-56.97
11
103.047
21
-43.09
0
LINE
8
BLACK
6
CONTINUOUS
10
103.047
20
-43.09
11
89.1675
21
-43.09
0
LINE
8
BLACK
6
CONTINUOUS
10
94.2651
20
-56.3724
11
94.2475
21
-56.33
0
LINE
8
BLACK
6
CONTINUOUS
10
94.2475
20
-56.33
11
94.2475
21
-53.23
0
LINE
8
BLACK
6
CONTINUOUS
10
94.2475
20
-53.23
11
94.2651
21
-53.1876
0
LINE
8
BLACK
6
CONTINUOUS
10
94.2651
20
-53.1876
11
94.3075
21
-53.17
0
LINE
8
BLACK
6
CONTINUOUS
10
94.3075
20
-53.17
11
97.9075
21
-53.17
0
LINE
8
BLACK
6
CONTINUOUS
10
97.9075
20
-53.17
11
97.9499
21
-53.1876
0
LINE
8
BLACK
6
CONTINUOUS
10
97.9499
20
-53.1876
11
97.9675
21
-53.23
0
LINE
8
BLACK
6
CONTINUOUS
10
97.9675
20
-53.23
11
97.9675
21
-56.33
0
LINE
8
BLACK
6
CONTINUOUS
10
97.9675
20
-56.33
11
97.9499
21
-56.3724
0
LINE
8
BLACK
6
CONTINUOUS
10
97.9499
20
-56.3724
11
97.9075
21
-56.39
0
LINE
8
BLACK
6
CONTINUOUS
10
97.9075
20
-56.39
11
94.3075
21
-56.39
0
LINE
8
BLACK
6
CONTINUOUS
10
94.3075
20
-56.39
11
94.2651
21
-56.3724
0
LINE
8
BLACK
6
CONTINUOUS
10
94.3675
20
-53.29
11
94.3675
21
-56.27
0
LINE
8
BLACK
6
CONTINUOUS
10
94.3675
20
-56.27
11
97.8475
21
-56.27
0
LINE
8
BLACK
6
CONTINUOUS
10
97.8475
20
-56.27
11
97.8475
21
-53.29
0
LINE
8
BLACK
6
CONTINUOUS
10
97.8475
20
-53.29
11
94.3675
21
-53.29
0
LINE
8
BLACK
6
CONTINUOUS
10
70.0651
20
-54.6974
11
70.0475
21
-54.655
0
LINE
8
BLACK
6
CONTINUOUS
10
70.0475
20
-54.655
11
70.0475
21
-40.655
0
LINE
8
BLACK
6
CONTINUOUS
10
70.0475
20
-40.655
11
70.0651
21
-40.6126
0
LINE
8
BLACK
6
CONTINUOUS
10
70.0651
20
-40.6126
11
70.1075
21
-40.595
0
LINE
8
BLACK
6
CONTINUOUS
10
70.1075
20
-40.595
11
84.1075
21
-40.595
0
LINE
8
BLACK
6
CONTINUOUS
10
84.1075
20
-40.595
11
84.1499
21
-40.6126
0
LINE
8
BLACK
6
CONTINUOUS
10
84.1499
20
-40.6126
11
84.1675
21
-40.655
0
LINE
8
BLACK
6
CONTINUOUS
10
84.1675
20
-40.655
11
84.1675
21
-54.655
0
LINE
8
BLACK
6
CONTINUOUS
10
84.1675
20
-54.655
11
84.1499
21
-54.6974
0
LINE
8
BLACK
6
CONTINUOUS
10
84.1499
20
-54.6974
11
84.1075
21
-54.715
0
LINE
8
BLACK
6
CONTINUOUS
10
84.1075
20
-54.715
11
70.1075
21
-54.715
0
LINE
8
BLACK
6
CONTINUOUS
10
70.1075
20
-54.715
11
70.0651
21
-54.6974
0
LINE
8
BLACK
6
CONTINUOUS
10
70.1675
20
-40.715
11
70.1675
21
-54.595
0
LINE
8
BLACK
6
CONTINUOUS
10
70.1675
20
-54.595
11
84.0475
21
-54.595
0
LINE
8
BLACK
6
CONTINUOUS
10
84.0475
20
-54.595
11
84.0475
21
-40.715
0
LINE
8
BLACK
6
CONTINUOUS
10
84.0475
20
-40.715
11
70.1675
21
-40.715
0
LINE
8
BLACK
6
CONTINUOUS
10
75.2651
20
-53.9974
11
75.2475
21
-53.955
0
LINE
8
BLACK
6
CONTINUOUS
10
75.2475
20
-53.955
11
75.2475
21
-50.855
0
LINE
8
BLACK
6
CONTINUOUS
10
75.2475
20
-50.855
11
75.2651
21
-50.8126
0
LINE
8
BLACK
6
CONTINUOUS
10
75.2651
20
-50.8126
11
75.3075
21
-50.795
0
LINE
8
BLACK
6
CONTINUOUS
10
75.3075
20
-50.795
11
78.9075
21
-50.795
0
LINE
8
BLACK
6
CONTINUOUS
10
78.9075
20
-50.795
11
78.9499
21
-50.8126
0
LINE
8
BLACK
6
CONTINUOUS
10
78.9499
20
-50.8126
11
78.9675
21
-50.855
0
LINE
8
BLACK
6
CONTINUOUS
10
78.9675
20
-50.855
11
78.9675
21
-53.955
0
LINE
8
BLACK
6
CONTINUOUS
10
78.9675
20
-53.955
11
78.9499
21
-53.9974
0
LINE
8
BLACK
6
CONTINUOUS
10
78.9499
20
-53.9974
11
78.9075
21
-54.015
0
LINE
8
BLACK
6
CONTINUOUS
10
78.9075
20
-54.015
11
75.3075
21
-54.015
0
LINE
8
BLACK
6
CONTINUOUS
10
75.3075
20
-54.015
11
75.2651
21
-53.9974
0
LINE
8
BLACK
6
CONTINUOUS
10
75.3675
20
-50.915
11
75.3675
21
-53.895
0
LINE
8
BLACK
6
CONTINUOUS
10
75.3675
20
-53.895
11
78.8475
21
-53.895
0
LINE
8
BLACK
6
CONTINUOUS
10
78.8475
20
-53.895
11
78.8475
21
-50.915
0
LINE
8
BLACK
6
CONTINUOUS
10
78.8475
20
-50.915
11
75.3675
21
-50.915
0
LINE
8
BLACK
6
CONTINUOUS
10
32.0651
20
-42.8224
11
32.0475
21
-42.78
0
LINE
8
BLACK
6
CONTINUOUS
10
32.0475
20
-42.78
11
32.0475
21
-28.78
0
LINE
8
BLACK
6
CONTINUOUS
10
32.0475
20
-28.78
11
32.0651
21
-28.7376
0
LINE
8
BLACK
6
CONTINUOUS
10
32.0651
20
-28.7376
11
32.1075
21
-28.72
0
LINE
8
BLACK
6
CONTINUOUS
10
32.1075
20
-28.72
11
46.1075
21
-28.72
0
LINE
8
BLACK
6
CONTINUOUS
10
46.1075
20
-28.72
11
46.1499
21
-28.7376
0
LINE
8
BLACK
6
CONTINUOUS
10
46.1499
20
-28.7376
11
46.1675
21
-28.78
0
LINE
8
BLACK
6
CONTINUOUS
10
46.1675
20
-28.78
11
46.1675
21
-42.78
0
LINE
8
BLACK
6
CONTINUOUS
10
46.1675
20
-42.78
11
46.1499
21
-42.8224
0
LINE
8
BLACK
6
CONTINUOUS
10
46.1499
20
-42.8224
11
46.1075
21
-42.84
0
LINE
8
BLACK
6
CONTINUOUS
10
46.1075
20
-42.84
11
32.1075
21
-42.84
0
LINE
8
BLACK
6
CONTINUOUS
10
32.1075
20
-42.84
11
32.0651
21
-42.8224
0
LINE
8
BLACK
6
CONTINUOUS
10
32.1675
20
-28.84
11
32.1675
21
-42.72
0
LINE
8
BLACK
6
CONTINUOUS
10
32.1675
20
-42.72
11
46.0475
21
-42.72
0
LINE
8
BLACK
6
CONTINUOUS
10
46.0475
20
-42.72
11
46.0475
21
-28.84
0
LINE
8
BLACK
6
CONTINUOUS
10
46.0475
20
-28.84
11
32.1675
21
-28.84
0
LINE
8
BLACK
6
CONTINUOUS
10
37.2651
20
-42.1224
11
37.2475
21
-42.08
0
LINE
8
BLACK
6
CONTINUOUS
10
37.2475
20
-42.08
11
37.2475
21
-38.98
0
LINE
8
BLACK
6
CONTINUOUS
10
37.2475
20
-38.98
11
37.2651
21
-38.9376
0
LINE
8
BLACK
6
CONTINUOUS
10
37.2651
20
-38.9376
11
37.3075
21
-38.92
0
LINE
8
BLACK
6
CONTINUOUS
10
37.3075
20
-38.92
11
40.9075
21
-38.92
0
LINE
8
BLACK
6
CONTINUOUS
10
40.9075
20
-38.92
11
40.9499
21
-38.9376
0
LINE
8
BLACK
6
CONTINUOUS
10
40.9499
20
-38.9376
11
40.9675
21
-38.98
0
LINE
8
BLACK
6
CONTINUOUS
10
40.9675
20
-38.98
11
40.9675
21
-42.08
0
LINE
8
BLACK
6
CONTINUOUS
10
40.9675
20
-42.08
11
40.9499
21
-42.1224
0
LINE
8
BLACK
6
CONTINUOUS
10
40.9499
20
-42.1224
11
40.9075
21
-42.14
0
LINE
8
BLACK
6
CONTINUOUS
10
40.9075
20
-42.14
11
37.3075
21
-42.14
0
LINE
8
BLACK
6
CONTINUOUS
10
37.3075
20
-42.14
11
37.2651
21
-42.1224
0
LINE
8
BLACK
6
CONTINUOUS
10
37.3675
20
-39.04
11
37.3675
21
-42.02
0
LINE
8
BLACK
6
CONTINUOUS
10
37.3675
20
-42.02
11
40.8475
21
-42.02
0
LINE
8
BLACK
6
CONTINUOUS
10
40.8475
20
-42.02
11
40.8475
21
-39.04
0
LINE
8
BLACK
6
CONTINUOUS
10
40.8475
20
-39.04
11
37.3675
21
-39.04
0
LINE
8
BLACK
6
CONTINUOUS
10
13.0651
20
-42.8224
11
13.0475
21
-42.78
0
LINE
8
BLACK
6
CONTINUOUS
10
13.0475
20
-42.78
11
13.0475
21
-28.78
0
LINE
8
BLACK
6
CONTINUOUS
10
13.0475
20
-28.78
11
13.0651
21
-28.7376
0
LINE
8
BLACK
6
CONTINUOUS
10
13.0651
20
-28.7376
11
13.1075
21
-28.72
0
LINE
8
BLACK
6
CONTINUOUS
10
13.1075
20
-28.72
11
27.1075
21
-28.72
0
LINE
8
BLACK
6
CONTINUOUS
10
27.1075
20
-28.72
11
27.1499
21
-28.7376
0
LINE
8
BLACK
6
CONTINUOUS
10
27.1499
20
-28.7376
11
27.1675
21
-28.78
0
LINE
8
BLACK
6
CONTINUOUS
10
27.1675
20
-28.78
11
27.1675
21
-42.78
0
LINE
8
BLACK
6
CONTINUOUS
10
27.1675
20
-42.78
11
27.1499
21
-42.8224
0
LINE
8
BLACK
6
CONTINUOUS
10
27.1499
20
-42.8224
11
27.1075
21
-42.84
0
LINE
8
BLACK
6
CONTINUOUS
10
27.1075
20
-42.84
11
13.1075
21
-42.84
0
LINE
8
BLACK
6
CONTINUOUS
10
13.1075
20
-42.84
11
13.0651
21
-42.8224
0
LINE
8
BLACK
6
CONTINUOUS
10
13.1675
20
-28.84
11
13.1675
21
-42.72
0
LINE
8
BLACK
6
CONTINUOUS
10
13.1675
20
-42.72
11
27.0475
21
-42.72
0
LINE
8
BLACK
6
CONTINUOUS
10
27.0475
20
-42.72
11
27.0475
21
-28.84
0
LINE
8
BLACK
6
CONTINUOUS
10
27.0475
20
-28.84
11
13.1675
21
-28.84
0
LINE
8
BLACK
6
CONTINUOUS
10
18.2651
20
-42.1224
11
18.2475
21
-42.08
0
LINE
8
BLACK
6
CONTINUOUS
10
18.2475
20
-42.08
11
18.2475
21
-38.98
0
LINE
8
BLACK
6
CONTINUOUS
10
18.2475
20
-38.98
11
18.2651
21
-38.9376
0
LINE
8
BLACK
6
CONTINUOUS
10
18.2651
20
-38.9376
11
18.3075
21
-38.92
0
LINE
8
BLACK
6
CONTINUOUS
10
18.3075
20
-38.92
11
21.9075
21
-38.92
0
LINE
8
BLACK
6
CONTINUOUS
10
21.9075
20
-38.92
11
21.9499
21
-38.9376
0
LINE
8
BLACK
6
CONTINUOUS
10
21.9499
20
-38.9376
11
21.9675
21
-38.98
0
LINE
8
BLACK
6
CONTINUOUS
10
21.9675
20
-38.98
11
21.9675
21
-42.08
0
LINE
8
BLACK
6
CONTINUOUS
10
21.9675
20
-42.08
11
21.9499
21
-42.1224
0
LINE
8
BLACK
6
CONTINUOUS
10
21.9499
20
-42.1224
11
21.9075
21
-42.14
0
LINE
8
BLACK
6
CONTINUOUS
10
21.9075
20
-42.14
11
18.3075
21
-42.14
0
LINE
8
BLACK
6
CONTINUOUS
10
18.3075
20
-42.14
11
18.2651
21
-42.1224
0
LINE
8
BLACK
6
CONTINUOUS
10
18.3675
20
-39.04
11
18.3675
21
-42.02
0
LINE
8
BLACK
6
CONTINUOUS
10
18.3675
20
-42.02
11
21.8475
21
-42.02
0
LINE
8
BLACK
6
CONTINUOUS
10
21.8475
20
-42.02
11
21.8475
21
-39.04
0
LINE
8
BLACK
6
CONTINUOUS
10
21.8475
20
-39.04
11
18.3675
21
-39.04
0
LINE
8
BLACK
6
CONTINUOUS
10
108.065
20
-40.4474
11
108.047
21
-40.405
0
LINE
8
BLACK
6
CONTINUOUS
10
108.047
20
-40.405
11
108.047
21
-26.405
0
LINE
8
BLACK
6
CONTINUOUS
10
108.047
20
-26.405
11
108.065
21
-26.3626
0
LINE
8
BLACK
6
CONTINUOUS
10
108.065
20
-26.3626
11
108.108
21
-26.345
0
LINE
8
BLACK
6
CONTINUOUS
10
108.108
20
-26.345
11
122.107
21
-26.345
0
LINE
8
BLACK
6
CONTINUOUS
10
122.107
20
-26.345
11
122.15
21
-26.3626
0
LINE
8
BLACK
6
CONTINUOUS
10
122.15
20
-26.3626
11
122.167
21
-26.405
0
LINE
8
BLACK
6
CONTINUOUS
10
122.167
20
-26.405
11
122.167
21
-40.405
0
LINE
8
BLACK
6
CONTINUOUS
10
122.167
20
-40.405
11
122.15
21
-40.4474
0
LINE
8
BLACK
6
CONTINUOUS
10
122.15
20
-40.4474
11
122.107
21
-40.465
0
LINE
8
BLACK
6
CONTINUOUS
10
122.107
20
-40.465
11
108.108
21
-40.465
0
LINE
8
BLACK
6
CONTINUOUS
10
108.108
20
-40.465
11
108.065
21
-40.4474
0
LINE
8
BLACK
6
CONTINUOUS
10
108.167
20
-26.465
11
108.167
21
-40.345
0
LINE
8
BLACK
6
CONTINUOUS
10
108.167
20
-40.345
11
122.047
21
-40.345
0
LINE
8
BLACK
6
CONTINUOUS
10
122.047
20
-40.345
11
122.047
21
-26.465
0
LINE
8
BLACK
6
CONTINUOUS
10
122.047
20
-26.465
11
108.167
21
-26.465
0
LINE
8
BLACK
6
CONTINUOUS
10
113.265
20
-39.7474
11
113.247
21
-39.705
0
LINE
8
BLACK
6
CONTINUOUS
10
113.247
20
-39.705
11
113.247
21
-36.605
0
LINE
8
BLACK
6
CONTINUOUS
10
113.247
20
-36.605
11
113.265
21
-36.5626
0
LINE
8
BLACK
6
CONTINUOUS
10
113.265
20
-36.5626
11
113.307
21
-36.545
0
LINE
8
BLACK
6
CONTINUOUS
10
113.307
20
-36.545
11
116.907
21
-36.545
0
LINE
8
BLACK
6
CONTINUOUS
10
116.907
20
-36.545
11
116.95
21
-36.5626
0
LINE
8
BLACK
6
CONTINUOUS
10
116.95
20
-36.5626
11
116.968
21
-36.605
0
LINE
8
BLACK
6
CONTINUOUS
10
116.968
20
-36.605
11
116.968
21
-39.705
0
LINE
8
BLACK
6
CONTINUOUS
10
116.968
20
-39.705
11
116.95
21
-39.7474
0
LINE
8
BLACK
6
CONTINUOUS
10
116.95
20
-39.7474
11
116.907
21
-39.765
0
LINE
8
BLACK
6
CONTINUOUS
10
116.907
20
-39.765
11
113.307
21
-39.765
0
LINE
8
BLACK
6
CONTINUOUS
10
113.307
20
-39.765
11
113.265
21
-39.7474
0
LINE
8
BLACK
6
CONTINUOUS
10
113.367
20
-36.665
11
113.367
21
-39.645
0
LINE
8
BLACK
6
CONTINUOUS
10
113.367
20
-39.645
11
116.847
21
-39.645
0
LINE
8
BLACK
6
CONTINUOUS
10
116.847
20
-39.645
11
116.847
21
-36.665
0
LINE
8
BLACK
6
CONTINUOUS
10
116.847
20
-36.665
11
113.367
21
-36.665
0
LINE
8
BLACK
6
CONTINUOUS
10
51.0651
20
-38.0724
11
51.0475
21
-38.03
0
LINE
8
BLACK
6
CONTINUOUS
10
51.0475
20
-38.03
11
51.0475
21
-24.03
0
LINE
8
BLACK
6
CONTINUOUS
10
51.0475
20
-24.03
11
51.0651
21
-23.9876
0
LINE
8
BLACK
6
CONTINUOUS
10
51.0651
20
-23.9876
11
51.1075
21
-23.97
0
LINE
8
BLACK
6
CONTINUOUS
10
51.1075
20
-23.97
11
65.1075
21
-23.97
0
LINE
8
BLACK
6
CONTINUOUS
10
65.1075
20
-23.97
11
65.1499
21
-23.9876
0
LINE
8
BLACK
6
CONTINUOUS
10
65.1499
20
-23.9876
11
65.1675
21
-24.03
0
LINE
8
BLACK
6
CONTINUOUS
10
65.1675
20
-24.03
11
65.1675
21
-38.03
0
LINE
8
BLACK
6
CONTINUOUS
10
65.1675
20
-38.03
11
65.1499
21
-38.0724
0
LINE
8
BLACK
6
CONTINUOUS
10
65.1499
20
-38.0724
11
65.1075
21
-38.09
0
LINE
8
BLACK
6
CONTINUOUS
10
65.1075
20
-38.09
11
51.1075
21
-38.09
0
LINE
8
BLACK
6
CONTINUOUS
10
51.1075
20
-38.09
11
51.0651
21
-38.0724
0
LINE
8
BLACK
6
CONTINUOUS
10
51.1675
20
-24.09
11
51.1675
21
-37.97
0
LINE
8
BLACK
6
CONTINUOUS
10
51.1675
20
-37.97
11
65.0475
21
-37.97
0
LINE
8
BLACK
6
CONTINUOUS
10
65.0475
20
-37.97
11
65.0475
21
-24.09
0
LINE
8
BLACK
6
CONTINUOUS
10
65.0475
20
-24.09
11
51.1675
21
-24.09
0
LINE
8
BLACK
6
CONTINUOUS
10
56.2651
20
-37.3724
11
56.2475
21
-37.33
0
LINE
8
BLACK
6
CONTINUOUS
10
56.2475
20
-37.33
11
56.2475
21
-34.23
0
LINE
8
BLACK
6
CONTINUOUS
10
56.2475
20
-34.23
11
56.2651
21
-34.1876
0
LINE
8
BLACK
6
CONTINUOUS
10
56.2651
20
-34.1876
11
56.3075
21
-34.17
0
LINE
8
BLACK
6
CONTINUOUS
10
56.3075
20
-34.17
11
59.9075
21
-34.17
0
LINE
8
BLACK
6
CONTINUOUS
10
59.9075
20
-34.17
11
59.9499
21
-34.1876
0
LINE
8
BLACK
6
CONTINUOUS
10
59.9499
20
-34.1876
11
59.9675
21
-34.23
0
LINE
8
BLACK
6
CONTINUOUS
10
59.9675
20
-34.23
11
59.9675
21
-37.33
0
LINE
8
BLACK
6
CONTINUOUS
10
59.9675
20
-37.33
11
59.9499
21
-37.3724
0
LINE
8
BLACK
6
CONTINUOUS
10
59.9499
20
-37.3724
11
59.9075
21
-37.39
0
LINE
8
BLACK
6
CONTINUOUS
10
59.9075
20
-37.39
11
56.3075
21
-37.39
0
LINE
8
BLACK
6
CONTINUOUS
10
56.3075
20
-37.39
11
56.2651
21
-37.3724
0
LINE
8
BLACK
6
CONTINUOUS
10
56.3675
20
-34.29
11
56.3675
21
-37.27
0
LINE
8
BLACK
6
CONTINUOUS
10
56.3675
20
-37.27
11
59.8475
21
-37.27
0
LINE
8
BLACK
6
CONTINUOUS
10
59.8475
20
-37.27
11
59.8475
21
-34.29
0
LINE
8
BLACK
6
CONTINUOUS
10
59.8475
20
-34.29
11
56.3675
21
-34.29
0
LINE
8
BLACK
6
CONTINUOUS
10
89.0651
20
-38.0724
11
89.0475
21
-38.03
0
LINE
8
BLACK
6
CONTINUOUS
10
89.0475
20
-38.03
11
89.0475
21
-24.03
0
LINE
8
BLACK
6
CONTINUOUS
10
89.0475
20
-24.03
11
89.0651
21
-23.9876
0
LINE
8
BLACK
6
CONTINUOUS
10
89.0651
20
-23.9876
11
89.1075
21
-23.97
0
LINE
8
BLACK
6
CONTINUOUS
10
89.1075
20
-23.97
11
103.108
21
-23.97
0
LINE
8
BLACK
6
CONTINUOUS
10
103.108
20
-23.97
11
103.15
21
-23.9876
0
LINE
8
BLACK
6
CONTINUOUS
10
103.15
20
-23.9876
11
103.167
21
-24.03
0
LINE
8
BLACK
6
CONTINUOUS
10
103.167
20
-24.03
11
103.167
21
-38.03
0
LINE
8
BLACK
6
CONTINUOUS
10
103.167
20
-38.03
11
103.15
21
-38.0724
0
LINE
8
BLACK
6
CONTINUOUS
10
103.15
20
-38.0724
11
103.108
21
-38.09
0
LINE
8
BLACK
6
CONTINUOUS
10
103.108
20
-38.09
11
89.1075
21
-38.09
0
LINE
8
BLACK
6
CONTINUOUS
10
89.1075
20
-38.09
11
89.0651
21
-38.0724
0
LINE
8
BLACK
6
CONTINUOUS
10
89.1675
20
-24.09
11
89.1675
21
-37.97
0
LINE
8
BLACK
6
CONTINUOUS
10
89.1675
20
-37.97
11
103.047
21
-37.97
0
LINE
8
BLACK
6
CONTINUOUS
10
103.047
20
-37.97
11
103.047
21
-24.09
0
LINE
8
BLACK
6
CONTINUOUS
10
103.047
20
-24.09
11
89.1675
21
-24.09
0
LINE
8
BLACK
6
CONTINUOUS
10
94.2651
20
-37.3724
11
94.2475
21
-37.33
0
LINE
8
BLACK
6
CONTINUOUS
10
94.2475
20
-37.33
11
94.2475
21
-34.23
0
LINE
8
BLACK
6
CONTINUOUS
10
94.2475
20
-34.23
11
94.2651
21
-34.1876
0
LINE
8
BLACK
6
CONTINUOUS
10
94.2651
20
-34.1876
11
94.3075
21
-34.17
0
LINE
8
BLACK
6
CONTINUOUS
10
94.3075
20
-34.17
11
97.9075
21
-34.17
0
LINE
8
BLACK
6
CONTINUOUS
10
97.9075
20
-34.17
11
97.9499
21
-34.1876
0
LINE
8
BLACK
6
CONTINUOUS
10
97.9499
20
-34.1876
11
97.9675
21
-34.23
0
LINE
8
BLACK
6
CONTINUOUS
10
97.9675
20
-34.23
11
97.9675
21
-37.33
0
LINE
8
BLACK
6
CONTINUOUS
10
97.9675
20
-37.33
11
97.9499
21
-37.3724
0
LINE
8
BLACK
6
CONTINUOUS
10
97.9499
20
-37.3724
11
97.9075
21
-37.39
0
LINE
8
BLACK
6
CONTINUOUS
10
97.9075
20
-37.39
11
94.3075
21
-37.39
0
LINE
8
BLACK
6
CONTINUOUS
10
94.3075
20
-37.39
11
94.2651
21
-37.3724
0
LINE
8
BLACK
6
CONTINUOUS
10
94.3675
20
-34.29
11
94.3675
21
-37.27
0
LINE
8
BLACK
6
CONTINUOUS
10
94.3675
20
-37.27
11
97.8475
21
-37.27
0
LINE
8
BLACK
6
CONTINUOUS
10
97.8475
20
-37.27
11
97.8475
21
-34.29
0
LINE
8
BLACK
6
CONTINUOUS
10
97.8475
20
-34.29
11
94.3675
21
-34.29
0
LINE
8
BLACK
6
CONTINUOUS
10
70.0651
20
-35.6974
11
70.0475
21
-35.655
0
LINE
8
BLACK
6
CONTINUOUS
10
70.0475
20
-35.655
11
70.0475
21
-21.655
0
LINE
8
BLACK
6
CONTINUOUS
10
70.0475
20
-21.655
11
70.0651
21
-21.6126
0
LINE
8
BLACK
6
CONTINUOUS
10
70.0651
20
-21.6126
11
70.1075
21
-21.595
0
LINE
8
BLACK
6
CONTINUOUS
10
70.1075
20
-21.595
11
84.1075
21
-21.595
0
LINE
8
BLACK
6
CONTINUOUS
10
84.1075
20
-21.595
11
84.1499
21
-21.6126
0
LINE
8
BLACK
6
CONTINUOUS
10
84.1499
20
-21.6126
11
84.1675
21
-21.655
0
LINE
8
BLACK
6
CONTINUOUS
10
84.1675
20
-21.655
11
84.1675
21
-35.655
0
LINE
8
BLACK
6
CONTINUOUS
10
84.1675
20
-35.655
11
84.1499
21
-35.6974
0
LINE
8
BLACK
6
CONTINUOUS
10
84.1499
20
-35.6974
11
84.1075
21
-35.715
0
LINE
8
BLACK
6
CONTINUOUS
10
84.1075
20
-35.715
11
70.1075
21
-35.715
0
LINE
8
BLACK
6
CONTINUOUS
10
70.1075
20
-35.715
11
70.0651
21
-35.6974
0
LINE
8
BLACK
6
CONTINUOUS
10
70.1675
20
-21.715
11
70.1675
21
-35.595
0
LINE
8
BLACK
6
CONTINUOUS
10
70.1675
20
-35.595
11
84.0475
21
-35.595
0
LINE
8
BLACK
6
CONTINUOUS
10
84.0475
20
-35.595
11
84.0475
21
-21.715
0
LINE
8
BLACK
6
CONTINUOUS
10
84.0475
20
-21.715
11
70.1675
21
-21.715
0
LINE
8
BLACK
6
CONTINUOUS
10
75.2651
20
-34.9974
11
75.2475
21
-34.955
0
LINE
8
BLACK
6
CONTINUOUS
10
75.2475
20
-34.955
11
75.2475
21
-31.855
0
LINE
8
BLACK
6
CONTINUOUS
10
75.2475
20
-31.855
11
75.2651
21
-31.8126
0
LINE
8
BLACK
6
CONTINUOUS
10
75.2651
20
-31.8126
11
75.3075
21
-31.795
0
LINE
8
BLACK
6
CONTINUOUS
10
75.3075
20
-31.795
11
78.9075
21
-31.795
0
LINE
8
BLACK
6
CONTINUOUS
10
78.9075
20
-31.795
11
78.9499
21
-31.8126
0
LINE
8
BLACK
6
CONTINUOUS
10
78.9499
20
-31.8126
11
78.9675
21
-31.855
0
LINE
8
BLACK
6
CONTINUOUS
10
78.9675
20
-31.855
11
78.9675
21
-34.955
0
LINE
8
BLACK
6
CONTINUOUS
10
78.9675
20
-34.955
11
78.9499
21
-34.9974
0
LINE
8
BLACK
6
CONTINUOUS
10
78.9499
20
-34.9974
11
78.9075
21
-35.015
0
LINE
8
BLACK
6
CONTINUOUS
10
78.9075
20
-35.015
11
75.3075
21
-35.015
0
LINE
8
BLACK
6
CONTINUOUS
10
75.3075
20
-35.015
11
75.2651
21
-34.9974
0
LINE
8
BLACK
6
CONTINUOUS
10
75.3675
20
-31.915
11
75.3675
21
-34.895
0
LINE
8
BLACK
6
CONTINUOUS
10
75.3675
20
-34.895
11
78.8475
21
-34.895
0
LINE
8
BLACK
6
CONTINUOUS
10
78.8475
20
-34.895
11
78.8475
21
-31.915
0
LINE
8
BLACK
6
CONTINUOUS
10
78.8475
20
-31.915
11
75.3675
21
-31.915
0
LINE
8
BLACK
6
CONTINUOUS
10
124.749
20
-26.6894
11
124.786
21
-26.7394
0
LINE
8
BLACK
6
CONTINUOUS
10
124.786
20
-26.7394
11
124.786
21
-26.8012
0
LINE
8
BLACK
6
CONTINUOUS
10
124.786
20
-26.8012
11
124.749
21
-26.8512
0
LINE
8
BLACK
6
CONTINUOUS
10
124.749
20
-26.8512
11
124.69
21
-26.8703
0
LINE
8
BLACK
6
CONTINUOUS
10
124.69
20
-26.8703
11
124.69
21
-26.8703
0
LINE
8
BLACK
6
CONTINUOUS
10
124.69
20
-26.8703
11
124.631
21
-26.8512
0
LINE
8
BLACK
6
CONTINUOUS
10
124.631
20
-26.8512
11
124.595
21
-26.8012
0
LINE
8
BLACK
6
CONTINUOUS
10
124.595
20
-26.8012
11
124.595
21
-26.7394
0
LINE
8
BLACK
6
CONTINUOUS
10
124.595
20
-26.7394
11
124.631
21
-26.6894
0
LINE
8
BLACK
6
CONTINUOUS
10
124.631
20
-26.6894
11
124.69
21
-26.6703
0
LINE
8
BLACK
6
CONTINUOUS
10
124.69
20
-26.6703
11
124.69
21
-26.6703
0
LINE
8
BLACK
6
CONTINUOUS
10
124.69
20
-26.6703
11
124.749
21
-26.6894
0
LINE
8
BLACK
6
CONTINUOUS
10
49.2714
20
-26.2114
11
49.2905
21
-26.2702
0
LINE
8
BLACK
6
CONTINUOUS
10
49.2905
20
-26.2702
11
49.2905
21
-26.2704
0
LINE
8
BLACK
6
CONTINUOUS
10
49.2905
20
-26.2704
11
49.2714
21
-26.3292
0
LINE
8
BLACK
6
CONTINUOUS
10
49.2714
20
-26.3292
11
49.2214
21
-26.3655
0
LINE
8
BLACK
6
CONTINUOUS
10
49.2214
20
-26.3655
11
49.1596
21
-26.3655
0
LINE
8
BLACK
6
CONTINUOUS
10
49.1596
20
-26.3655
11
49.1096
21
-26.3292
0
LINE
8
BLACK
6
CONTINUOUS
10
49.1096
20
-26.3292
11
49.0905
21
-26.2704
0
LINE
8
BLACK
6
CONTINUOUS
10
49.0905
20
-26.2704
11
49.0905
21
-26.2702
0
LINE
8
BLACK
6
CONTINUOUS
10
49.0905
20
-26.2702
11
49.1096
21
-26.2114
0
LINE
8
BLACK
6
CONTINUOUS
10
49.1096
20
-26.2114
11
49.1596
21
-26.1751
0
LINE
8
BLACK
6
CONTINUOUS
10
49.1596
20
-26.1751
11
49.2214
21
-26.1751
0
LINE
8
BLACK
6
CONTINUOUS
10
49.2214
20
-26.1751
11
49.2714
21
-26.2114
0
LINE
8
BLACK
6
CONTINUOUS
10
32.0651
20
-23.8224
11
32.0475
21
-23.78
0
LINE
8
BLACK
6
CONTINUOUS
10
32.0475
20
-23.78
11
32.0475
21
-9.78
0
LINE
8
BLACK
6
CONTINUOUS
10
32.0475
20
-9.78
11
32.0651
21
-9.73757
0
LINE
8
BLACK
6
CONTINUOUS
10
32.0651
20
-9.73757
11
32.1075
21
-9.72
0
LINE
8
BLACK
6
CONTINUOUS
10
32.1075
20
-9.72
11
46.1075
21
-9.72
0
LINE
8
BLACK
6
CONTINUOUS
10
46.1075
20
-9.72
11
46.1499
21
-9.73757
0
LINE
8
BLACK
6
CONTINUOUS
10
46.1499
20
-9.73757
11
46.1675
21
-9.78
0
LINE
8
BLACK
6
CONTINUOUS
10
46.1675
20
-9.78
11
46.1675
21
-23.78
0
LINE
8
BLACK
6
CONTINUOUS
10
46.1675
20
-23.78
11
46.1499
21
-23.8224
0
LINE
8
BLACK
6
CONTINUOUS
10
46.1499
20
-23.8224
11
46.1075
21
-23.84
0
LINE
8
BLACK
6
CONTINUOUS
10
46.1075
20
-23.84
11
32.1075
21
-23.84
0
LINE
8
BLACK
6
CONTINUOUS
10
32.1075
20
-23.84
11
32.0651
21
-23.8224
0
LINE
8
BLACK
6
CONTINUOUS
10
32.1675
20
-9.84
11
32.1675
21
-23.72
0
LINE
8
BLACK
6
CONTINUOUS
10
32.1675
20
-23.72
11
46.0475
21
-23.72
0
LINE
8
BLACK
6
CONTINUOUS
10
46.0475
20
-23.72
11
46.0475
21
-9.84
0
LINE
8
BLACK
6
CONTINUOUS
10
46.0475
20
-9.84
11
32.1675
21
-9.84
0
LINE
8
BLACK
6
CONTINUOUS
10
13.0651
20
-23.8224
11
13.0475
21
-23.78
0
LINE
8
BLACK
6
CONTINUOUS
10
13.0475
20
-23.78
11
13.0475
21
-9.78
0
LINE
8
BLACK
6
CONTINUOUS
10
13.0475
20
-9.78
11
13.0651
21
-9.73757
0
LINE
8
BLACK
6
CONTINUOUS
10
13.0651
20
-9.73757
11
13.1075
21
-9.72
0
LINE
8
BLACK
6
CONTINUOUS
10
13.1075
20
-9.72
11
27.1075
21
-9.72
0
LINE
8
BLACK
6
CONTINUOUS
10
27.1075
20
-9.72
11
27.1499
21
-9.73757
0
LINE
8
BLACK
6
CONTINUOUS
10
27.1499
20
-9.73757
11
27.1675
21
-9.78
0
LINE
8
BLACK
6
CONTINUOUS
10
27.1675
20
-9.78
11
27.1675
21
-23.78
0
LINE
8
BLACK
6
CONTINUOUS
10
27.1675
20
-23.78
11
27.1499
21
-23.8224
0
LINE
8
BLACK
6
CONTINUOUS
10
27.1499
20
-23.8224
11
27.1075
21
-23.84
0
LINE
8
BLACK
6
CONTINUOUS
10
27.1075
20
-23.84
11
13.1075
21
-23.84
0
LINE
8
BLACK
6
CONTINUOUS
10
13.1075
20
-23.84
11
13.0651
21
-23.8224
0
LINE
8
BLACK
6
CONTINUOUS
10
13.1675
20
-9.84
11
13.1675
21
-23.72
0
LINE
8
BLACK
6
CONTINUOUS
10
13.1675
20
-23.72
11
27.0475
21
-23.72
0
LINE
8
BLACK
6
CONTINUOUS
10
27.0475
20
-23.72
11
27.0475
21
-9.84
0
LINE
8
BLACK
6
CONTINUOUS
10
27.0475
20
-9.84
11
13.1675
21
-9.84
0
LINE
8
BLACK
6
CONTINUOUS
10
86.7493
20
-21.9393
11
86.7856
21
-21.9893
0
LINE
8
BLACK
6
CONTINUOUS
10
86.7856
20
-21.9893
11
86.7856
21
-22.0512
0
LINE
8
BLACK
6
CONTINUOUS
10
86.7856
20
-22.0512
11
86.7493
21
-22.1012
0
LINE
8
BLACK
6
CONTINUOUS
10
86.7493
20
-22.1012
11
86.6905
21
-22.1203
0
LINE
8
BLACK
6
CONTINUOUS
10
86.6905
20
-22.1203
11
86.6903
21
-22.1203
0
LINE
8
BLACK
6
CONTINUOUS
10
86.6903
20
-22.1203
11
86.6315
21
-22.1012
0
LINE
8
BLACK
6
CONTINUOUS
10
86.6315
20
-22.1012
11
86.5952
21
-22.0512
0
LINE
8
BLACK
6
CONTINUOUS
10
86.5952
20
-22.0512
11
86.5952
21
-21.9893
0
LINE
8
BLACK
6
CONTINUOUS
10
86.5952
20
-21.9893
11
86.6315
21
-21.9393
0
LINE
8
BLACK
6
CONTINUOUS
10
86.6315
20
-21.9393
11
86.6903
21
-21.9203
0
LINE
8
BLACK
6
CONTINUOUS
10
86.6903
20
-21.9203
11
86.6905
21
-21.9203
0
LINE
8
BLACK
6
CONTINUOUS
10
86.6905
20
-21.9203
11
86.7493
21
-21.9393
0
LINE
8
BLACK
6
CONTINUOUS
10
67.7471
20
-21.9378
11
67.7834
21
-21.9878
0
LINE
8
BLACK
6
CONTINUOUS
10
67.7834
20
-21.9878
11
67.7834
21
-22.0496
0
LINE
8
BLACK
6
CONTINUOUS
10
67.7834
20
-22.0496
11
67.7471
21
-22.0996
0
LINE
8
BLACK
6
CONTINUOUS
10
67.7471
20
-22.0996
11
67.6883
21
-22.1187
0
LINE
8
BLACK
6
CONTINUOUS
10
67.6883
20
-22.1187
11
60.5775
21
-22.1187
0
LINE
8
BLACK
6
CONTINUOUS
10
60.5775
20
-22.1187
11
60.5187
21
-22.0996
0
LINE
8
BLACK
6
CONTINUOUS
10
60.5187
20
-22.0996
11
60.4824
21
-22.0496
0
LINE
8
BLACK
6
CONTINUOUS
10
60.4824
20
-22.0496
11
60.4824
21
-21.9878
0
LINE
8
BLACK
6
CONTINUOUS
10
60.4824
20
-21.9878
11
60.5187
21
-21.9378
0
LINE
8
BLACK
6
CONTINUOUS
10
60.5187
20
-21.9378
11
60.5775
21
-21.9187
0
LINE
8
BLACK
6
CONTINUOUS
10
60.5775
20
-21.9187
11
67.6883
21
-21.9187
0
LINE
8
BLACK
6
CONTINUOUS
10
67.6883
20
-21.9187
11
67.7471
21
-21.9378
0
LINE
8
BLACK
6
CONTINUOUS
10
68.2714
20
-21.4613
11
68.2905
21
-21.5201
0
LINE
8
BLACK
6
CONTINUOUS
10
68.2905
20
-21.5201
11
68.2905
21
-21.5204
0
LINE
8
BLACK
6
CONTINUOUS
10
68.2905
20
-21.5204
11
68.2714
21
-21.5792
0
LINE
8
BLACK
6
CONTINUOUS
10
68.2714
20
-21.5792
11
68.2214
21
-21.6155
0
LINE
8
BLACK
6
CONTINUOUS
10
68.2214
20
-21.6155
11
68.1596
21
-21.6155
0
LINE
8
BLACK
6
CONTINUOUS
10
68.1596
20
-21.6155
11
68.1096
21
-21.5792
0
LINE
8
BLACK
6
CONTINUOUS
10
68.1096
20
-21.5792
11
68.0905
21
-21.5204
0
LINE
8
BLACK
6
CONTINUOUS
10
68.0905
20
-21.5204
11
68.0905
21
-21.5201
0
LINE
8
BLACK
6
CONTINUOUS
10
68.0905
20
-21.5201
11
68.1096
21
-21.4613
0
LINE
8
BLACK
6
CONTINUOUS
10
68.1096
20
-21.4613
11
68.1596
21
-21.425
0
LINE
8
BLACK
6
CONTINUOUS
10
68.1596
20
-21.425
11
68.2214
21
-21.425
0
LINE
8
BLACK
6
CONTINUOUS
10
68.2214
20
-21.425
11
68.2714
21
-21.4613
0
LINE
8
BLACK
6
CONTINUOUS
10
108.065
20
-21.4474
11
108.047
21
-21.405
0
LINE
8
BLACK
6
CONTINUOUS
10
108.047
20
-21.405
11
108.047
21
-7.405
0
LINE
8
BLACK
6
CONTINUOUS
10
108.047
20
-7.405
11
108.065
21
-7.36257
0
LINE
8
BLACK
6
CONTINUOUS
10
108.065
20
-7.36257
11
108.108
21
-7.345
0
LINE
8
BLACK
6
CONTINUOUS
10
108.108
20
-7.345
11
122.107
21
-7.345
0
LINE
8
BLACK
6
CONTINUOUS
10
122.107
20
-7.345
11
122.15
21
-7.36257
0
LINE
8
BLACK
6
CONTINUOUS
10
122.15
20
-7.36257
11
122.167
21
-7.405
0
LINE
8
BLACK
6
CONTINUOUS
10
122.167
20
-7.405
11
122.167
21
-21.405
0
LINE
8
BLACK
6
CONTINUOUS
10
122.167
20
-21.405
11
122.15
21
-21.4474
0
LINE
8
BLACK
6
CONTINUOUS
10
122.15
20
-21.4474
11
122.107
21
-21.465
0
LINE
8
BLACK
6
CONTINUOUS
10
122.107
20
-21.465
11
108.108
21
-21.465
0
LINE
8
BLACK
6
CONTINUOUS
10
108.108
20
-21.465
11
108.065
21
-21.4474
0
LINE
8
BLACK
6
CONTINUOUS
10
108.167
20
-7.465
11
108.167
21
-21.345
0
LINE
8
BLACK
6
CONTINUOUS
10
108.167
20
-21.345
11
122.047
21
-21.345
0
LINE
8
BLACK
6
CONTINUOUS
10
122.047
20
-21.345
11
122.047
21
-7.465
0
LINE
8
BLACK
6
CONTINUOUS
10
122.047
20
-7.465
11
108.167
21
-7.465
0
LINE
8
BLACK
6
CONTINUOUS
10
68.2714
20
-20.2114
11
68.2905
21
-20.2702
0
LINE
8
BLACK
6
CONTINUOUS
10
68.2905
20
-20.2702
11
68.2905
21
-20.2702
0
LINE
8
BLACK
6
CONTINUOUS
10
68.2905
20
-20.2702
11
68.2714
21
-20.329
0
LINE
8
BLACK
6
CONTINUOUS
10
68.2714
20
-20.329
11
68.2214
21
-20.3653
0
LINE
8
BLACK
6
CONTINUOUS
10
68.2214
20
-20.3653
11
68.1596
21
-20.3653
0
LINE
8
BLACK
6
CONTINUOUS
10
68.1596
20
-20.3653
11
68.1096
21
-20.329
0
LINE
8
BLACK
6
CONTINUOUS
10
68.1096
20
-20.329
11
68.0905
21
-20.2702
0
LINE
8
BLACK
6
CONTINUOUS
10
68.0905
20
-20.2702
11
68.0905
21
-20.2702
0
LINE
8
BLACK
6
CONTINUOUS
10
68.0905
20
-20.2702
11
68.1096
21
-20.2114
0
LINE
8
BLACK
6
CONTINUOUS
10
68.1096
20
-20.2114
11
68.1596
21
-20.1751
0
LINE
8
BLACK
6
CONTINUOUS
10
68.1596
20
-20.1751
11
68.2214
21
-20.1751
0
LINE
8
BLACK
6
CONTINUOUS
10
68.2214
20
-20.1751
11
68.2714
21
-20.2114
0
LINE
8
BLACK
6
CONTINUOUS
10
89.0651
20
-19.0724
11
89.0475
21
-19.03
0
LINE
8
BLACK
6
CONTINUOUS
10
89.0475
20
-19.03
11
89.0475
21
-5.03
0
LINE
8
BLACK
6
CONTINUOUS
10
89.0475
20
-5.03
11
89.0651
21
-4.98757
0
LINE
8
BLACK
6
CONTINUOUS
10
89.0651
20
-4.98757
11
89.1075
21
-4.97
0
LINE
8
BLACK
6
CONTINUOUS
10
89.1075
20
-4.97
11
103.108
21
-4.97
0
LINE
8
BLACK
6
CONTINUOUS
10
103.108
20
-4.97
11
103.15
21
-4.98757
0
LINE
8
BLACK
6
CONTINUOUS
10
103.15
20
-4.98757
11
103.167
21
-5.03
0
LINE
8
BLACK
6
CONTINUOUS
10
103.167
20
-5.03
11
103.167
21
-19.03
0
LINE
8
BLACK
6
CONTINUOUS
10
103.167
20
-19.03
11
103.15
21
-19.0724
0
LINE
8
BLACK
6
CONTINUOUS
10
103.15
20
-19.0724
11
103.108
21
-19.09
0
LINE
8
BLACK
6
CONTINUOUS
10
103.108
20
-19.09
11
89.1075
21
-19.09
0
LINE
8
BLACK
6
CONTINUOUS
10
89.1075
20
-19.09
11
89.0651
21
-19.0724
0
LINE
8
BLACK
6
CONTINUOUS
10
89.1675
20
-5.09
11
89.1675
21
-18.97
0
LINE
8
BLACK
6
CONTINUOUS
10
89.1675
20
-18.97
11
103.047
21
-18.97
0
LINE
8
BLACK
6
CONTINUOUS
10
103.047
20
-18.97
11
103.047
21
-5.09
0
LINE
8
BLACK
6
CONTINUOUS
10
103.047
20
-5.09
11
89.1675
21
-5.09
0
LINE
8
BLACK
6
CONTINUOUS
10
51.0651
20
-19.0724
11
51.0475
21
-19.03
0
LINE
8
BLACK
6
CONTINUOUS
10
51.0475
20
-19.03
11
51.0475
21
-5.03
0
LINE
8
BLACK
6
CONTINUOUS
10
51.0475
20
-5.03
11
51.0651
21
-4.98757
0
LINE
8
BLACK
6
CONTINUOUS
10
51.0651
20
-4.98757
11
51.1075
21
-4.97
0
LINE
8
BLACK
6
CONTINUOUS
10
51.1075
20
-4.97
11
65.1075
21
-4.97
0
LINE
8
BLACK
6
CONTINUOUS
10
65.1075
20
-4.97
11
65.1499
21
-4.98757
0
LINE
8
BLACK
6
CONTINUOUS
10
65.1499
20
-4.98757
11
65.1675
21
-5.03
0
LINE
8
BLACK
6
CONTINUOUS
10
65.1675
20
-5.03
11
65.1675
21
-19.03
0
LINE
8
BLACK
6
CONTINUOUS
10
65.1675
20
-19.03
11
65.1499
21
-19.0724
0
LINE
8
BLACK
6
CONTINUOUS
10
65.1499
20
-19.0724
11
65.1075
21
-19.09
0
LINE
8
BLACK
6
CONTINUOUS
10
65.1075
20
-19.09
11
51.1075
21
-19.09
0
LINE
8
BLACK
6
CONTINUOUS
10
51.1075
20
-19.09
11
51.0651
21
-19.0724
0
LINE
8
BLACK
6
CONTINUOUS
10
51.1675
20
-5.09
11
51.1675
21
-18.97
0
LINE
8
BLACK
6
CONTINUOUS
10
51.1675
20
-18.97
11
65.0475
21
-18.97
0
LINE
8
BLACK
6
CONTINUOUS
10
65.0475
20
-18.97
11
65.0475
21
-5.09
0
LINE
8
BLACK
6
CONTINUOUS
10
65.0475
20
-5.09
11
51.1675
21
-5.09
0
LINE
8
BLACK
6
CONTINUOUS
10
70.0651
20
-16.6974
11
70.0475
21
-16.655
0
LINE
8
BLACK
6
CONTINUOUS
10
70.0475
20
-16.655
11
70.0475
21
-2.655
0
LINE
8
BLACK
6
CONTINUOUS
10
70.0475
20
-2.655
11
70.0651
21
-2.61257
0
LINE
8
BLACK
6
CONTINUOUS
10
70.0651
20
-2.61257
11
70.1075
21
-2.595
0
LINE
8
BLACK
6
CONTINUOUS
10
70.1075
20
-2.595
11
84.1075
21
-2.595
0
LINE
8
BLACK
6
CONTINUOUS
10
84.1075
20
-2.595
11
84.1499
21
-2.61257
0
LINE
8
BLACK
6
CONTINUOUS
10
84.1499
20
-2.61257
11
84.1675
21
-2.655
0
LINE
8
BLACK
6
CONTINUOUS
10
84.1675
20
-2.655
11
84.1675
21
-16.655
0
LINE
8
BLACK
6
CONTINUOUS
10
84.1675
20
-16.655
11
84.1499
21
-16.6974
0
LINE
8
BLACK
6
CONTINUOUS
10
84.1499
20
-16.6974
11
84.1075
21
-16.715
0
LINE
8
BLACK
6
CONTINUOUS
10
84.1075
20
-16.715
11
70.1075
21
-16.715
0
LINE
8
BLACK
6
CONTINUOUS
10
70.1075
20
-16.715
11
70.0651
21
-16.6974
0
LINE
8
BLACK
6
CONTINUOUS
10
70.1675
20
-2.715
11
70.1675
21
-16.595
0
LINE
8
BLACK
6
CONTINUOUS
10
70.1675
20
-16.595
11
84.0475
21
-16.595
0
LINE
8
BLACK
6
CONTINUOUS
10
84.0475
20
-16.595
11
84.0475
21
-2.715
0
LINE
8
BLACK
6
CONTINUOUS
10
84.0475
20
-2.715
11
70.1675
21
-2.715
  0
ENDSEC
  0
EOF
